<?xml version="1.0" standalone="no"?>
<!DOCTYPE svg PUBLIC "-//W3C//DTD SVG 1.1//EN" "http://www.w3.org/Graphics/SVG/1.1/DTD/svg11.dtd" >
<svg xmlns="http://www.w3.org/2000/svg">
<metadata>Generated by IcoMoon</metadata>
<defs>
<font id="icomoon" horiz-adv-x="1024">
<font-face units-per-em="1024" ascent="960" descent="-64" />
<missing-glyph horiz-adv-x="1024" />
<glyph unicode="&#x20;" horiz-adv-x="512" d="" />
<glyph unicode="&#xe900;" glyph-name="e-books" horiz-adv-x="1110" d="M1089.559 737.576h-143.594c-10.994 0-19.907-8.913-19.907-19.907v-753.534c0-10.994 8.913-19.907 19.907-19.907h143.594c10.994 0 19.907 8.913 19.907 19.907v753.534c0 10.994-8.913 19.907-19.907 19.907zM1069.653-15.959h-103.78v713.721h103.78v-713.721zM319.038 585.489l-169.34 35.036c-1.244 0.276-2.672 0.435-4.138 0.435-9.55 0-17.53-6.725-19.461-15.698l-125.834-607.418c-0.215-1.099-0.338-2.363-0.338-3.655 0-9.99 7.359-18.261 16.951-19.689l168.387-35.315h3.981c9.532 0.064 17.468 6.816 19.353 15.796l126.895 606.089c0.361 1.418 0.568 3.046 0.568 4.722 0 9.977-7.34 18.24-16.915 19.683zM124.483 394.385l128.464-26.542-44.591-212.338-128.73 26.542 44.591 212.338zM172.79-17.816l-129.261 27.073 26.542 132.711 128.464-26.542zM261.441 406.86l-128.73 26.542 30.258 144.39 129.261-26.542zM596.404 959.204h-213.931c-10.994 0-19.907-8.913-19.907-19.907v-982.063c0-10.994 8.913-19.907 19.907-19.907h213.931c10.994 0 19.907 8.913 19.907 19.907v982.063c0 10.994-8.913 19.907-19.907 19.907zM402.381 813.221h174.117v-723.011h-174.117v723.807zM576.498 919.39v-66.356h-174.117v67.152h174.117zM402.381-21.267v71.664h174.117v-71.929h-174.117zM768.133 869.226l-106.169-11.679c-10.1-1.049-17.908-9.516-17.908-19.806 0-0.784 0.045-1.557 0.133-2.317l95.013-881.906c1.103-9.991 9.459-17.703 19.633-17.783h1.335l106.169 11.679c10.1 1.049 17.908 9.516 17.908 19.806 0 0.784-0.045 1.557-0.133 2.317l-93.951 882.172c-1.174 9.978-9.58 17.646-19.778 17.646-0.794 0-1.576-0.046-2.346-0.137zM752.738 826.492l38.752-358.586h-2.123l-65.825-7.166-38.486 359.647zM800.78 381.379h-2.123l-65.029-6.105-5.043 46.98 65.029 6.105h1.858zM775.83-22.86l-38.752 358.851 65.825 7.166h1.858l38.752-358.055z" />
<glyph unicode="&#xe901;" glyph-name="help" d="M511.85 960c-282.558-0.171-511.55-229.268-511.55-511.85 0-282.687 229.163-511.85 511.85-511.85s511.85 229.163 511.85 511.85c-0.341 282.655-229.471 511.68-512.133 511.85zM511.85-19.048c-257.732 0.171-466.599 209.143-466.599 466.898 0 257.861 209.038 466.898 466.898 466.898 257.755 0 466.728-208.867 466.898-466.582-0.341-257.845-209.346-466.744-467.182-466.915zM509.153 700.778c-18.514-0.263-36.361-2.543-53.507-6.628-16.817-4.395-32.677-10.032-47.857-16.906-3.692-1.644-7.976-6.124-10.066-11.677-1.164-2.668-1.812-5.604-1.812-8.692s0.648-6.023 1.817-8.679c3.506-7.406 11.050-12.533 19.791-12.533 3.7 0 7.185 0.919 10.241 2.54 9.468 4.595 20.906 8.982 32.744 12.429 15.584 4.245 31.665 6.532 48.255 6.692 2.069 0.144 4.371 0.226 6.693 0.226 23.127 0 44.359-8.111 61.008-21.643 15.862-14.042 25.924-34.669 25.924-57.646 0-0.756-0.011-1.509-0.033-2.259 0.008-0.26 0.011-0.697 0.011-1.135 0-14.972-3.66-29.090-10.134-41.506-7.582-14.375-17.611-26.986-29.579-37.431l-30.121-26.503c-18.769-16.051-34.23-35.339-45.646-57.084-8.051-19.001-12.435-39.861-12.435-61.745 0-3.108 0.088-6.195 0.263-9.259l-0.019-19.055h41.955v16.482c-0.171 2.556-0.269 5.542-0.269 8.55 0 11.866 1.519 23.378 4.374 34.351 3.005 10.51 8.042 20.502 14.64 29.25 8.932 11.565 18.763 21.967 29.537 31.312l33.23 30.193c9.709 8.957 18.378 18.767 25.98 29.393 14.519 19.734 23.002 43.809 23.002 69.865 0 1.98-0.049 3.949-0.146 5.905 0.046 0.832 0.067 2.134 0.067 3.441 0 35.345-14.852 67.222-38.656 89.729-23.811 19.039-54.285 30.52-87.44 30.52-4.158 0-8.274-0.181-12.34-0.534zM500.462 249.463v0c-20.275 0-36.711-16.436-36.711-36.711s16.436-36.711 36.711-36.711v0c20.275 0 36.711 16.436 36.711 36.711s-16.436 36.711-36.711 36.711z" />
<glyph unicode="&#xe902;" glyph-name="close" d="M553.567 448.197l461.765 461.371c5.794 5.409 9.405 13.092 9.405 21.619 0 16.32-13.23 29.55-29.55 29.55-8.527 0-16.21-3.611-21.603-9.388l-461.781-461.388-461.371 461.371c-5.263 4.914-12.351 7.931-20.145 7.931-16.32 0-29.55-13.23-29.55-29.55 0-7.793 3.017-14.882 7.947-20.162l461.355-461.354-461.371-459.795c-5.683-5.482-9.212-13.164-9.212-21.67 0-16.62 13.473-30.094 30.094-30.094 8.114 0 15.478 3.211 20.891 8.433l461.362 461.363 461.765-461.371c5.403-5.213 12.768-8.424 20.882-8.424 16.62 0 30.094 13.473 30.094 30.094 0 8.506-3.529 16.188-9.203 21.661z" />
<glyph unicode="&#xe903;" glyph-name="menu" horiz-adv-x="1732" d="M1696.599 480.599h-1660.644c-19.857 0-35.955-16.098-35.955-35.955s16.098-35.955 35.955-35.955h1660.644c19.857 0 35.955 16.098 35.955 35.955s-16.098 35.955-35.955 35.955zM1217.199 7.91h-1181.243c-19.857 0-35.955-16.098-35.955-35.955s16.098-35.955 35.955-35.955h1181.243c19.857 0 35.955 16.098 35.955 35.955s-16.098 35.955-35.955 35.955zM35.955 888.090h1660.644c19.857 0 35.955 16.098 35.955 35.955s-16.098 35.955-35.955 35.955h-1660.644c-19.857 0-35.955-16.098-35.955-35.955s16.098-35.955 35.955-35.955z" />
<glyph unicode="&#xe904;" glyph-name="audio-books" horiz-adv-x="1158" d="M1029.415 376.103v115.215c0 267.13-193.73 468.682-451.234 468.682s-451.234-201.551-451.234-468.682v-115.215c-1.186 0.041-2.58 0.064-3.98 0.064-67.323 0-122.17-53.419-124.466-120.183l-0.006-122.946c2.302-66.974 57.148-120.393 124.471-120.393 1.4 0 2.794 0.023 4.182 0.069l11.53-0.005c20.062-46.385 65.428-78.253 118.237-78.253 70.942 0 128.451 57.51 128.451 128.451 0 0.648-0.005 1.296-0.014 1.942l0.001 260.715c-0.171 70.873-57.578 128.281-128.435 128.451-0.328 0.003-0.697 0.004-1.065 0.004-31.442 0-60.227-11.377-82.463-30.239l0.184 67.537c0 240.658 174.176 423.558 405.509 423.558s405.509-181.998 405.509-423.558v-68.588c-22.051 18.71-50.837 30.087-82.279 30.087-0.369 0-0.737-0.002-1.105-0.005-70.817-0.17-128.224-57.578-128.395-128.434v-259.626c-0.026-0.956-0.040-2.080-0.040-3.209 0-70.942 57.51-128.451 128.451-128.451 54.24 0 100.628 33.618 119.464 81.155l8.125 0.869c63.774 4.813 130.256 52.042 130.256 118.223v123.036c-2.601 66.728-57.324 119.836-124.452 119.836-1.83 0-3.65-0.039-5.461-0.118zM126.947 59.036c-1.21-0.066-2.626-0.103-4.050-0.103-42.204 0-76.719 32.921-79.266 74.483l-0.011 122.96c2.558 41.787 37.073 74.707 79.277 74.707 1.425 0 2.841-0.038 4.247-0.112l-0.197-266.22c0-1.805 0-3.61 0-5.716v0zM256.902 408.893c45.952-0.17 83.158-37.376 83.328-83.312v-260.829c0-46.104-37.374-83.478-83.478-83.478s-83.478 37.374-83.478 83.478v261.415c0.51 45.797 37.754 82.726 83.624 82.726 0.002 0 0.003 0 0.005 0zM900.663-18.877c-45.927 0.341-83.027 37.651-83.027 83.627 0 0.001 0 0.002 0 0.002v260.813c0 46.104 37.374 83.478 83.478 83.478s83.478-37.374 83.478-83.478v-260.813c0 0 0 0 0-0.001 0-46.187-37.442-83.629-83.629-83.629-0.106 0-0.211 0-0.317 0.001zM1111.239 133.64c0-34.595-39.107-67.083-83.328-72.498 0 0 0 2.106 0 3.309v266.529c1.21 0.066 2.626 0.103 4.050 0.103 42.204 0 76.719-32.921 79.266-74.483l0.011-122.96z" />
<glyph unicode="&#xe905;" glyph-name="news" horiz-adv-x="1588" d="M1569.813 502.41c-55.611 75.865-354.95 453.814-776.153 457.59-420.86-3.776-720.885-381.726-775.81-457.59-11.257-15.049-18.024-34.025-18.024-54.581s6.767-39.533 18.196-54.822c55.783-75.624 355.122-453.574 776.324-457.35 420.516 3.776 720.885 381.726 775.81 457.59 11.152 15.004 17.853 33.894 17.853 54.35 0 20.658-6.834 39.72-18.365 55.048zM1528.62 422.426c-32.611-44.283-330.234-432.874-734.273-436.65-404.725 5.149-703.721 393.741-734.959 436.65-5.035 6.598-8.068 14.96-8.068 24.030s3.032 17.432 8.138 24.126c31.167 45.559 330.163 434.15 734.202 437.927 404.382-3.433 702.005-392.024 734.616-436.65 5.464-6.76 8.772-15.46 8.772-24.933 0-9.278-3.173-17.815-8.494-24.585zM685.527 690.526v0c-1.555-0.938-2.903-1.959-4.135-3.104-1.41-0.848-2.645-1.754-3.791-2.758-0.967-1.179-1.878-2.528-2.651-3.962-2.197-2.539-3.499-5.725-3.499-9.215 0-0.065 0-0.13 0.001-0.195-0.074-0.711-0.116-1.547-0.116-2.393s0.042-1.683 0.124-2.507c-0.088-0.668-0.134-1.564-0.134-2.47s0.046-1.803 0.135-2.686c-0.074-0.558-0.111-1.334-0.111-2.12s0.037-1.563 0.11-2.329l63.842-147.512-162.714 41.88h-17.85l-4.119-3.090-3.433-3.090c-1.008-1.296-1.922-2.76-2.681-4.314-0.787-1.138-1.471-2.262-2.062-3.442l-0.063-1.855c-9.682-26.696-15.28-57.509-15.28-89.629 0-74.306 29.961-141.615 78.461-190.504 48.437-48.751 115.544-78.937 189.701-78.937 0.161 0 0.322 0 0.482 0h-0.025c0.23-0.001 0.503-0.001 0.776-0.001 148.637 0 269.13 120.494 269.13 269.13 0 74.426-30.211 141.796-79.039 190.516-48.77 48.467-115.978 78.421-190.181 78.421-40.175 0-78.299-8.78-112.557-24.527zM948.822 291.637c-39.101-39.233-93.188-63.508-152.946-63.508-0.296 0-0.593 0.001-0.889 0.002h0.046c-0.107 0-0.234 0-0.36 0-59.972 0-114.242 24.411-153.417 63.839-39.143 39.507-63.321 93.877-63.321 153.893 0 17.498 2.055 34.516 5.938 50.826l169.281-45.083c1.34-0.185 2.889-0.291 4.463-0.291s3.122 0.106 4.64 0.311c0.258-0.039 0.768-0.050 1.28-0.050 18.959 0 34.328 15.369 34.328 34.328 0 5.511-1.299 10.719-3.607 15.334l-65.82 152.561c20.689 7.205 44.537 11.366 69.356 11.366 120.009 0 217.295-97.286 217.295-217.295 0-61.297-25.381-116.667-66.207-156.172z" />
<glyph unicode="&#xe906;" glyph-name="profile" horiz-adv-x="1194" d="M1193.923 59.797c3.273 98.204-274.376 179.148-426.146 217.239 108.422 60.666 180.703 174.461 181.528 305.209l0.001 26.601c0 193.772-157.084 350.856-350.856 350.856s-350.856-157.084-350.856-350.856v-26.485c0.185-130.31 71.319-243.963 176.837-304.42-148.566-38.997-427.406-119.941-424.43-217.55v-62.791c0-34.185 27.713-61.898 61.898-61.898h1071.316c34.021 0 61.601 27.58 61.601 61.601s-27.58 61.601-61.601 61.601c-34.021 0-61.601-27.58-61.601-61.601s27.58-61.601 61.601-61.601c34.021 0 61.601 27.58 61.601 61.601v62.493zM290.743 582.361v26.485c0 169.12 137.098 306.218 306.218 306.218s306.218-137.098 306.218-306.218v-26.485c0-169.12-137.098-306.218-306.218-306.218s-306.218 137.098-306.218 306.218zM1149.582-2.399c0-9.368-7.594-16.963-16.963-16.963 0 0 0 0 0 0h-1071.316c-9.532 0-17.26 7.728-17.26 17.26v63.386c-1.19 49.995 232.119 136.295 451.441 185.992 30.361-9.573 65.275-15.089 101.477-15.089s71.117 5.516 103.948 15.753c216.851-49.766 450.16-136.066 448.375-186.954v-63.089z" />
<glyph unicode="&#xe907;" glyph-name="search" horiz-adv-x="931" d="M924.055-26.594l-275.872 277.626c93.272 74.686 152.49 188.548 152.49 316.242 0 223.214-180.951 404.164-404.164 404.164s-404.164-180.951-404.164-404.164c0-223.214 180.951-404.164 404.164-404.164 79.889 0 154.364 23.179 217.067 63.178l281.255-283.858c3.113-1.801 6.849-2.864 10.833-2.864 12.105 0 21.918 9.813 21.918 21.918 0 4.433-1.316 8.558-3.578 12.007zM43.836 560.804c0.001 196.098 158.97 355.067 355.068 355.067s355.068-158.97 355.068-355.068c0-196.099-158.97-355.068-355.068-355.068-0.308 0-0.616 0-0.924 0.001-195.541 0.829-353.814 159.41-354.144 355.037z" />
<glyph unicode="&#xe908;" glyph-name="attention" horiz-adv-x="316" d="M268.678 65.637c0-60.117-13.77-129.637-123.256-129.637-0.855-0.021-1.863-0.033-2.873-0.033-69.556 0-125.943 56.387-125.943 125.943 0 4.032 0.189 8.020 0.56 11.955-0.038 62.636 55.041 110.327 128.256 110.327 3.388 0.363 7.319 0.57 11.299 0.57 61.952 0 112.173-50.222 112.173-112.173 0-2.446-0.078-4.873-0.232-7.28zM315.697 890.815c-47.355-615.609-53.736-627.364-56.087-631.058-6.381-10.747-47.355-13.77-90.007-13.77-50.041 0-100.754 4.030-103.441 4.030-19.326 1.505-34.614 16.909-35.929 36.151-6.724 96.509-27.546 524.043-30.233 634.537-0.013 0.373-0.020 0.811-0.020 1.251 0 10.684 4.376 20.346 11.434 27.291 6.941 6.701 16.397 10.827 26.816 10.827 0.847 0 1.688-0.027 2.521-0.081 57.316-3.017 187.625-20.145 241.025-27.534 19.311-2.693 34.014-19.098 34.014-38.938 0-0.953-0.034-1.897-0.101-2.833z" />
<glyph unicode="&#xe909;" glyph-name="check" horiz-adv-x="1207" d="M1195.748 812.153c-44.388 34.145-149.895 112.678-197.015 143.749-4.058 2.69-9.040 4.292-14.397 4.292-9.965 0-18.635-5.544-23.094-13.715-49.579-92.67-311.81-580.598-375.661-709.323v-2.049c-155.7 99.020-376.958 235.599-440.467 280.328-4.117 2.803-9.199 4.475-14.672 4.475-9.764 0-18.285-5.322-22.819-13.224-28.749-49.979-79.625-147.975-102.502-198.509-1.418-3.172-2.244-6.875-2.244-10.77 0-9.941 5.378-18.627 13.383-23.305 71.832-42.408 333.722-187.182 487.373-269.812l102.434-60.778c7.414-4.489 16.369-7.152 25.945-7.17 0.207-0.003 0.445-0.005 0.683-0.005 17.28 0 32.52 8.732 41.549 22.023l82.060 131.291c40.291 53.266 381.396 588.313 443.881 682.894 4.154 4.721 6.689 10.954 6.689 17.779 0 8.942-4.351 16.868-11.052 21.776z" />
<glyph unicode="&#xe90a;" glyph-name="e-book" horiz-adv-x="827" d="M760.387 958.55c-2.311 0.928-4.991 1.466-7.796 1.466-7.908 0-14.817-4.277-18.539-10.645-2.244-3.467-3.546-7.584-3.546-12.005 0-6.88 3.152-13.024 8.092-17.066 16.981-13.999 27.994-34.633 29.033-57.861l0.006-662.247s0-2.32 0-3.48c-1.593-22.38-12.509-41.931-28.846-54.981-5.242-4.137-8.478-10.306-8.478-17.23 0-12.012 9.738-21.75 21.75-21.75 0.071 0 0.143 0 0.214 0.001 1.035-0.2 2.239-0.314 3.469-0.314s2.434 0.114 3.6 0.333c41.592 14.304 71.064 53.126 71.22 98.853v658.615c-0.144 45.271-29.081 83.747-69.451 98.085zM280.143 56.641h-121.221c-0.001 0-0.001 0-0.002 0-9.988 0-18.105-8.015-18.268-17.965v-84.406c0.064-6.934 3.862-12.967 9.478-16.192 2.802-1.609 6.052-2.53 9.517-2.53s6.715 0.921 9.518 2.531l51.237 35.041 49.010-34.8c2.97-2.175 6.696-3.48 10.726-3.48 0.001 0 0.003 0 0.004 0 2.975 0.132 5.749 0.867 8.243 2.084 5.78 3.054 9.737 9.147 9.737 16.165 0 0.007 0 0.015 0 0.022v85.55c0 9.93-8.050 17.98-17.98 17.98zM593.346 957.1h-493.005c-55.417 0-100.341-44.924-100.341-100.341v-658.016c0-55.417 44.924-100.341 100.341-100.341h493.005c55.417 0 100.341 44.924 100.341 100.341 0 0 0 0 0 0v658.016c0 55.417-44.924 100.341-100.341 100.341 0 0 0 0 0 0zM519.105 647.087c0.028-0.372 0.044-0.805 0.044-1.243 0-9.013-6.852-16.425-15.631-17.311l-313.276-0.006c-8.985 0.751-15.993 8.229-15.993 17.343 0 0.428 0.015 0.853 0.046 1.273l-0.003 95.065c-0.027 0.364-0.043 0.789-0.043 1.217 0 9.114 7.008 16.592 15.929 17.339l313.266 0.004c8.852-0.892 15.705-8.305 15.705-17.317 0-0.437-0.016-0.871-0.048-1.3l0.003-95.064z" />
<glyph unicode="&#xe90b;" glyph-name="previous" horiz-adv-x="737" d="M638.579 938.645l-209.415-198.049-159.473-150.173c0 120.896-1.722 230.081-3.444 297.935-1.059 37.017-30.313 66.87-66.983 68.879-19.062 1.074-41.153 1.682-63.385 1.682s-44.323-0.608-66.256-1.808c-33.727-2.048-62.886-31.805-64.109-68.637-6.203-183.699-7.236-723.426-0.003-895.643 0.883-30.36 24.882-54.838 54.961-56.481 22.9-1.43 49.49-2.242 76.268-2.242s53.368 0.811 79.744 2.411c25.975 2.14 49.273 26.154 50.448 55.855 2.759 68.999 4.137 186.106 4.481 313.891l157.75-147.417 210.104-197.705c10.475-9.952 24.672-16.074 40.299-16.074 32.338 0 58.554 26.215 58.554 58.554 0 0.081 0 0.162 0 0.243v892.070c0.004 0.268 0.007 0.584 0.007 0.901 0 32.338-26.215 58.554-58.554 58.554-15.967 0-30.441-6.391-41.004-16.754z" />
<glyph unicode="&#xe90c;" glyph-name="grid-view" d="M343.664 636.566h125.378c10.069 0 18.232-8.163 18.232-18.232v-125.378c0-10.069-8.163-18.232-18.232-18.232h-125.378c-10.069 0-18.232 8.163-18.232 18.232v125.378c0 10.069 8.163 18.232 18.232 18.232zM554.958 636.566h125.378c10.069 0 18.232-8.163 18.232-18.232v-125.378c0-10.069-8.163-18.232-18.232-18.232h-125.378c-10.069 0-18.232 8.163-18.232 18.232v125.378c0 10.069 8.163 18.232 18.232 18.232zM343.664 421.276h125.378c10.069 0 18.232-8.163 18.232-18.232v-125.378c0-10.069-8.163-18.232-18.232-18.232h-125.378c-10.069 0-18.232 8.163-18.232 18.232v125.378c0 10.069 8.163 18.232 18.232 18.232zM554.958 421.276h125.378c10.069 0 18.232-8.163 18.232-18.232v-125.378c0-10.069-8.163-18.232-18.232-18.232h-125.378c-10.069 0-18.232 8.163-18.232 18.232v125.378c0 10.069 8.163 18.232 18.232 18.232zM512 960c-282.77 0-512-229.23-512-512s229.23-512 512-512c282.77 0 512 229.23 512 512-0.284 282.655-229.345 511.716-511.973 512zM512-39.024c-268.976 0-487.024 218.048-487.024 487.024s218.048 487.024 487.024 487.024c268.976 0 487.024-218.048 487.024-487.024-0.284-268.862-218.163-486.74-486.997-487.024z" />
<glyph unicode="&#xe90d;" glyph-name="heart" horiz-adv-x="1322" d="M1162.474 901.415v0c-156.227 111.845-344.055 55.745-467.972-108.294-7.867-10.124-20.046-16.576-33.731-16.576s-25.864 6.452-33.659 16.48c-123.634 164.135-312.172 220.59-468.044 108.39v0c-96.77-70.488-158.946-183.416-158.946-310.866 0-78.888 23.821-152.212 64.663-213.171 93.573-183.247 458.222-441.733 595.986-441.733s506.674 275.173 596.86 443.118c39.968 59.574 63.79 132.898 63.79 211.786 0 127.45-62.177 240.378-157.852 310.105z" />
<glyph unicode="&#xe90e;" glyph-name="reading-aloud" horiz-adv-x="1199" d="M599.438 960c-330.496 0-599.753-215.28-599.753-479.487 3.353-134.259 67.303-252.926 165.423-330.106 13.593-11.54 21.568-27.538 21.568-45.398 0-4.977-0.619-9.81-1.785-14.425l-28.954-123.017c-0.501-1.891-0.789-4.062-0.789-6.301 0-14.121 11.447-25.568 25.568-25.568 3.47 0 6.779 0.691 9.796 1.944l201.537 80.431c6.631 2.7 14.318 4.313 22.369 4.419 5.007-0.081 9.791-0.651 14.409-1.666 50.761-12.749 109.583-20.115 170.125-20.115 0.171 0 0.342 0 0.512 0 330.469 0 599.727 214.964 599.727 479.487s-269.258 479.803-599.753 479.803zM544.197 748.824c19.073 10.757 41.149 19.634 64.427 25.488 18.872 6.952 38.552 10.749 59.12 10.749 6.966 0 13.83-0.436 20.566-1.281 23.941-3.688 43.74-21.374 50.538-44.611 2.758-6.871 4.294-14.33 4.294-22.147 0-11.496-3.322-22.216-9.058-31.253 26.351-3.799 47.241-22.784 54.011-47.595 2.659-7.605 4.158-15.845 4.211-24.428 0-28.118-17.677-58.737-81.124-78.939-24.048-8.228-54.353-16.302-85.326-22.528l-6.847-0.831c-4.735 1.894-5.051 1.894-42.298 115.531-26.515 80.178-33.776 104.168-35.985 111.744-0.246 0.788-0.387 1.694-0.387 2.634 0 3.071 1.512 5.788 3.832 7.449zM642.999 255.132c-25.058-6.218-53.824-9.786-83.424-9.786-0.19 0-0.381 0-0.571 0-2.057-0.492-4.453-0.773-6.915-0.773s-4.858 0.282-7.157 0.815c-1.038 0.696-2.017 1.777-2.61 3.072-3.49 8.25-17.379 47.392-24.008 67.594-14.836 0-47.98 0-73.549 0h-18.308l-3.472-11.679c-5.643-22.253-11.908-40.972-19.362-59.077 0.601 2.284 0.081 1.763-0.505 1.326-7.454-0.632-16.11-0.983-24.849-0.983-26.476 0-52.198 3.231-76.793 9.319-0.291 0.905-1.945 3.5-1.945 6.481 0 1.144 0.243 2.231 0.681 3.212-0.020 1.528 25.548 83.915 51.748 166.618 20.4 69.388 40.7 125.557 63.807 180.251 20.439-7.634 48.845-5.679 77.708-5.679 12.179 0 24.277-0.348 36.285-1.035 12.542-4.343 116.079-337.996 117.657-341.468 0.048-0.326 0.075-0.702 0.075-1.084 0-3.123-1.815-5.823-4.447-7.102zM760.424 329.943c8.11-8.11 19.209-13.232 31.502-13.572 0.468-0.010 0.944-0.014 1.421-0.014 17.155 0 32.89 6.082 45.166 16.209 1.345 0.881 3.148 1.464 5.087 1.464s3.742-0.583 5.243-1.583c11.873-13.656 21.932-29.38 29.486-46.459 0.858-2.087 1.085-3.139 1.085-4.244 0-2.121-0.837-4.047-2.199-5.465-22.151-19.644-51.476-31.642-83.603-31.642-1.57 0-3.133 0.029-4.689 0.085l-3.247-0.007c-0.989-0.031-2.152-0.048-3.32-0.048-34.747 0-65.871 15.509-86.829 39.982-17.171 23.234-27.406 52.244-27.406 83.645 0 3.945 0.162 7.852 0.478 11.715 0.117 66.847 54.752 121.39 122.127 121.39 3.333 0 6.635-0.133 9.9-0.395 0.618 0.059 1.852 0.077 3.090 0.077 28.964 0 55.65-9.752 76.954-26.152 1.073-1.243 1.914-3.215 1.914-5.384 0-0.028 0-0.056 0-0.083-4.701-20.888-13.829-39.161-26.385-54.523-1.025-0.702-2.563-1.266-4.234-1.266s-3.209 0.564-4.436 1.512c-13.77 8.622-30.232 14.303-47.892 15.745-1.132 0.067-2.003 0.090-2.88 0.090-13.666 0-25.997-5.713-34.736-14.882-9.982-10.383-16.118-24.49-16.118-40.030 0-0.138 0-0.277 0.001-0.415-0.209-1.858-0.328-4.038-0.328-6.245 0-15.163 5.627-29.012 14.907-39.572zM644.577 683.482l-6.629-1.894-10.417 31.566 7.891 2.841s27.462 8.523 31.566-7.891c2.21-3.157 5.998-15.467-22.412-24.621zM684.666 593.519c-5.682 0-10.417-3.157-15.152-4.104-3.788 12.311-8.523 27.147-11.048 35.985l12.626 4.419c5.071 1.991 10.944 3.145 17.086 3.145 3.337 0 6.595-0.341 9.74-0.989 5.237-1.298 9.549-5.505 11.028-10.886 0.072-0.684 0.098-1.354 0.098-2.030 0-13.702-10.779-24.887-24.32-25.538zM503.162 400.651h-57.766c8.838 26.515 21.149 67.551 29.041 94.698 7.576-27.462 19.571-67.867 28.725-94.698z" />
<glyph unicode="&#xe90f;" glyph-name="camera" horiz-adv-x="1361" d="M680.544 589.482c-109.899 0-198.99-89.091-198.99-198.99s89.091-198.99 198.99-198.99c109.899 0 198.99 89.091 198.99 198.99s-89.091 198.99-198.99 198.99zM1164.089 842.596h-667.013c0.104 1.014 0.164 2.192 0.164 3.383s-0.059 2.369-0.176 3.529l0.012 26.12c0 46.597-37.774 84.372-84.372 84.372 0 0 0 0 0 0h-131.333c-0.355 0.005-0.774 0.008-1.194 0.008-46.597 0-84.372-37.774-84.372-84.372 0-0.003 0-0.006 0-0.009v-26.266c-0.104-1.014-0.164-2.192-0.164-3.383s0.059-2.369 0.176-3.529l-0.012 0.146c-109.899 0-198.99-89.091-198.99-198.99v-510.209c0-109.899 89.091-198.99 198.99-198.99h968.283c109.899 0 198.99 89.091 198.99 198.99v511.801c-0.902 109.212-89.644 197.398-198.983 197.398-0.002 0-0.004 0-0.007 0zM680.544 69.721c-175.838 0-318.383 142.545-318.383 318.383s142.545 318.383 318.383 318.383c175.838 0 318.383-142.545 318.383-318.383s-142.545-318.383-318.383-318.383zM1260.798 685.792c0-21.98-17.818-39.798-39.798-39.798h-114.22c-21.98 0-39.798 17.818-39.798 39.798v44.176c0 21.98 17.818 39.798 39.798 39.798h114.618c21.98 0 39.798-17.818 39.798-39.798v-44.176z" />
<glyph unicode="&#xe910;" glyph-name="close-b" horiz-adv-x="1019" d="M663.359 449.724c118.26 115.157 278.583 275.825 339.609 339.265 9.576 10.399 15.446 24.339 15.446 39.65s-5.871 29.251-15.484 39.691c-24.342 28.332-49.348 54.102-75.819 78.296-10.932 9.958-24.621 15.678-39.645 15.678s-28.713-5.72-39.006-15.102c-78.564-71.673-249.231-241.306-330.944-324.398-122.742 117.226-278.583 262.723-349.953 324.439-10.305 9.2-23.976 14.823-38.96 14.823s-28.655-5.623-39.018-14.873c-26.767-24.871-51.557-50.862-74.711-78.278-9.664-11.444-14.881-24.659-14.881-39.093 0-16.224 6.592-30.909 17.244-41.522 64.131-64.476 228.592-219.283 348.92-329.613-112.054-118.949-264.792-285.134-324.094-353.745-8.727-10.261-14.034-23.665-14.034-38.309 0-15.912 6.267-30.361 16.468-41.012 25.48-27.736 52.038-53.31 80.082-77.192 11.205-8.986 23.946-13.79 37.809-13.809 0.047 0 0.098 0 0.148 0 16.131 0 30.722 6.594 41.224 17.233 66.204 66.549 203.772 215.15 310.309 330.996 109.985-115.846 258.241-266.516 325.473-330.3 10.483-9.949 24.684-16.067 40.315-16.067 14.355 0 27.504 5.16 37.695 13.727 28.449 24.258 54.328 49.154 78.65 75.509 10.135 11.013 16.006 24.953 16.006 40.264s-5.871 29.251-15.484 39.691c-62.368 66.846-218.209 228.549-333.366 344.050z" />
<glyph unicode="&#xe911;" glyph-name="easy-reader" horiz-adv-x="1135" d="M443.289 636.456v0c-11.674 2.335-210.137 2.335-226.147-8.339s-215.14-651.758-216.474-658.095c-0.242-0.925-0.38-1.987-0.38-3.081 0-4.41 2.253-8.295 5.67-10.565 11.054-8.368 178.496-26.046 191.505-16.040l2.668 3.002c12.244 29.336 24.45 65.776 34.296 103.173l9.066 31.248h36.691c51.033 0 118.744 0 146.429 0 13.008-38.692 40.36-118.077 47.698-133.42 0.96-2.187 2.443-3.992 4.297-5.31 5.561-1.675 11.906-2.624 18.473-2.624 2.082 0 4.142 0.095 6.176 0.282 57.849 0.226 114.168 7.387 168.072 20.681-0.877 1.159 1.804 5.345 1.804 10.157 0 0.292-0.010 0.582-0.029 0.869-10.672 57.665-69.71 233.446-117.074 370.869-102.734 293.858-106.736 295.192-112.74 297.193zM337.22 433.991c15.343-54.035 41.694-142.76 60.706-200.13h-121.746c18.345 56.036 45.363 145.094 61.040 199.797zM624.407 428.321c71.086 14.395 130.181 30.176 187.89 49.024 147.328 47.372 157.001 132.427 137.322 194.801-13.804 50.462-56.747 87.896-109.193 93.348 11.882 17.627 19.318 39.504 19.318 63.119 0 15.022-3.009 29.342-8.458 42.389-12.848 45.225-51.625 79.41-99.195 85.599-12.181 1.545-25.578 2.391-39.172 2.391-40.048 0-78.382-7.337-113.732-20.739-131.214-42.294-133.216-53.301-133.549-59.305s140.758-444.289 155.768-450.293h3.002zM717.801 575.083c-8.339 26.017-18.345 58.705-23.349 75.716 8.005 3.002 16.344 6.671 27.018 10.007 30.020 9.673 66.71 14.009 78.051-18.679s-21.347-49.032-49.365-58.038c-12.341-4.003-22.681-7.005-32.688-9.006zM670.436 760.203l-15.343-3.336c-5.337 16.344-15.343 50.033-21.347 66.71 5.003 2.001 11.007 4.336 17.678 6.671s56.704 17.345 66.71-17.345c8.339-22.681-8.005-40.026-47.698-52.701zM1073.365 102.775c-2.375 1.471-5.255 2.343-8.339 2.343s-5.964-0.872-8.408-2.383c-25.246-20.273-57.609-32.753-92.867-33.314-26.214 0.193-49.772 10.866-66.831 28.013-18.972 21.505-30.551 49.918-30.551 81.034 0 4.001 0.191 7.957 0.566 11.86 0.255 31.067 12.924 59.616 33.342 80.582 17.987 17.541 42.636 28.377 69.815 28.377 1.128 0 2.252-0.019 3.371-0.056 35.754-2.49 68.576-13.835 96.725-31.843 1.18-0.898 3.666-1.73 6.346-1.73s5.166 0.832 7.213 2.251c23.36 29.193 40.754 64.279 49.649 102.623 0.343 1.817 0.344 1.895 0.344 1.974 0 3.436-1.404 6.544-3.67 8.781-40.043 31.094-91.017 49.847-146.37 49.847-2.954 0-5.895-0.053-8.822-0.159-3.875 0.278-8.899 0.429-13.959 0.429-65.719 0-125.471-25.546-169.868-67.249-43.901-43.225-71.276-103.38-71.582-169.931-3.669-156.827 83.054-256.558 227.148-260.227h7.005c2.242-0.074 4.879-0.116 7.525-0.116 62.851 0 120.163 23.716 163.475 62.686 1.85 2.006 3.124 4.981 3.124 8.253 0 1.769-0.372 3.451-1.042 4.972-13.956 35.519-31.937 66.261-53.885 93.69z" />
<glyph unicode="&#xe912;" glyph-name="list-view" d="M327.43 610.092h369.14c9.242 0 16.734-7.492 16.734-16.734v-33.717c0-9.242-7.492-16.734-16.734-16.734h-369.14c-9.242 0-16.734 7.492-16.734 16.734v33.717c0 9.242 7.492 16.734 16.734 16.734zM327.43 480.968h369.14c9.242 0 16.734-7.492 16.734-16.734v-33.717c0-9.242-7.492-16.734-16.734-16.734h-369.14c-9.242 0-16.734 7.492-16.734 16.734v33.717c0 9.242 7.492 16.734 16.734 16.734zM327.43 353.093h369.14c9.242 0 16.734-7.492 16.734-16.734v-33.717c0-9.242-7.492-16.734-16.734-16.734h-369.14c-9.242 0-16.734 7.492-16.734 16.734v33.717c0 9.242 7.492 16.734 16.734 16.734zM512 960c-282.77 0-512-229.23-512-512s229.23-512 512-512c282.77 0 512 229.23 512 512-0.284 282.655-229.345 511.716-511.973 512zM512-39.024c-268.976 0-487.024 218.048-487.024 487.024s218.048 487.024 487.024 487.024c268.976 0 487.024-218.048 487.024-487.024-0.284-268.862-218.163-486.74-486.997-487.024z" />
<glyph unicode="&#xe913;" glyph-name="lock" horiz-adv-x="777" d="M711.798 551.364h-28.629v131.39c-0.171 153.049-124.196 277.074-277.229 277.245h-34.069c-153.11-0.171-277.204-124.159-277.547-277.213v-131.423h-30.135c-35.601-0.667-64.206-29.685-64.206-65.383 0-0.534 0.006-1.066 0.019-1.596l-0.001-268.729c4.914-63.613 32.679-119.937 74.999-161.488 82.798-74.385 192.813-119.852 313.446-119.852s230.648 45.466 313.842 120.198c42.103 41.126 69.992 97.475 74.851 160.28l0.054 269.67c0.011 0.449 0.017 0.977 0.017 1.507 0 36.116-29.278 65.394-65.394 65.394-0.006 0-0.012 0-0.018 0zM424.306 290.091v-52.737c0 0 0 0 0 0 0-19.806-16.056-35.861-35.861-35.861s-35.861 16.056-35.861 35.861c0 0 0 0 0 0v53.038c-29.935 14.033-50.297 43.915-50.297 78.552 0 47.766 38.722 86.489 86.489 86.489s86.489-38.722 86.489-86.489c0-34.893-20.663-64.96-50.42-78.632zM546.957 551.364h-315.819v131.39c0.171 78.26 63.653 141.636 141.937 141.636 0 0 0 0 0 0h33.45c78.224 0 141.636-63.413 141.636-141.636v-131.39z" />
<glyph unicode="&#xe914;" glyph-name="audio-sound" horiz-adv-x="1389" d="M814.090 441.44c0 355.604-61.109 470.916-108.407 506.821-9.826 7.203-22.156 11.526-35.496 11.526-15.101 0-28.908-5.54-39.499-14.699l-320.312-266.81c-10.559-8.808-24.273-14.155-39.235-14.155-0.043 0-0.086 0-0.129 0h-209.212c-0.104 0.001-0.226 0.001-0.349 0.001-33.94 0-61.454-27.514-61.454-61.454 0-0.243 0.001-0.486 0.004-0.728v-303.434c0-33.94 27.514-61.454 61.454-61.454s61.454 27.514 61.454 61.454c0 33.94-27.514 61.454-61.454 61.454s-61.454-27.514-61.454-61.454c0-33.94 27.514-61.454 61.454-61.454h209.564c0.036 0 0.080 0 0.123 0 14.962 0 28.676-5.347 39.334-14.235l324.433-270.248c10.471-9.097 24.24-14.642 39.303-14.642 11.79 0 22.786 3.396 32.064 9.264 47.052 29.545 107.815 138.988 107.815 494.247zM981.189 156.612c-33.238 0.171-60.117 27.155-60.117 60.417 0 20.318 10.029 38.293 25.407 49.246 57.050 39.992 93.766 105.236 93.766 179.055 0 74.996-37.896 141.14-95.582 180.329-16.728 11.605-27.047 29.872-27.047 50.548 0 33.585 27.226 60.811 60.811 60.811 12.909 0 24.878-4.022 34.723-10.882 90.44-61.583 149.185-164.287 149.185-280.712 0-114.511-56.83-215.749-143.824-277.049-10.731-7.637-22.789-11.783-35.815-11.783-0.53 0-1.058 0.007-1.585 0.020zM1117.562-20.844c-33.238 0.171-60.117 27.155-60.117 60.417 0 20.318 10.029 38.293 25.407 49.246 112.827 79.392 185.522 208.843 185.522 355.272 0 148.931-75.2 280.298-189.701 358.201-17.473 12.084-27.792 30.351-27.792 51.027 0 33.585 27.226 60.811 60.811 60.811 12.909 0 24.878-4.022 34.723-10.882 148.587-100.398 245.115-268.448 245.115-459.043 0-187.364-93.283-352.941-235.939-452.822-11.439-8.101-23.497-12.247-36.523-12.247-0.53 0-1.058 0.007-1.585 0.020z" />
<glyph unicode="&#xe915;" glyph-name="audio-no-sound" horiz-adv-x="814" d="M815.126 441.44c0 355.604-61.109 470.916-108.407 506.821-9.826 7.203-22.156 11.526-35.496 11.526-15.101 0-28.908-5.54-39.499-14.699l-321.347-266.81c-10.559-8.808-24.273-14.155-39.235-14.155-0.043 0-0.086 0-0.129 0h-209.212c-33.94 0-61.454-27.514-61.454-61.454 0 0 0 0 0 0v-304.162c0-33.94 27.514-61.454 61.454-61.454s61.454 27.514 61.454 61.454c0 33.94-27.514 61.454-61.454 61.454s-61.454-27.514-61.454-61.454c0-33.94 27.514-61.454 61.454-61.454h209.219c0.036 0 0.080 0 0.123 0 14.962 0 28.676-5.347 39.334-14.235l324.433-270.248c10.471-9.097 24.24-14.642 39.303-14.642 11.79 0 22.786 3.396 32.064 9.264 47.052 29.545 108.851 138.988 108.851 494.247z" />
<glyph unicode="&#xe916;" glyph-name="audio-book" horiz-adv-x="926" d="M73.179 533.122c-41.142-3.892-73.088-38.221-73.179-80.030v-84.877c0.104-41.899 32.182-76.273 73.119-80.016 0.467-0.036 0.644-0.044 0.823-0.044 3.508 0 6.352 2.844 6.352 6.352 0 0.007 0 0.014 0 0.021v231.733c0.004 0.082 0.006 0.178 0.006 0.274 0 3.649-2.958 6.606-6.606 6.606-0.181 0-0.36-0.007-0.537-0.022zM852.74 528.040c-0.154 0.013-0.333 0.020-0.514 0.020-3.649 0-6.606-2.958-6.606-6.606 0-0.096 0.002-0.192 0.006-0.288v-231.72c0-0.006 0-0.013 0-0.020 0-3.508 2.844-6.352 6.352-6.352 0.179 0 0.356 0.007 0.531 0.022 41.774 3.131 74.52 37.735 74.681 80.022v85.138c-0.287 42.114-32.849 76.533-74.171 79.768zM809.29 336.199v295.258c0 181.169-154.489 328.29-344.298 328.29h-4.32c-189.808 0-344.298-147.375-344.298-328.29v-295.258c0-61.185 49.6-110.785 110.785-110.785s110.785 49.6 110.785 110.785v138.735c-0.256 59.967-48.008 108.698-107.567 110.527l-0.169 45.995c0 118.154 103.162 213.947 228.685 213.947h4.574c127.047 0 228.685-96.048 228.685-213.947v-46.245c-59.618-1.97-107.231-50.649-107.482-110.507v-138.506c0 0 0 0 0 0 0-62.027 50.283-112.31 112.31-112.31s112.31 50.283 112.31 112.31c0 0 0 0 0 0zM848.675 44.752c-22.606 16.079-48.913 28.866-77.216 36.912-19.44 5.756-34.596 12.057-48.95 19.668 8.894 5.606 17.188 11.636 25.889 17.075 18.832 10.13 33.598 23.433 44.615 39.508 2.169 3.869 3.296 7.98 3.319 12.352v20.843c0 14.033-11.376 25.409-25.409 25.409v0c-14.033 0-25.409-11.376-25.409-25.409v-11.942c-7.068-5.762-14.946-11.375-23.178-16.47-23.83-15.291-47.715-30.791-51.78-55.184-0.379-2.142-0.595-4.608-0.595-7.125 0-10.232 3.578-19.627 9.552-27.004 19.825-19.228 45.018-33.177 73.121-39.371 24.864-6.874 45.727-16.425 64.673-28.684l2.148-1.995c-8.675-6.952-18.41-13.361-28.722-18.825-8.706-4.971-13.799-13.187-13.799-22.593 0-14.082 11.415-25.497 25.497-25.497 4.676 0 9.058 1.259 12.826 3.456 34.436 19.246 56.034 36.016 58.32 59.901-0.401 18.767-10.117 35.181-24.697 44.847z" />
<glyph unicode="&#xe917;" glyph-name="audio-next" horiz-adv-x="737" d="M733.643 901.791c-0.883 30.36-24.882 54.838-54.961 56.481-22.9 1.43-49.49 2.241-76.268 2.241s-53.368-0.811-79.745-2.41c-25.975-2.14-49.273-26.154-50.448-55.855-2.759-68.999-4.137-186.106-4.481-313.891l-369.232 347.533c-10.434 9.762-24.498 15.757-39.962 15.757-32.338 0-58.554-26.215-58.554-58.554 0-0.333 0.003-0.665 0.008-0.996l-0.001-892.377c0-0.068 0-0.149 0-0.23 0-32.338 26.215-58.554 58.554-58.554 15.627 0 29.824 6.122 40.324 16.098l369.552 347.854c0-120.896 1.722-230.081 3.444-297.935 1.059-37.017 30.313-66.87 66.983-68.879 19.062-1.075 41.153-1.684 63.385-1.684s44.323 0.608 66.255 1.809c33.727 2.048 62.886 31.805 64.109 68.637 5.858 183.011 7.925 722.737 1.036 894.954z" />
<glyph unicode="&#xe918;" glyph-name="pause" horiz-adv-x="746" d="M265.558 901.791c5.855-172.217 4.822-711.943 0-895.526-1.226-36.948-30.385-66.705-66.969-68.877-19.076-1.076-41.167-1.685-63.399-1.685s-44.323 0.608-66.256 1.809c-33.8 1.883-63.054 31.736-64.11 68.652-4.135 190.573-6.202 706.534-0.002 893.905 1.178 29.813 24.476 53.827 53.874 56.13 22.954 1.437 49.543 2.248 76.322 2.248s53.368-0.811 79.744-2.411c25.632-1.73 48.89-24.988 50.787-54.072zM741.909 901.791c5.855-172.217 4.822-711.943 0-895.526-1.226-36.948-30.385-66.705-66.969-68.877-19.076-1.076-41.167-1.685-63.399-1.685s-44.323 0.608-66.256 1.809c-33.8 1.883-63.054 31.736-64.11 68.652-4.135 190.573-6.202 706.534-0.002 893.905 1.178 29.813 24.476 53.827 53.874 56.13 22.954 1.437 49.543 2.248 76.322 2.248s53.368-0.811 79.744-2.411c25.632-1.73 48.89-24.988 50.787-54.072z" />
<glyph unicode="&#xe919;" glyph-name="arrow-right" horiz-adv-x="645" d="M635.1 493.733c-1.905 3.265-4.069 6.085-6.54 8.603l-7.558 8.246-9.628 9.284-16.505 14.786c-118.63 117.942-337.666 330.101-425.349 408.5-10.33 9.199-24.022 14.82-39.028 14.82s-28.697-5.621-39.086-14.871c-27.081-24.792-52.124-50.489-75.646-77.545-9.895-11.309-15.337-24.716-15.337-39.395 0-15.922 6.403-30.348 16.775-40.844 60.169-61.888 218.342-215.247 343.849-334.565-114.504-118.63-269.582-282.993-328.725-349.7-9.55-10.371-15.405-24.274-15.405-39.543s5.855-29.172 15.442-39.584c25.059-24.804 51.628-48.321 79.463-70.306 11.883-9.446 24.582-14.241 38.401-14.241 0.014 0 0.029 0 0.043 0 16.064 0.022 30.626 6.447 41.271 16.859 88.016 85.953 302.925 314.273 406.77 427.401l30.603 34.385c4.747 5.496 8.686 11.863 11.525 18.797l0.166 0.459c2.599 6.961 4.104 15.005 4.104 23.4 0 12.933-3.57 25.032-9.779 35.366z" />
<glyph unicode="&#xe91a;" glyph-name="arrow-left" horiz-adv-x="645" d="M628.567 108.615c-60.518 61.894-218.692 215.597-343.855 334.571 113.816 117.942 269.238 282.305 328.725 349.7 9.55 10.371 15.405 24.274 15.405 39.543s-5.855 29.172-15.442 39.584c-25.431 26.269-52.121 50.89-80.148 73.945-11.73 9.544-24.736 14.527-38.906 14.527-16.338 0-31.128-6.625-41.832-17.334-87.683-85.62-302.936-313.94-406.781-427.412l-30.259-34.385c-4.747-5.496-8.686-11.863-11.525-18.797l-0.166-0.459c-2.715-7.103-4.287-15.318-4.287-23.901 0-13.292 3.771-25.704 10.302-36.223 1.821-3.108 4.099-6.043 6.707-8.647l6.534-7.222 10.316-9.972 16.505-16.505c118.286-117.598 337.322-330.101 425.692-408.5 10.57-10.004 24.876-16.155 40.619-16.155 15.207 0 29.074 5.74 39.553 15.171 27.098 24.786 52.142 50.484 75.653 77.55 9.704 11.254 15.023 24.522 15.023 39.033 0 16.447-6.832 31.297-17.813 41.869z" />
<glyph unicode="&#xe91b;" glyph-name="arrow-right-funny" horiz-adv-x="1244" d="M763.301 909.74c-25.899-94.937-43.185-205.066-48.107-318.402-141.492 11.528-520.691 40.949-636.739 49.939-0.978 0.076-2.118 0.12-3.268 0.12-22.479 0-41.069-16.653-44.105-38.295-8.608-59.485-29.448-203.319-29.448-267.064-0.025-0.562-0.039-1.221-0.039-1.883 0-12.077 4.678-23.062 12.322-31.241 7.852-8.055 18.843-13.068 31.005-13.068 0.44 0 0.878 0.007 1.315 0.020 113.124 2.859 524.195 22.473 670.889 31.462 4.552-121.832 21.573-237.433 49.865-348.531 0.786-15.774 23.713-36.654 51.518-36.654 3.014 0 5.97 0.245 8.85 0.717 127.992 16.711 416.886 431.051 416.886 528.711s-281.13 474.407-413.931 493.612c-2.966 0.541-6.38 0.851-9.865 0.851-29.239 0-53.391-21.78-57.117-50.001z" />
<glyph unicode="&#xe91c;" glyph-name="arrow-left-funny" horiz-adv-x="1244" d="M481.354 909.74c25.899-94.937 43.185-205.066 48.107-318.402 142.718 11.12 520.691 40.949 637.147 49.53 0.978 0.076 2.118 0.12 3.268 0.12 22.479 0 41.069-16.653 44.105-38.295 8.199-59.076 26.996-204.545 30.673-267.064 0.025-0.562 0.039-1.221 0.039-1.883 0-12.077-4.678-23.062-12.322-31.241-7.852-8.055-18.843-13.068-31.005-13.068-0.44 0-0.878 0.007-1.315 0.020-113.124 2.859-524.195 22.473-670.889 31.462-4.552-121.832-21.573-237.433-49.865-348.531-0.786-15.774-23.713-36.654-51.518-36.654-3.014 0-5.97 0.245-8.85 0.717-131.261 17.12-417.295 431.46-417.295 529.12s279.496 474.407 412.297 493.612c3.086 0.586 6.636 0.922 10.265 0.922 29.264 0 53.432-21.818 57.126-50.074z" />
<glyph unicode="&#xe91d;" glyph-name="play" horiz-adv-x="914" d="M863.848 360.645l-712.71-411.125c-14.427-8.435-31.764-13.415-50.264-13.415-55.675 0-100.815 45.104-100.875 100.765v822.256c0.451 55.368 45.44 100.079 100.872 100.079 18.501 0 35.84-4.981 50.747-13.675l712.23-410.174c30.36-17.767 50.429-50.218 50.429-87.355s-20.069-69.588-49.953-87.098z" />
<glyph unicode="&#xe91e;" glyph-name="search-b" horiz-adv-x="1039" d="M1026.557 109.543c-42.507 40.589-175.78 162.037-265.268 242.577 33.36 57.189 53.055 125.891 53.055 199.193 0 0.308 0 0.617-0.001 0.925 0 0.142 0.001 0.367 0.001 0.591 0 224.874-182.297 407.171-407.171 407.171s-407.171-182.297-407.171-407.171c0-224.874 182.296-407.171 407.171-407.171 77.743 0.17 150.261 22.396 211.669 60.75 41.774-52.76 109.529-132.66 215.637-256.665 7.187-8.235 17.702-13.408 29.425-13.408 8.925 0 17.15 2.999 23.721 8.043 31.867 23.582 106.654 81.43 137.975 109.555 7.733 6.989 12.571 17.056 12.571 28.252 0 10.736-4.448 20.432-11.602 27.348zM407.171 337.418c-118.968 0-215.411 96.443-215.411 215.411s96.443 215.411 215.411 215.411c118.968 0 215.411-96.443 215.411-215.411s-96.443-215.411-215.411-215.411z" />
<glyph unicode="&#xe91f;" glyph-name="fast-forward-right-b" horiz-adv-x="1173" d="M1169.351 901.791c-0.883 30.36-24.882 54.838-54.961 56.481-22.9 1.431-49.49 2.242-76.268 2.242s-53.368-0.812-79.744-2.412c-25.975-2.14-49.273-26.154-50.448-55.855-2.759-68.999-4.137-186.106-4.481-313.891l-159.128 149.828-211.138 196.671c-10.248 9.015-23.777 14.517-38.592 14.517-31.872 0-57.796-25.464-58.537-57.158l-0.001-275.616-337.545 318.256c-10.433 9.758-24.494 15.75-39.954 15.75-32.305 0-58.5-26.162-58.554-58.454v-892.432c0-0.068 0-0.149 0-0.23 0-32.338 26.215-58.554 58.554-58.554 15.627 0 29.824 6.122 40.324 16.098l337.175 318.233v-275.547c0.743-31.762 26.667-57.227 58.539-57.227 14.814 0 28.344 5.502 38.657 14.573l211.761 197.993 159.473 150.173c0-120.896 1.722-230.081 3.444-297.935 1.059-37.017 30.313-66.87 66.983-68.879 19.062-1.075 41.153-1.684 63.385-1.684s44.323 0.608 66.255 1.809c33.727 2.048 62.886 31.805 64.109 68.637 5.514 182.322 6.547 722.393 0.692 894.61z" />
<glyph unicode="&#xe920;" glyph-name="fast-forward-left-b" horiz-adv-x="1173" d="M1074.632 938.645l-337.545-318.256v275.547c0 0.068 0 0.149 0 0.23 0 32.338-26.215 58.554-58.554 58.554-15.627 0-29.824-6.122-40.324-16.098l-208.357-198.025-159.473-150.173c0 120.896-1.722 230.081-3.444 297.935-1.059 37.017-30.313 66.87-66.983 68.879-19.062 1.075-41.153 1.684-63.385 1.684s-44.323-0.608-66.255-1.809c-33.727-2.048-62.886-31.805-64.109-68.637-6.203-183.699-7.236-723.426-0.003-895.643 0.883-30.36 24.882-54.838 54.961-56.481 22.9-1.431 49.49-2.242 76.268-2.242s53.368 0.812 79.744 2.412c25.975 2.14 49.273 26.154 50.448 55.855 2.759 68.999 4.137 186.106 4.481 313.891l157.75-147.417 210.104-197.705c10.475-9.952 24.672-16.074 40.299-16.074 32.338 0 58.554 26.215 58.554 58.554 0 0.081 0 0.162 0 0.243v275.534l127.44-120.207 210.104-197.705c10.475-9.952 24.672-16.074 40.299-16.074 32.338 0 58.554 26.215 58.554 58.554 0 0.081 0 0.162 0 0.243v891.725c0.021 0.586 0.033 1.275 0.033 1.967 0 32.338-26.215 58.554-58.554 58.554-16.495 0-31.397-6.821-42.039-17.796z" />
<glyph unicode="&#xe921;" glyph-name="fast-forward-right" horiz-adv-x="1041" d="M1022.952 491.147l-480.382 452.083c-10.625 10.095-25.026 16.304-40.877 16.304-32.802 0-59.393-26.591-59.393-59.393 0-0.082 0-0.164 0-0.246v-279.482l-129.266 122.279-213.115 200.887c-10.582 9.897-24.845 15.975-40.527 15.975-32.768 0-59.338-26.537-59.393-59.292v-904.87c0-0.069 0-0.151 0-0.234 0-32.802 26.591-59.393 59.393-59.393 15.851 0 30.252 6.209 40.902 16.329l342.356 322.443v-279.495c0-0.069 0-0.151 0-0.234 0-32.802 26.591-59.393 59.393-59.393 15.851 0 30.252 6.209 40.902 16.329l213.089 200.514 266.918 252.244c11.562 10.863 18.764 26.251 18.764 43.322s-7.202 32.459-18.732 43.293z" />
<glyph unicode="&#xe922;" glyph-name="fast-forward-left" horiz-adv-x="1041" d="M941.549 943.58l-213.115-200.887-130.664-121.93v279.495c0 0.069 0 0.151 0 0.234 0 32.802-26.591 59.393-59.393 59.393-15.851 0-30.252-6.209-40.902-16.329l-211.692-200.863-266.918-251.546c-11.562-10.863-18.764-26.251-18.764-43.322s7.202-32.459 18.732-43.293l480.413-452.462c10.394-9.145 24.118-14.725 39.145-14.725 32.328 0 58.624 25.829 59.376 57.977l0.001 279.565 129.266-121.93 213.115-200.538c10.625-10.095 25.026-16.304 40.877-16.304 32.802 0 59.393 26.591 59.393 59.393 0 0.082 0 0.164 0 0.246v904.503c-0.586 32.35-26.948 58.35-59.384 58.35-15.188 0-29.044-5.701-39.546-15.079z" />
<glyph unicode="&#xe923;" glyph-name="Star" horiz-adv-x="978" d="M957.893 513.289c12.026 9.554 19.668 24.177 19.668 40.585 0 28.557-23.15 51.707-51.707 51.707-0.242 0-0.483-0.002-0.724-0.005h-231.664c-0.1-0.001-0.218-0.001-0.337-0.001-21.724 0-40.319 13.397-47.974 32.38l-107.793 288.664c-7.026 20.774-26.342 35.462-49.089 35.462s-42.064-14.689-48.982-35.098l-107.776-287.7c-7.779-19.33-26.374-32.726-48.097-32.726-0.004 0-0.007 0-0.011 0h-231.7c-0.204 0.003-0.445 0.005-0.687 0.005-28.557 0-51.707-23.15-51.707-51.707 0-16.408 7.643-31.031 19.562-40.504l196.463-151.276c13.053-9.504 21.44-24.734 21.44-41.923 0-5.238-0.779-10.295-2.227-15.059l-100.046-300.387c-1.936-5.212-3.057-11.232-3.057-17.514 0-28.557 23.15-51.707 51.707-51.707 11.49 0 22.104 3.748 30.688 10.087l244.977 179.567c8.421 6.19 18.994 9.906 30.435 9.906s22.015-3.716 30.579-10.007l244.975-179.566c8.298-5.921 18.647-9.467 29.823-9.467 28.557 0 51.707 23.15 51.707 51.707 0 5.483-0.853 10.766-2.434 15.724l-100.041 302.023c-1.695 4.897-2.674 10.54-2.674 16.412 0 16.564 7.789 31.31 19.904 40.773z" />
<glyph unicode="&#xe924;" glyph-name="logo" horiz-adv-x="4847" d="M1348.916 249.972h-125.264v-294.562h-213.761v947.645h394.175c230.862 0 315.853-91.062 315.853-268.911v-116.713c0-118.081-42.752-197.772-138.004-237.617l229.237-324.403h-253.093zM1506.843 614.22c0 71.14-27.019 99.613-113.806 99.613h-169.299v-278.83h169.299c91.062 0 113.806 32.748 113.806 103.888v75.415zM2037.483 230.049v-19.923c0-79.69 31.295-100.981 125.264-100.981 75.228 0.698 147.638 11.548 216.309 31.243l24.129-155.309c-77.538-27.323-166.956-43.423-260.039-44.118-225.113-0.002-310.532 111.154-310.532 282.162v161.689c0 149.376 66.864 277.462 297.384 277.462s280.283-136.807 280.283-287.38v-145.357h-372.799zM2217.042 413.627c0 48.395-14.194 88.24-85.504 88.24s-94.055-39.845-94.055-88.24v-29.841h179.559v29.841zM2488.433 221.499v160.748c0 142.279 66.864 280.283 313.031 280.283s313.031-138.004 313.031-280.283v-160.748c0-142.279-66.864-280.283-313.031-280.283s-313.031 138.004-313.031 280.283zM2909.627 215.856v172.12c0 65.411-34.202 102.605-108.163 102.605s-108.163-37.023-108.163-102.605v-172.206c0-65.496 34.202-102.605 108.163-102.605s108.248 37.194 108.248 102.605zM3228.302-44.591v976.118l205.21 28.473v-1004.591h-205.21zM3752.102 230.049v-19.923c0-79.69 31.295-100.981 125.264-100.981 75.226 0.692 147.637 11.543 216.307 31.242l24.217-155.309c-77.538-27.318-166.955-43.418-260.037-44.118-225.2-0.002-310.534 111.154-310.534 282.162v161.689c0 149.376 66.864 277.462 297.384 277.462s280.283-136.807 280.283-287.38v-145.357h-372.884zM3931.661 413.627c0 48.395-14.279 88.24-85.504 88.24s-94.055-39.845-94.055-88.24v-29.841h179.559v29.841zM4642.544-44.591v458.132c0 31.295-14.194 49.849-49.849 49.849-37.023 0-105.256-25.651-149.376-49.849v-458.132h-205.21v692.585h152.283l21.376-52.671c85.504 41.299 196.66 66.864 276.008 66.864 118.081 0 159.38-88.24 159.38-222.311v-485.237h-205.21zM481.817 912.032c-291.655 0-481.902-211.965-481.902-488.059 0-283.19 200.679-488.059 507.981-488.059 73.961 0 167.931 15.647 234.795 46.942l-37.023 109.531c-60.174-21.181-129.565-33.662-201.797-34.2-209.393-0.001-371.595 135.181-371.595 365.701 0 214.872 136.807 369.892 343.471 369.892 214.872 0 315.34-105.598 278.231-281.224 0 0-20.35-106.88-163.912-173.574v0c-20.436-9.491-20.35-9.32-51.303-22.231-38.375-14.683-82.744-24.050-129.038-25.966-43.596-0.028-42.911 23.486-38.038 51.275l3.933 22.488c22.488 5.814 34.202 8.55 92.003 26.421 130.138 40.102 185.886 89.010 185.886 174.172 0 76.954-61.649 124.238-152.625 124.238-143.818 0-196.66-68.403-217.181-181.013l-25.651-144.759c-17.614-99.784 7.781-174.258 133.985-174.258 0.242 0 0.528-0.001 0.814-0.001 48.306 0 95.044 6.712 139.333 19.255 332.179 86.686 358.344 308.142 359.199 313.614 31.637 203.158-129.197 389.814-409.566 389.814zM403.324 518.712c7.781 44.975 34.202 78.236 88.069 78.236 31.295 0 49.935-15.647 49.935-37.194 0-31.295-22.488-51.816-75.329-68.403-47.968-14.621-54.808-16.588-71.396-21.462z" />
<glyph unicode="&#xe925;" glyph-name="spinner" d="M384 832c0 70.692 57.308 128 128 128s128-57.308 128-128c0-70.692-57.308-128-128-128s-128 57.308-128 128zM655.53 719.53c0 70.692 57.308 128 128 128s128-57.308 128-128c0-70.692-57.308-128-128-128s-128 57.308-128 128zM832 448c0 35.346 28.654 64 64 64s64-28.654 64-64c0-35.346-28.654-64-64-64s-64 28.654-64 64zM719.53 176.47c0 35.346 28.654 64 64 64s64-28.654 64-64c0-35.346-28.654-64-64-64s-64 28.654-64 64zM448.002 64c0 0 0 0 0 0 0 35.346 28.654 64 64 64s64-28.654 64-64c0 0 0 0 0 0 0-35.346-28.654-64-64-64s-64 28.654-64 64zM176.472 176.47c0 0 0 0 0 0 0 35.346 28.654 64 64 64s64-28.654 64-64c0 0 0 0 0 0 0-35.346-28.654-64-64-64s-64 28.654-64 64zM144.472 719.53c0 0 0 0 0 0 0 53.019 42.981 96 96 96s96-42.981 96-96c0 0 0 0 0 0 0-53.019-42.981-96-96-96s-96 42.981-96 96zM56 448c0 39.765 32.235 72 72 72s72-32.235 72-72c0-39.765-32.235-72-72-72s-72 32.235-72 72z" />
<glyph unicode="&#xe926;" glyph-name="link" horiz-adv-x="1028" d="M213.072 586.497c-15.040 0-30.081-6.267-41.361-17.547l-70.188-77.709c-62.668-61.415-96.509-142.884-96.509-228.113s33.841-166.698 95.256-228.113 142.884-95.256 228.113-95.256 166.698 33.841 228.113 95.256l73.949 73.949c11.28 11.28 17.547 26.321 17.547 41.361s-6.267 30.081-17.547 41.361-26.321 17.547-41.361 17.547-30.081-6.267-41.361-17.547l-73.949-73.949c-38.854-38.854-90.242-60.162-146.644-60.162s-107.789 21.307-146.644 60.162-60.162 90.242-60.162 146.644c0 55.148 21.307 107.789 60.162 146.644l73.949 73.949c11.28 11.28 17.547 26.321 17.547 41.361s-6.267 30.081-17.547 41.361c-11.28 12.534-26.321 18.8-41.361 18.8zM773.327 416.039c-11.28-11.28-17.547-26.321-17.547-41.361s6.267-30.081 17.547-41.361c22.561-22.561 58.908-22.561 81.469 0l73.949 73.949c61.415 61.415 95.256 142.884 95.256 228.113s-33.841 166.698-95.256 228.113-141.63 95.256-228.113 95.256c-85.229 0-166.698-33.841-228.113-95.256l-73.949-73.949c-23.814-23.814-23.814-60.162 0-82.722 11.28-11.28 26.321-17.547 41.361-17.547s30.081 6.267 41.361 17.547l73.949 73.949c38.854 38.854 90.242 60.162 146.644 60.162s107.789-21.307 146.644-60.162 60.162-90.242 60.162-146.644c0-55.148-21.307-107.789-60.162-146.644l-75.202-71.442zM639.217 634.125c-15.040 0-30.081-6.267-41.361-17.547l-248.166-249.42c-23.814-23.814-23.814-60.162 0-82.722 22.561-22.561 58.908-22.561 81.469 0l249.42 249.42c11.28 11.28 17.547 26.321 17.547 41.361s-6.267 30.081-17.547 41.361c-11.28 10.027-25.067 16.294-41.361 17.547 1.253 0 1.253 0 0 0z" />
<glyph unicode="&#xe927;" glyph-name="flag-en" d="M58.127 752.188l312.019-252.085-319.247-17.468 6.325-118.664 312.621 18.071-276.179-284.311c13.854-27.106 32.527-49.995 55.416-68.367l337.016 358.4 29.214 0.904 19.576-397.854 88.245 4.518-20.179 396.649 10.24 2.108 340.329-274.071c13.304 24.599 22.584 53.337 26.099 83.83l0.103 1.102-249.976 195.765 243.351 12.649-6.024 117.158-265.035-13.854 239.134 257.807c-10.216 26.328-24.165 48.988-41.474 68.613l0.213-0.246-305.393-328.584-18.372 397.252-90.955-4.819 20.781-398.758-397.553 322.259c-21.934-21.46-39.179-47.617-50.12-76.851l-0.477-1.455zM46.381 709.421c-2.623-14.665-4.122-31.546-4.122-48.777 0-6.044 0.185-12.045 0.548-17.998l-0.040 0.818 6.024-119.567 215.040 9.939-217.449 175.586zM140.951 856.094l319.849-260.518-16.565 308.405-174.984-9.035c-47.749-1.654-91.827-16.014-129.36-39.779l1.059 0.626zM869.798 870.852c-39.914 29.949-90.283 47.959-144.858 47.959-6.362 0-12.667-0.245-18.906-0.725l0.828 0.051-90.353-4.819 13.854-300.273 239.435 257.807zM954.127 727.191l-156.009-164.141 166.551 8.433-6.024 119.868c-0.904 12.348-2.108 24.094-4.216 35.84zM981.233 256.452l-6.024 115.953-133.722-7.228 139.746-108.424zM931.238 86.588l-284.311 227.689 17.468-316.235 90.353 4.518c70.769 1.574 133.697 33.85 176.205 83.985l0.285 0.344zM184.32 6.174c37.647-19.576 82.522-29.214 132.819-26.504l177.092 9.035-14.758 298.165-1.205 32.226-293.948-312.922zM76.8 139.896l193.656 195.765-210.824-11.746 6.024-117.459c1.205-23.793 5.12-46.080 11.144-66.56zM248.772 934.099l474.353 24.998c4.067 0.226 8.827 0.355 13.617 0.355 139.358 0 253.219-109.169 260.726-246.653l0.029-0.667 24.998-474.955c0.216-3.977 0.34-8.632 0.34-13.316 0-139.353-109.161-253.21-246.637-260.725l-0.667-0.029-474.654-24.998c-3.977-0.216-8.632-0.34-13.316-0.34-139.353 0-253.21 109.161-260.725 246.637l-0.029 0.667-25.299 474.654c-0.226 4.063-0.354 8.817-0.354 13.601 0 139.464 109.335 253.392 246.967 260.743l0.654 0.028z" />
<glyph unicode="&#xe9cc;" glyph-name="flag" d="M0 960h128v-1024h-128v1024zM832 316.998c82.624 0 154.57 19.984 192 49.5v512c-37.43-29.518-109.376-49.502-192-49.502s-154.57 19.984-192 49.502v-512c37.43-29.516 109.376-49.5 192-49.5zM608 927.472c-46.906 19.94-115.52 32.528-192 32.528-96.396 0-180.334-19.984-224-49.502v-512c43.666 29.518 127.604 49.502 224 49.502 76.48 0 145.094-12.588 192-32.528v512z" />
</font>
</defs>
</svg>
