<?xml version="1.0" encoding="utf-8"?>
<!-- Generator: Adobe Illustrator 21.0.0, SVG Export Plug-In . SVG Version: 6.00 Build 0)  -->
<svg version="1.1"
	 id="Layer_1" xmlns:cc="http://creativecommons.org/ns#" xmlns:dc="http://purl.org/dc/elements/1.1/" xmlns:inkscape="http://www.inkscape.org/namespaces/inkscape" xmlns:rdf="http://www.w3.org/1999/02/22-rdf-syntax-ns#" xmlns:sodipodi="http://sodipodi.sourceforge.net/DTD/sodipodi-0.dtd" xmlns:svg="http://www.w3.org/2000/svg"
	 xmlns="http://www.w3.org/2000/svg" xmlns:xlink="http://www.w3.org/1999/xlink" x="0px" y="0px" viewBox="0 0 100 125"
	 style="enable-background:new 0 0 100 125;" xml:space="preserve">
<g transform="translate(0,-952.36218)">
	<g transform="matrix(-1,0,0,1,2214.8694,1180)">
		<path d="M2123-213.6c-1.8,0-3,1.6-3,3.1v65.7c0,1.6,1.2,3.2,3,3.2h12c1.8,0,3-1.6,3-3.2v-65.7c0-1.6-1.2-3.1-3-3.1H2123z
			 M2167-213.6c-1.8,0-3,1.6-3,3.1v65.7c0,1.6,1.2,3.2,3,3.2h12c1.8,0,3-1.6,3-3.2v-65.7c0-1.6-1.2-3.1-3-3.1H2167z M2124-209.6h10
			v10h-10V-209.6z M2168-209.6h10v10h-10V-209.6z M2145-205.6c-1.6,0-3,1.4-3,3v58c0,1.6,1.4,3,3,3h12c1.6,0,3-1.4,3-3v-58
			c0-1.6-1.4-3-3-3H2145z M2146-201.6h10v8h-10V-201.6z M2124-195.6h10v36h-10V-195.6z M2168-195.6h10v36h-10V-195.6z M2146-189.6
			h10v32h-10V-189.6z M2124-155.6h10v10h-10V-155.6z M2168-155.6h10v10h-10V-155.6z M2146-153.6h10v8h-10V-153.6z"/>
		<path d="M2184.4-198.6c-1.5,0.3-2.7,1.8-2.4,3.5l10,51.2c0.3,1.6,2,2.6,3.5,2.3l11.8-2.3c1.5-0.3,2.7-1.8,2.4-3.5l-10-51.2
			c-0.3-1.6-2-2.6-3.5-2.3L2184.4-198.6z M2186.2-194.9l9.8-1.9l1.5,7.9l-9.8,1.9L2186.2-194.9z M2188.5-183.1l9.8-1.9l5,25.5
			l-9.8,1.9L2188.5-183.1z M2194.2-153.7l9.8-1.9l1.5,7.9l-9.8,1.9L2194.2-153.7z"/>
	</g>
</g>
</svg>
