<svg xmlns="http://www.w3.org/2000/svg" width="258" height="37" fill="none">
  <g fill="#fff" clip-path="url(#a)">
    <path d="M103.669 20.652c-4.597 0-7.809 3.346-7.809 8.135 0 4.79 3.212 8.135 7.809 8.135 4.596 0 7.808-3.346 7.808-8.135 0-4.79-3.212-8.135-7.808-8.135Zm5.565 8.135c0 3.622-2.29 6.15-5.565 6.15-3.275 0-5.566-2.528-5.566-6.15 0-3.622 2.291-6.15 5.566-6.15 3.28 0 5.565 2.528 5.565 6.15ZM115.752 20.892h-2.127v15.79h9.578v-1.985h-7.451V20.892ZM127.036 27.792v-6.9h-2.122v15.79h2.122v-6.759l7.308 6.728.037.031h2.627v-.287l-8.287-7.587 8.298-7.603.037-.032v-.281h-2.533l-7.487 6.9ZM140.894 29.584h6.977v-1.933h-6.977v-4.779h8.151v-1.98h-10.273v15.79h10.584v-1.985h-8.462v-5.113ZM160.644 28.532c1.296-.62 1.943-1.772 1.922-3.424-.026-2.757-1.879-4.216-5.365-4.216h-5.602v15.79h5.628c3.923 0 5.913-1.516 5.913-4.502 0-1.86-.842-3.085-2.496-3.648Zm-6.923-.855v-4.805h3.433c2.243 0 3.243.688 3.243 2.236 0 1.631-1.122 2.569-3.075 2.569h-3.601Zm0 1.98h3.506c2.538 0 3.67.777 3.67 2.517 0 1.746-1.132 2.523-3.67 2.523h-3.506v-5.04ZM167.863 20.892h-2.122v15.79h2.122v-15.79ZM180.179 28.532c1.295-.62 1.942-1.772 1.921-3.424-.026-2.757-1.879-4.216-5.365-4.216h-5.602v15.79h5.628c3.923 0 5.913-1.516 5.913-4.502 0-1.86-.837-3.085-2.495-3.648Zm-6.924 6.165v-5.04h3.506c2.538 0 3.67.777 3.67 2.517 0 1.746-1.132 2.523-3.67 2.523h-3.506Zm0-11.825h3.433c2.243 0 3.238.688 3.238 2.236 0 1.631-1.122 2.569-3.075 2.569h-3.602v-4.805h.006ZM187.376 20.892h-2.127v15.79h9.578v-1.985h-7.451V20.892ZM198.66 20.892h-2.122v15.79h2.122v-15.79ZM208.974 20.652c-4.596 0-7.808 3.346-7.808 8.135 0 4.79 3.212 8.135 7.808 8.135 4.597 0 7.809-3.346 7.809-8.135 0-4.79-3.207-8.135-7.809-8.135Zm5.566 8.135c0 3.622-2.291 6.15-5.566 6.15s-5.565-2.528-5.565-6.15c0-3.622 2.29-6.15 5.565-6.15 3.275 0 5.566 2.528 5.566 6.15ZM217.263 22.872h5.823v13.81h2.122v-13.81h5.823v-1.98h-13.768v1.98ZM234.817 29.584h6.977v-1.933h-6.977v-4.779h8.151v-1.98h-10.273v15.79h10.584v-1.985h-8.462v-5.113ZM255.125 20.892l-7.482 6.9v-6.9h-2.127v15.79h2.127v-6.759l7.308 6.728.032.031h2.627v-.287l-8.288-7.587 8.299-7.603.036-.032v-.281h-2.532ZM84.956 36.682h2.122v-7.191h6.782v-1.955h-6.782v-4.664h7.719v-1.98h-9.84v15.79ZM98.124 8.156c0-5.03-2.849-7.802-8.024-7.802h-5.15v15.79h5.15c5.102 0 8.024-2.913 8.024-7.988ZM87.077 2.335h2.954c3.886 0 5.855 1.96 5.855 5.82 0 3.93-2.022 6.004-5.855 6.004h-2.954V2.335ZM110.919 14.159h-8.461V9.052h6.976V7.113h-6.976V2.34h8.151V.354h-10.273v15.79h10.583V14.16ZM118.043 16.145h2.122V2.335h5.823V.355H112.22v1.98h5.823v13.81ZM145.412 8.156c0-5.03-2.848-7.802-8.024-7.802h-5.15v15.79h5.15c5.097 0 8.024-2.913 8.024-7.988Zm-2.243 0c0 3.929-2.022 6.003-5.855 6.003h-2.954V2.335h2.954c3.886 0 5.855 1.96 5.855 5.82ZM150.066.354h-2.122v15.79h2.122V.355ZM166.747 16.145V8.114h-7.061v1.912h5.039c-.569 3.945-3.444 4.373-4.665 4.373-3.065 0-5.208-2.528-5.208-6.15 0-3.621 2.201-6.149 5.35-6.149 2.633 0 3.996 1.704 4.576 2.715l.063.104 1.869-1.24-.058-.094c-.958-1.584-2.854-3.476-6.45-3.476-4.47 0-7.593 3.346-7.593 8.135 0 4.862 2.917 8.135 7.256 8.135 2.053 0 3.812-.818 4.991-2.309v2.075h1.891ZM172.081.354h-2.122v15.79h2.122V.355ZM187.892.354h-13.774v1.98h5.824v13.81h2.127V2.335h5.823V.355ZM194.863.427l-.026-.073h-2.938l-6.066 15.634-.058.157h2.286l1.99-5.15h6.65l1.964 5.15h2.28L194.863.427Zm1.095 8.635h-5.181l2.591-6.753 2.59 6.753ZM212.128 14.159h-7.455V.354h-2.122v15.79h9.577V14.16ZM224.423 14.159h-8.461V9.052h6.976V7.113h-6.976V2.34h8.15V.354H213.84v15.79h10.583V14.16ZM28.954 35.723c0-.328.031-.646.073-.959H.311v1.923h28.643v-.964ZM29.933 32.18 3.402 21.304l-.743 1.772 26.532 10.876c.169-.631.416-1.225.742-1.772ZM31.77 30.132l-20.308-20.1-1.374 1.36 20.308 20.1c.395-.511.858-.97 1.374-1.36ZM34.256 28.938 23.268 2.678l-1.79.735 10.988 26.26a7.098 7.098 0 0 1 1.79-.735ZM36.046 28.704c.332 0 .653.03.97.073V.354h-1.944v28.423c.321-.042.643-.073.974-.073ZM39.626 29.673l10.989-26.26-1.79-.734-10.99 26.26a7.097 7.097 0 0 1 1.791.734ZM41.69 31.492 62 11.392l-1.374-1.36-20.309 20.1c.522.39.985.849 1.375 1.36ZM42.897 33.952l26.532-10.876-.743-1.772L42.154 32.18c.327.547.58 1.14.743 1.772ZM43.06 34.764c.042.313.073.636.073.96v.958h28.644V34.76H43.06v.005Z"/>
  </g>
  <defs>
    <clipPath id="a">
      <path fill="#fff" d="M0 0h258v37H0z"/>
    </clipPath>
  </defs>
</svg>
