<svg xmlns="http://www.w3.org/2000/svg" width="756.768" height="159.791" viewBox="101.616 199.971 756.768 159.791"><g fill="#B81B40"><path d="M312.267 310.77h-19.49v45.922h-33.373v-147.91h61.54c36.043 0 49.26 14.284 49.26 41.917v18.154c0 18.422-6.676 30.836-21.493 37.11l35.777 50.594h-39.514l-32.706-45.788zm24.563-56.868c0-11.08-4.272-15.485-17.754-15.485h-26.432v43.52h26.432c14.284 0 17.754-5.074 17.754-16.153v-11.882zM419.73 313.84v3.07c0 12.415 4.938 15.753 19.488 15.753 10.013 0 23.36-1.735 32.84-4.673l4.672 24.03c-9.745 3.603-25.497 6.94-40.715 6.94-35.108 0-48.458-17.354-48.458-44.053v-25.363c0-23.36 10.412-43.25 46.455-43.25s43.785 21.357 43.785 44.852v22.693H419.73zm28.032-28.7c0-7.61-2.27-13.75-13.35-13.75s-14.684 6.274-14.684 13.75v4.672h28.033v-4.672zM490.212 315.175v-25.097c0-22.16 10.413-43.785 48.858-43.785s48.858 21.493 48.858 43.785v25.097c0 22.16-10.413 43.786-48.858 43.786s-48.858-21.625-48.858-43.785zm65.68.934v-26.833c0-10.278-5.34-16.02-16.82-16.02s-16.82 5.74-16.82 16.02v26.832c0 10.278 5.34 16.02 16.82 16.02s16.82-5.875 16.82-16.02zM605.683 356.69V204.377l32.038-4.405v156.855h-32.037v-.134zM687.38 313.84v3.07c0 12.415 4.94 15.753 19.49 15.753 10.012 0 23.36-1.735 32.84-4.673l4.672 24.03c-9.745 3.603-25.497 6.94-40.716 6.94-35.108 0-48.457-17.354-48.457-44.053v-25.363c0-23.36 10.41-43.25 46.454-43.25s43.785 21.357 43.785 44.852v22.693h-58.07zm28.034-28.7c0-7.61-2.27-13.75-13.35-13.75s-14.685 6.274-14.685 13.75v4.672h28.033v-4.672zM826.48 356.69v-71.55c0-4.94-2.27-7.743-7.744-7.743-5.74 0-16.42 4.005-23.36 7.743v71.552h-32.038v-108.13h23.76l3.34 8.276c13.348-6.407 30.702-10.412 43.117-10.412 18.422 0 24.83 13.75 24.83 34.708v75.69H826.48v-.133zM176.906 207.313c-45.52 0-75.29 33.106-75.29 76.224 0 44.187 31.37 76.225 79.294 76.225 11.614 0 26.165-2.403 36.71-7.342l-5.74-17.087c-10.413 3.337-20.157 5.34-31.504 5.34-32.706 0-57.936-21.093-57.936-57.136 0-33.506 21.36-57.802 53.664-57.802 33.506 0 49.258 16.42 43.385 43.92 0 0-3.205 16.686-25.63 27.1-3.205 1.467-3.205 1.467-8.01 3.47-4.807 2.002-14.55 4.138-20.292 4.138-6.675 0-6.54-3.604-5.874-8.01l.667-3.47c3.472-.936 5.34-1.336 14.418-4.14 20.29-6.273 28.968-13.883 28.968-27.232 0-12.013-9.61-19.355-23.895-19.355-22.426 0-30.702 10.68-33.906 28.3l-4.005 22.56c-2.804 15.62 1.2 27.233 20.957 27.233 6.94 0 14.417-1.068 21.225-2.937 52.462-13.615 56.467-48.19 56.6-49.124 5.076-31.638-20.02-60.873-63.806-60.873zm-12.28 61.54c1.2-7.074 5.34-12.147 13.75-12.147 4.938 0 7.742 2.403 7.742 5.74 0 4.94-3.47 8.143-11.747 10.68-7.475 2.27-8.542 2.536-11.212 3.336l1.467-7.608z"/></g></svg>