<?xml version="1.0" encoding="utf-8"?>
<!-- Generator: Adobe Illustrator 21.0.0, SVG Export Plug-In . SVG Version: 6.00 Build 0)  -->
<svg version="1.1" id="Layer_1" xmlns="http://www.w3.org/2000/svg" xmlns:xlink="http://www.w3.org/1999/xlink" x="0px" y="0px"
	 viewBox="0 0 100 125" style="enable-background:new 0 0 100 125;" xml:space="preserve">
<g>
	<path d="M6.5,50.1c0,0.3,0.1,0.6,0.3,0.9C14.4,66.7,30.9,77.5,50,77.5c19.1,0,35.6-10.8,43.3-26.5c0.3-0.6,0.3-1.4,0-2.1
		C85.6,33.3,69.1,22.5,50,22.5c-19.1,0-35.6,10.8-43.2,26.4C6.6,49.3,6.5,49.7,6.5,50.1L6.5,50.1z M11.6,50
		C18.7,36.5,33.2,27.2,50,27.2c16.8,0,31.3,9.3,38.4,22.7C81.3,63.5,66.8,72.8,50,72.8C33.2,72.8,18.7,63.5,11.6,50L11.6,50z
		 M34.2,50c0,8.7,7.1,15.7,15.8,15.7c8.7,0,15.8-7,15.8-15.7c0-8.7-7.1-15.7-15.8-15.7C41.3,34.3,34.2,41.4,34.2,50L34.2,50z M39,50
		c0-6.1,4.9-11,11-11c6.1,0,11.1,4.9,11.1,11S56.1,61,50,61C43.9,61,39,56.1,39,50L39,50z"/>
</g>
</svg>
