<?xml version="1.0" encoding="utf-8"?>
<!-- Generator: Adobe Illustrator 21.0.0, SVG Export Plug-In . SVG Version: 6.00 Build 0)  -->
<svg version="1.1" id="Layer_1" xmlns="http://www.w3.org/2000/svg" xmlns:xlink="http://www.w3.org/1999/xlink" x="0px" y="0px"
	 viewBox="0 0 100 125" style="enable-background:new 0 0 100 125;" xml:space="preserve">
<title>Artboard 10</title>
<path d="M61.7,4.4H38.3C18.1,4.4,1.6,20.8,1.6,41.1c0,0,0,0,0,0l0,0C1.7,59.3,15,74.7,33,77.4c0.8,4.8,0.4,9.8-0.9,14.4
	c-0.5,1.6,0.4,3.2,2,3.7c0.7,0.2,1.5,0.1,2.2-0.2c6.1-3.1,14.7-8.7,19.3-17.5h6.1c20.2,0,36.7-16.4,36.7-36.7l0,0
	C98.3,20.8,81.9,4.4,61.7,4.4C61.7,4.4,61.7,4.4,61.7,4.4z M49.5,63.1c-2.1,0-3.8-1.7-3.8-3.8s1.7-3.8,3.8-3.8s3.8,1.7,3.8,3.8l0,0
	C53.4,61.4,51.7,63.1,49.5,63.1z M53.7,44.5c0,0-0.4,0.1-0.4,0.4v3c0,2.1-1.7,3.8-3.8,3.8c-2.1,0-3.8-1.7-3.8-3.8c0,0,0,0,0,0v-3
	c0-3.5,2.3-6.5,5.5-7.6c2.3-0.7,3.8-2.9,3.7-5.3c-0.1-2.9-2.6-5.3-5.5-5.3c-2.1,0-4,1.2-4.8,3.1c-1,1.9-3.3,2.6-5.1,1.6
	c-1.8-0.9-2.5-3.1-1.7-4.9c2.1-4.5,6.7-7.4,11.7-7.4h0.1c7,0,12.8,5.6,13.1,12.7C62.8,37.5,59.2,42.7,53.7,44.5L53.7,44.5z"/>
</svg>
