<?xml version="1.0" encoding="UTF-8" standalone="no"?>
<svg
   xmlns:dc="http://purl.org/dc/elements/1.1/"
   xmlns:cc="http://creativecommons.org/ns#"
   xmlns:rdf="http://www.w3.org/1999/02/22-rdf-syntax-ns#"
   xmlns:svg="http://www.w3.org/2000/svg"
   xmlns="http://www.w3.org/2000/svg"
   xmlns:sodipodi="http://sodipodi.sourceforge.net/DTD/sodipodi-0.dtd"
   xmlns:inkscape="http://www.inkscape.org/namespaces/inkscape"
   width="139.74347"
   height="152.44901"
   viewBox="101.616 199.971 139.74347 152.449"
   version="1.1"
   id="svg6"
   sodipodi:docname="icon.svg"
   inkscape:version="0.92.2 (5c3e80d, 2017-08-06)">
  <metadata
     id="metadata12">
    <rdf:RDF>
      <cc:Work
         rdf:about="">
        <dc:format>image/svg+xml</dc:format>
        <dc:type
           rdf:resource="http://purl.org/dc/dcmitype/StillImage" />
        <dc:title></dc:title>
      </cc:Work>
    </rdf:RDF>
  </metadata>
  <defs
     id="defs10" />
  <sodipodi:namedview
     pagecolor="#ffffff"
     bordercolor="#666666"
     borderopacity="1"
     objecttolerance="10"
     gridtolerance="10"
     guidetolerance="10"
     inkscape:pageopacity="0"
     inkscape:pageshadow="2"
     inkscape:window-width="1732"
     inkscape:window-height="1127"
     id="namedview8"
     showgrid="false"
     inkscape:zoom="1.1997403"
     inkscape:cx="382.55157"
     inkscape:cy="79.8955"
     inkscape:window-x="1360"
     inkscape:window-y="27"
     inkscape:window-maximized="0"
     inkscape:current-layer="g4"
     fit-margin-top="0"
     fit-margin-left="0"
     fit-margin-right="0"
     fit-margin-bottom="0" />
  <g
     id="g4"
     style="fill:#b81b40"
     transform="translate(0,-7.342)">
    <g
       id="g4531">
      <path
         sodipodi:nodetypes="cssccssscccscccssccscccccsscccc"
         inkscape:connector-curvature="0"
         id="path2"
         d="m 176.906,207.313 c -45.52,0 -75.29,33.106 -75.29,76.224 0,44.187 31.37,76.225 79.294,76.225 11.614,0 26.165,-2.403 36.71,-7.342 l -5.74,-17.087 c -10.413,3.337 -20.157,5.34 -31.504,5.34 -32.706,0 -57.936,-21.093 -57.936,-57.136 0,-33.506 21.36,-57.802 53.664,-57.802 33.506,0 49.258,16.42 43.385,43.92 0,0 -3.205,16.686 -25.63,27.1 -3.205,1.467 -3.205,1.467 -8.01,3.47 -4.807,2.002 -14.55,4.138 -20.292,4.138 -6.675,0 -6.54,-3.604 -5.874,-8.01 l 0.667,-3.47 c 3.472,-0.936 5.34,-1.336 14.418,-4.14 20.29,-6.273 28.968,-13.883 28.968,-27.232 0,-12.013 -9.61,-19.355 -23.895,-19.355 -22.426,0 -30.702,10.68 -33.906,28.3 l -4.005,22.56 c -2.804,15.62 1.2,27.233 20.957,27.233 6.94,0 14.417,-1.068 21.225,-2.937 52.462,-13.615 56.467,-48.19 56.6,-49.124 5.076,-31.638 -20.02,-60.873 -63.806,-60.873 z m -12.28,61.54 c 1.2,-7.074 5.34,-12.147 13.75,-12.147 4.938,0 7.742,2.403 7.742,5.74 0,4.94 -3.47,8.143 -11.747,10.68 -7.475,2.27 -8.542,2.536 -11.212,3.336 l 1.467,-7.608 z" />
    </g>
  </g>
</svg>
