<?xml version="1.0" encoding="utf-8"?>
<!-- Generator: Adobe Illustrator 21.0.0, SVG Export Plug-In . SVG Version: 6.00 Build 0)  -->
<svg version="1.1" id="Layer_1" xmlns="http://www.w3.org/2000/svg" xmlns:xlink="http://www.w3.org/1999/xlink" x="0px" y="0px"
	 viewBox="0 0 100 125" style="enable-background:new 0 0 100 125;" xml:space="preserve">
<path d="M42.1,65.8l-8.9,8.9c-2.7,2.7-7.2,2.7-9.9,0l-9.5-9.5c-2.7-2.7-2.7-7.2,0-9.9L33,36c2.7-2.7,7.2-2.7,9.9,0l9.5,9.5
	c1.9,1.9,2.5,4.8,1.6,7.3c-0.6,1.6,0.3,3.3,1.8,3.8c1.6,0.6,3.3-0.3,3.8-1.8c1.7-4.7,0.5-10-3-13.6l-9.5-9.5
	c-5.1-5.1-13.3-5.1-18.4,0L9.4,51c-5.1,5.1-5.1,13.3,0,18.4L19,79c2.5,2.5,5.9,3.8,9.2,3.8s6.7-1.3,9.2-3.8l8.9-8.9
	c1.2-1.2,1.2-3.1,0-4.2C45.1,64.6,43.2,64.6,42.1,65.8z M90.6,30.6L81,21C75.9,16,67.7,16,62.6,21L53.7,30c-1.2,1.2-1.2,3.1,0,4.2
	c1.2,1.2,3.1,1.2,4.2,0l8.9-8.9c2.7-2.7,7.2-2.7,9.9,0l9.5,9.5c2.7,2.7,2.7,7.2,0,9.9L67,64c-2.7,2.7-7.2,2.7-9.9,0l-9.5-9.5
	c-1.9-1.9-2.5-4.8-1.6-7.3c0.6-1.6-0.3-3.3-1.8-3.8c-1.6-0.6-3.3,0.3-3.8,1.8c-1.7,4.7-0.5,10,3,13.6l9.5,9.5
	c2.5,2.5,5.9,3.8,9.2,3.8s6.7-1.3,9.2-3.8L90.6,49C95.6,43.9,95.6,35.6,90.6,30.6z"/>
</svg>
