<?xml version="1.0" encoding="utf-8"?>
<!-- Generator: Adobe Illustrator 21.0.0, SVG Export Plug-In . SVG Version: 6.00 Build 0)  -->
<svg version="1.1" id="Layer_1" xmlns="http://www.w3.org/2000/svg" xmlns:xlink="http://www.w3.org/1999/xlink" x="0px" y="0px"
	 viewBox="0 0 123 82" style="enable-background:new 0 0 123 82;" xml:space="preserve">
<style type="text/css">
	.st0{fill:none;stroke:#000000;stroke-width:6;stroke-miterlimit:10;}
</style>
<path d="M88.2,66L72,49.9c5.2-6.8,6.8-16.5,2-26.2c-2-4.1-5.3-7.4-9.4-9.4c-21.9-10.6-43.5,11-32.9,32.9c2,4.1,5.3,7.4,9.4,9.4
	c9.8,4.8,19.5,3.1,26.3-2.1l16.3,16c0.3,0.3,0.7,0.3,0.9,0l3.5-3.5C88.4,66.7,88.4,66.3,88.2,66z M62,50.6
	c-16.4,8.6-32.9-7.9-24.3-24.3c1.3-2.6,3.5-4.7,6-6c16.4-8.6,32.8,7.9,24.3,24.3C66.7,47.1,64.6,49.2,62,50.6z"/>
<path class="st0" d="M81.3,63.6"/>
<path class="st0" d="M104.7,84"/>
</svg>
