<?xml version="1.0" encoding="UTF-8" standalone="no"?>
<svg
   xmlns:dc="http://purl.org/dc/elements/1.1/"
   xmlns:cc="http://creativecommons.org/ns#"
   xmlns:rdf="http://www.w3.org/1999/02/22-rdf-syntax-ns#"
   xmlns:svg="http://www.w3.org/2000/svg"
   xmlns="http://www.w3.org/2000/svg"
   xmlns:sodipodi="http://sodipodi.sourceforge.net/DTD/sodipodi-0.dtd"
   xmlns:inkscape="http://www.inkscape.org/namespaces/inkscape"
   id="Layer_1"
   data-name="Layer 1"
   viewBox="0 0 18.77 29.78"
   version="1.1"
   sodipodi:docname="arrow_left_white.svg"
   inkscape:version="0.92.3 (2405546, 2018-03-11)">
  <metadata
     id="metadata13">
    <rdf:RDF>
      <cc:Work
         rdf:about="">
        <dc:format>image/svg+xml</dc:format>
        <dc:type
           rdf:resource="http://purl.org/dc/dcmitype/StillImage" />
        <dc:title>Pil_1 (Venstre)</dc:title>
      </cc:Work>
    </rdf:RDF>
  </metadata>
  <sodipodi:namedview
     pagecolor="#ffffff"
     bordercolor="#666666"
     borderopacity="1"
     objecttolerance="10"
     gridtolerance="10"
     guidetolerance="10"
     inkscape:pageopacity="0"
     inkscape:pageshadow="2"
     inkscape:window-width="1743"
     inkscape:window-height="1022"
     id="namedview11"
     showgrid="false"
     inkscape:zoom="7.9247815"
     inkscape:cx="9.3850002"
     inkscape:cy="14.89"
     inkscape:window-x="1360"
     inkscape:window-y="27"
     inkscape:window-maximized="0"
     inkscape:current-layer="Layer_1" />
  <defs
     id="defs4">
    <style
       id="style2">.cls-1{fill:#323232;}</style>
  </defs>
  <title
     id="title6">Pil_1 (Venstre)</title>
  <path
     class="cls-1"
     d="M30.12,32.39c-1.76-1.8-6.36-6.27-10-9.73,3.31-3.43,7.83-8.21,9.56-10.17a1.7,1.7,0,0,0,0-2.3A27.77,27.77,0,0,0,27.3,8,1.72,1.72,0,0,0,25,8.12c-2.55,2.49-8.81,9.13-11.83,12.43l-0.88,1a2,2,0,0,0-.34.56h0a2,2,0,0,0,.17,1.74,1.26,1.26,0,0,0,.2.26l0.19,0.21,0.3,0.29,0.48,0.48c3.44,3.42,9.81,9.6,12.38,11.88A1.72,1.72,0,0,0,28,37a27.13,27.13,0,0,0,2.23-2.29A1.69,1.69,0,0,0,30.12,32.39Z"
     transform="translate(-11.84 -7.63)"
     id="path8"
     style="fill:#ffffff;fill-opacity:1" />
</svg>
