<svg id="Layer_1" data-name="Layer 1" xmlns="http://www.w3.org/2000/svg" viewBox="0 0 18.77 29.78"><defs><style>.cls-1{fill:#323232;}</style></defs><title>Pil_1 (Venstre)</title><path class="cls-1" d="M30.12,32.39c-1.76-1.8-6.36-6.27-10-9.73,3.31-3.43,7.83-8.21,9.56-10.17a1.7,1.7,0,0,0,0-2.3A27.77,27.77,0,0,0,27.3,8,1.72,1.72,0,0,0,25,8.12c-2.55,2.49-8.81,9.13-11.83,12.43l-0.88,1a2,2,0,0,0-.34.56h0a2,2,0,0,0,.17,1.74,1.26,1.26,0,0,0,.2.26l0.19,0.21,0.3,0.29,0.48,0.48c3.44,3.42,9.81,9.6,12.38,11.88A1.72,1.72,0,0,0,28,37a27.13,27.13,0,0,0,2.23-2.29A1.69,1.69,0,0,0,30.12,32.39Z" transform="translate(-11.84 -7.63)"/></svg>