<svg id="Layer_1" data-name="Layer 1" xmlns="http://www.w3.org/2000/svg" viewBox="0 0 38.99 35.54"><defs><style>.cls-1{fill:#323232;}</style></defs><title>Netlydbøger (2 pkt.)</title><path class="cls-1" d="M36.53,23.92v-4.6c0-9-6.55-15.83-15.23-15.83S6.07,10.3,6.07,19.32v4.6a4.36,4.36,0,0,0-4.27,4.21v4.08a4.39,4.39,0,0,0,4.52,4.23H6.52a4.51,4.51,0,0,0,8.6-1.93V25.83a4.52,4.52,0,0,0-7-3.75V19.32c0-7.88,5.69-13.83,13.23-13.83s13.23,5.94,13.23,13.83v2.76a4.52,4.52,0,0,0-7,3.75V34.5a4.52,4.52,0,0,0,8.6,1.92h0.1v0c2.24-.16,4.6-1.83,4.6-4.18V28.13A4.36,4.36,0,0,0,36.53,23.92ZM3.81,32.21V28.13a2.35,2.35,0,0,1,2.26-2.21v8.5A2.35,2.35,0,0,1,3.81,32.21Zm6.79-8.9a2.53,2.53,0,0,1,2.52,2.53V34.5a2.52,2.52,0,0,1-5,0V25.83A2.53,2.53,0,0,1,10.6,23.3ZM34.54,34.5a2.52,2.52,0,0,1-5,0V25.83a2.52,2.52,0,1,1,5,0V34.5Zm4.26-2.3c0,0.94-1,1.85-2.26,2.11v-8.4a2.35,2.35,0,0,1,2.26,2.21v4.08Z" transform="translate(-1.81 -3.49)"/></svg>