<svg id="Layer_1" data-name="Layer 1" xmlns="http://www.w3.org/2000/svg" viewBox="0 0 42.06 38.83"><defs><style>.cls-1{fill:#323232;}</style></defs><title>Ebøger (2 pkt.)</title><path class="cls-1" d="M41.41,10.23H36a0.87,0.87,0,0,0-.87.88V39.49a0.87,0.87,0,0,0,.88.88h5.41a0.87,0.87,0,0,0,.88-0.87V11.1A0.87,0.87,0,0,0,41.41,10.23ZM40.54,38.61H36.88V12h3.66V38.61Z" transform="translate(-0.23 -1.85)"/><path class="cls-1" d="M12.41,16L6.06,14.64a0.87,0.87,0,0,0-1,.68L0.25,38.19a0.87,0.87,0,0,0,.68,1l6.34,1.33,0.18,0a0.87,0.87,0,0,0,.86-0.7L13.08,17A0.87,0.87,0,0,0,12.41,16Zm-5.84.57,4.63,1-1.08,5.19-4.63-1ZM8.12,32.18l-4.63-1,1.63-7.79,4.63,1ZM6.77,38.66l-4.63-1,1-4.77,4.63,1Z" transform="translate(-0.23 -1.85)"/><path class="cls-1" d="M22.83,1.85H14.77a0.87,0.87,0,0,0-.87.88v37a0.87,0.87,0,0,0,.88.88h8.06a0.87,0.87,0,0,0,.88-0.87v-37A0.87,0.87,0,0,0,22.83,1.85ZM15.64,7.6H22v27H15.64V7.6ZM22,3.6V5.85H15.64V3.6H22ZM15.64,38.82V36.36H22v2.46H15.64Z" transform="translate(-0.23 -1.85)"/><path class="cls-1" d="M29.29,5.26l-4,.44a0.88,0.88,0,0,0-.78,1l3.58,33.23a0.88,0.88,0,0,0,.87.78H29l4-.44a0.88,0.88,0,0,0,.78-1L30.25,6A0.88,0.88,0,0,0,29.29,5.26ZM27.92,22.33l2.3-.25,0.16,1.52-2.3.25ZM28.6,7.09L30,20.34l-2.3.25L26.3,7.34ZM29.7,38.83L28.27,25.59l2.3-.25L32,38.59Z" transform="translate(-0.23 -1.85)"/></svg>