<?xml version="1.0" encoding="UTF-8" standalone="no"?>
<!-- Created with Inkscape (http://www.inkscape.org/) -->

<svg
   xmlns:dc="http://purl.org/dc/elements/1.1/"
   xmlns:cc="http://creativecommons.org/ns#"
   xmlns:rdf="http://www.w3.org/1999/02/22-rdf-syntax-ns#"
   xmlns:svg="http://www.w3.org/2000/svg"
   xmlns="http://www.w3.org/2000/svg"
   xmlns:sodipodi="http://sodipodi.sourceforge.net/DTD/sodipodi-0.dtd"
   xmlns:inkscape="http://www.inkscape.org/namespaces/inkscape"
   id="svg2"
   version="1.1"
   inkscape:version="0.91 r13725"
   xml:space="preserve"
   width="619.75"
   height="96.375"
   viewBox="0 0 619.75 96.375"
   sodipodi:docname="eReolenGo_hvid_u_bg_tagline.svg"><metadata
     id="metadata8"><rdf:RDF><cc:Work
         rdf:about=""><dc:format>image/svg+xml</dc:format><dc:type
           rdf:resource="http://purl.org/dc/dcmitype/StillImage" /><dc:title></dc:title></cc:Work></rdf:RDF></metadata><defs
     id="defs6"><clipPath
       clipPathUnits="userSpaceOnUse"
       id="clipPath44"><path
         d="m 3697.81,55.4844 -54.14,35.6562 c 60.52,-39.8554 130.34,-57.7695 182.56,-55.2539 1.94,0.0938 3.94,0.2305 5.94,0.4063 113.73,9.8554 321.6,147.504 299.69,349.18 -0.52,4.691 -1.2,9.121 -1.96,13.625 l 54.14,-35.657 c 0.76,-4.503 1.44,-8.933 1.96,-13.625 21.91,-201.675 -185.96,-339.3238 -299.69,-349.179281 -2,-0.175781 -4,-0.3125 -5.94,-0.40625 C 3828.15,-2.28516 3758.33,15.6289 3697.81,55.4844 Z"
         id="path46"
         inkscape:connector-curvature="0" /></clipPath></defs><sodipodi:namedview
     pagecolor="#ffffff"
     bordercolor="#666666"
     borderopacity="1"
     objecttolerance="10"
     gridtolerance="10"
     guidetolerance="10"
     inkscape:pageopacity="0"
     inkscape:pageshadow="2"
     inkscape:window-width="2495"
     inkscape:window-height="1416"
     id="namedview4"
     showgrid="false"
     inkscape:zoom="0.59217426"
     inkscape:cx="-368.13488"
     inkscape:cy="48.1875"
     inkscape:window-x="1985"
     inkscape:window-y="24"
     inkscape:window-maximized="1"
     inkscape:current-layer="svg2" /><g
     id="g10"
     inkscape:groupmode="layer"
     inkscape:label="ink_ext_XXXXXX"
     transform="matrix(1.25,0,0,-1.25,0,96.375)"><g
       id="g12"
       transform="scale(0.1,0.1)"><path
         d="m 1002.96,489.68 c 0,47.34 -17.987,66.285 -75.749,66.285 l -112.699,0 0,-185.629 112.699,0 c 60.598,0 75.749,21.797 75.749,69.137 l 0,50.207 z m -105.097,-242.43 -83.351,0 0,-196.0703 -142.067,0 0,630.7583 262.336,0 c 153.429,0 210.229,-60.629 210.229,-179 l 0,-77.696 c 0,-78.566 -28.39,-131.613 -91.86,-158.109 l 152.47,-215.9533 -168.56,0 L 897.863,247.25"
         style="fill:#ffffff;fill-opacity:1;fill-rule:nonzero;stroke:none"
         id="path14"
         inkscape:connector-curvature="0" /><path
         d="m 1475.49,356.141 c 0,32.199 -9.45,58.714 -56.8,58.714 -47.36,0 -62.56,-26.515 -62.56,-58.714 l 0,-19.887 119.36,0 0,19.887 z m -119.36,-122.149 0,-13.258 c 0,-53.043 20.84,-67.273 83.36,-67.273 42.59,0 99.45,7.566 140.16,19.918 l 19.88,-102.2774 c -41.65,-15.1719 -108.89,-29.3828 -173.31,-29.3828 -149.63,0 -206.44,73.8832 -206.44,187.5232 l 0,107.949 c 0,99.446 44.51,184.676 197.9,184.676 153.46,0 186.6,-90.918 186.6,-191.285 l 0,-96.59 -248.15,0"
         style="fill:#ffffff;fill-opacity:1;fill-rule:nonzero;stroke:none"
         id="path16"
         inkscape:connector-curvature="0" /><path
         d="m 1936.65,224.5 0,114.613 c 0,43.547 -22.73,68.18 -71.95,68.18 -49.3,0 -71.99,-24.633 -71.99,-68.18 l 0,-114.613 c 0,-43.562 22.69,-68.195 71.99,-68.195 49.22,0 71.95,24.633 71.95,68.195 m -280.35,3.777 0,107.008 c 0,94.731 44.53,186.57 208.4,186.57 163.81,0 208.32,-91.839 208.32,-186.57 l 0,-107.008 c 0,-94.695 -44.51,-186.57 -208.32,-186.57 -163.87,0 -208.4,91.875 -208.4,186.57"
         style="fill:#ffffff;fill-opacity:1;fill-rule:nonzero;stroke:none"
         id="path18"
         inkscape:connector-curvature="0" /><path
         d="m 2285.11,719.824 -136.38,-18.945 0,-649.6876 136.38,0 0,668.6326"
         style="fill:#ffffff;fill-opacity:1;fill-rule:nonzero;stroke:none"
         id="path20"
         inkscape:connector-curvature="0" /><path
         d="m 2616.56,356.141 c 0,32.199 -9.46,58.714 -56.85,58.714 -47.36,0 -62.51,-26.515 -62.51,-58.714 l 0,-19.887 119.36,0 0,19.887 z m -119.36,-122.149 0,-13.258 c 0,-53.043 20.84,-67.273 83.35,-67.273 42.61,0 99.46,7.566 140.13,19.918 L 2740.6,71.1016 c -41.65,-15.1719 -108.92,-29.3828 -173.31,-29.3828 -149.63,0 -206.45,73.8832 -206.45,187.5232 l 0,107.949 c 0,99.446 44.52,184.676 197.91,184.676 153.46,0 186.57,-90.918 186.57,-191.285 l 0,-96.59 -248.12,0"
         style="fill:#ffffff;fill-opacity:1;fill-rule:nonzero;stroke:none"
         id="path22"
         inkscape:connector-curvature="0" /><path
         d="m 3090.02,51.1914 0,304.9566 c 0,20.844 -9.45,33.161 -33.18,33.161 -24.63,0 -70.06,-17.067 -99.41,-33.161 l 0,-304.9566 -136.39,0 0,461.2036 101.32,0 14.25,-35.04 c 56.82,27.454 130.7,44.504 183.71,44.504 78.61,0 106.06,-58.699 106.06,-147.722 l 0,-322.9456 -136.36,0"
         style="fill:#ffffff;fill-opacity:1;fill-rule:nonzero;stroke:none"
         id="path24"
         inkscape:connector-curvature="0" /><path
         d="m 268.484,425.938 c 5.196,29.945 22.789,52.05 58.579,52.05 20.843,0 33.226,-10.402 33.226,-24.718 0,-20.84 -14.98,-34.473 -50.137,-45.629 -31.894,-9.739 -36.472,-11.02 -47.527,-14.266 l 5.859,32.563 z m 52.258,261.976 C 126.621,687.914 0,546.82 0,363.086 0,174.641 133.559,38.2617 338.102,38.2617 c 49.25,0 111.742,10.4024 156.296,31.2617 l -24.652,72.9146 c -44.504,-14.215 -86.187,-22.739 -134.465,-22.739 -139.215,0 -247.199,89.961 -247.199,243.387 0,142.973 91.313,246.227 228.629,246.227 143.039,0 209.937,-70.266 185.219,-187.184 0,0 -13.563,-71.121 -109.094,-115.555 l -0.035,0.071 c -13.598,-6.325 -13.531,-6.204 -33.895,-14.797 -20.363,-8.59 -61.789,-17.664 -86.511,-17.664 -28.665,0 -28.032,15.648 -24.754,33.879 l 2.597,14.996 c 15,3.894 22.789,5.843 61.227,17.582 86.562,26.699 123.719,59.261 123.719,115.91 0,51.422 -41.032,82.648 -101.594,82.648 -95.719,0 -130.875,-45.543 -144.527,-120.402 L 172.098,322.41 c -11.7,-66.422 5.211,-115.98 89.226,-115.98 29.828,0 61.571,4.562 90.426,12.711 223.484,58.304 240.895,205.668 241.477,209.308 21.128,135.18 -85.914,259.465 -272.485,259.465"
         style="fill:#ffffff;fill-opacity:1;fill-rule:nonzero;stroke:none"
         id="path26"
         inkscape:connector-curvature="0" /><path
         d="m 4701.29,478.117 c 0,0 0,-0.015 0,-0.019 0.16,2.601 0.39,5.183 0.49,7.808 l 0,-0.011 c -0.1,-2.618 -0.33,-5.184 -0.49,-7.778 z m -2.33,-22.722 c 0,-0.008 0,-0.016 0,-0.016 0.48,3.34 0.95,6.691 1.32,10.078 0,0 0,-0.008 0,-0.012 -0.37,-3.379 -0.84,-6.718 -1.32,-10.05 z m -3.25,-18.266 c 0,-0.016 -0.01,-0.031 -0.01,-0.043 0.75,3.519 1.49,7.043 2.11,10.613 l 0,-0.015 c -0.62,-3.551 -1.36,-7.051 -2.1,-10.555 z m -4.82,-19.508 c -0.01,-0.035 -0.02,-0.07 -0.03,-0.109 1.18,4.117 2.32,8.25 3.32,12.441 l 0,-0.004 c -0.99,-4.156 -2.13,-8.25 -3.29,-12.328 z m -6.85,-21.258 c 0,-0.004 0,-0.008 -0.01,-0.011 2.02,5.457 3.87,10.992 5.57,16.593 l 0,-0.004 c -1.7,-5.597 -3.55,-11.128 -5.56,-16.578 z m -6.62,-16.429 -0.01,-0.012 c 1.73,3.965 3.31,8 4.87,12.047 -0.01,-0.043 -0.03,-0.086 -0.05,-0.125 -1.54,-4 -3.1,-7.992 -4.81,-11.91 z m -7.46,-15.883 -0.01,0 c 1.63,3.23 3.14,6.527 4.66,9.82 -0.01,-0.012 -0.01,-0.019 -0.02,-0.031 -1.51,-3.281 -3.01,-6.567 -4.63,-9.789 z m -8.73,-16.231 c 0,-0.007 -0.01,-0.011 -0.01,-0.011 1.36,2.355 2.61,4.781 3.9,7.175 0,-0.007 0,-0.011 -0.01,-0.019 -1.29,-2.383 -2.53,-4.797 -3.88,-7.145 z m -9.52,-15.613 -0.01,-0.008 c 1.41,2.184 2.73,4.438 4.1,6.66 -0.03,-0.039 -0.05,-0.074 -0.07,-0.113 -1.34,-2.18 -2.64,-4.394 -4.02,-6.539 z m -14.97,-21.266 c 0.97,1.278 1.96,2.528 2.91,3.821 -0.95,-1.282 -1.94,-2.532 -2.9,-3.809 0,-0.004 -0.01,-0.008 -0.01,-0.012 z m -13.28,-16.648 c -0.01,-0.004 -0.01,-0.008 -0.01,-0.008 1.26,1.488 2.52,2.973 3.76,4.481 -0.01,-0.004 -0.01,-0.008 -0.01,-0.008 -1.23,-1.508 -2.49,-2.985 -3.74,-4.465 z m -41.75,-42.828 0,-0.008 c 0.86,0.77 1.7,1.586 2.56,2.363 0,0 0,-0.007 -0.01,-0.011 -0.85,-0.774 -1.69,-1.582 -2.55,-2.344 z m -12.99,-11.106 c 0,-0.004 -0.01,-0.004 -0.01,-0.004 2.55,2.09 5.05,4.262 7.57,6.422 0,0 -0.01,-0.004 -0.01,-0.007 -2.51,-2.157 -5.01,-4.321 -7.55,-6.411 z m -13.28,-10.507 c -0.01,-0.004 -0.02,-0.008 -0.02,-0.016 2.51,1.918 5,3.898 7.49,5.879 l -0.01,-0.004 c -2.48,-1.973 -4.96,-3.949 -7.46,-5.859 z m -13.54,-9.911 c 0,-0.003 0,-0.007 0,-0.007 2.52,1.777 5.02,3.621 7.53,5.464 -0.02,-0.015 -0.04,-0.027 -0.06,-0.039 -2.48,-1.828 -4.96,-3.652 -7.47,-5.418 z m -13.7,-9.289 c 0,-0.004 -0.01,-0.011 -0.02,-0.015 2.53,1.648 5.05,3.351 7.56,5.066 -0.01,-0.008 -0.02,-0.015 -0.03,-0.023 -2.5,-1.7 -5,-3.391 -7.51,-5.028 z m -13.82,-8.66 c 0,-0.004 0,-0.008 0,-0.008 2.52,1.524 5.05,3.094 7.57,4.684 -0.01,-0.008 -0.02,-0.016 -0.03,-0.02 -2.51,-1.578 -5.02,-3.14 -7.54,-4.656 z m -13.85,-8.004 c -0.01,-0.008 -0.01,-0.008 -0.01,-0.008 2.51,1.391 5.02,2.825 7.54,4.286 l -0.01,-0.008 c -2.51,-1.453 -5.01,-2.883 -7.52,-4.27 z m -13.87,-7.367 c -0.01,0 -0.02,-0.004 -0.02,-0.008 2.51,1.274 5.02,2.578 7.54,3.922 -0.01,-0.008 -0.02,-0.008 -0.03,-0.012 -2.5,-1.335 -5,-2.632 -7.49,-3.902 z m -13.83,-6.699 c -0.01,-0.004 -0.01,-0.008 -0.02,-0.012 2.5,1.156 5,2.336 7.52,3.559 0,0 -0.01,-0.004 -0.02,-0.008 -2.5,-1.215 -4.99,-2.391 -7.48,-3.539 z m -27.27,-11.367 c -0.01,-0.004 -0.02,-0.008 -0.03,-0.008 2.49,0.918 4.97,1.844 7.48,2.84 0,0 -0.01,-0.004 -0.02,-0.004 -2.49,-0.988 -4.96,-1.91 -7.43,-2.828 z m -13.31,-4.633 c -0.01,-0.004 -0.02,-0.004 -0.03,-0.008 2.46,0.797 4.91,1.594 7.4,2.465 0,0 -0.01,-0.004 -0.02,-0.008 -2.47,-0.867 -4.91,-1.656 -7.35,-2.449 z m -12.3,-3.707 c 2.18,0.609 4.35,1.191 6.55,1.863 l -0.01,-0.004 c -2.2,-0.668 -4.37,-1.261 -6.54,-1.859 z m -24.43,-5.602 c 1.94,0.34 3.84,0.633 5.81,1.032 l -0.01,0 c -1.97,-0.399 -3.88,-0.711 -5.8,-1.032 z m -17.61,-2.437 c -2.16,-0.188 -4.3,-0.336 -6.4,-0.438 2.1,0.102 4.24,0.25 6.4,0.438 3.73,0.32 7.55,0.781 11.45,1.355 l 0,0 c -3.9,-0.574 -7.73,-1.035 -11.45,-1.355 z m -40.87,0.5 c 1.2,-0.113 2.37,-0.176 3.56,-0.274 -1.19,0.098 -2.36,0.161 -3.56,0.274 z m -19.35,2.5 c 1.17,-0.188 2.36,-0.41 3.52,-0.582 -1.16,0.172 -2.35,0.394 -3.52,0.582 z m 35.08,-3.473 c 1.41,-0.051 2.82,-0.101 4.21,-0.125 -1.39,0.024 -2.8,0.074 -4.21,0.125 z m -129.01,32.516 c 0.84,-0.387 1.67,-0.805 2.5,-1.184 -0.31,0.145 -0.63,0.258 -0.94,0.403 -0.53,0.238 -1.04,0.539 -1.56,0.781 z m -23.74,11.933 c -0.18,0.098 -0.35,0.207 -0.52,0.301 0.17,-0.094 0.34,-0.203 0.52,-0.301 z M 3712.45,56.2266 c 1.01,-0.3789 2.03,-0.7813 3.04,-1.1524 -0.41,0.1524 -0.82,0.2539 -1.23,0.4063 -0.6,0.2226 -1.21,0.5195 -1.81,0.7461 z m -45.59,20.9375 c -0.14,0.082 -0.29,0.1718 -0.44,0.2539 0.15,-0.0821 0.3,-0.1719 0.44,-0.2539 z m -25.31,229.4769 c -0.53,4.562 -0.95,9.191 -1.13,13.964 0.18,-4.773 0.6,-9.402 1.13,-13.964 z m -0.3,39.461 c -0.27,-2.664 -0.48,-5.368 -0.63,-8.122 -0.07,-1.359 -0.15,-2.718 -0.2,-4.101 -0.1,-3.156 -0.1,-6.375 -0.04,-9.645 0,-0.011 0,-0.027 0,-0.039 -0.15,7.61 0.16,14.907 0.87,21.907 z m 49.93,97.988 0,0 c -2.59,-2.336 -5.13,-4.766 -7.6,-7.285 -0.53,-0.547 -1.05,-1.117 -1.58,-1.672 -2.06,-2.164 -4.07,-4.399 -6.02,-6.699 -0.01,-0.004 -0.01,-0.008 -0.01,-0.012 4.78,5.621 9.86,10.851 15.21,15.668 z m 105.47,49.941 c -3.52,-0.593 -7.26,-1.343 -11.17,-2.246 -0.18,-0.043 -0.37,-0.094 -0.56,-0.137 -3.75,-0.875 -7.64,-1.894 -11.66,-3.07 -0.32,-0.098 -0.66,-0.203 -0.99,-0.301 -3.91,-1.164 -7.92,-2.468 -12,-3.929 13.27,4.75 25.8,7.894 36.38,9.683 z m -49.92,-15.019 c -0.5,-0.211 -1,-0.434 -1.5,-0.653 -4.08,-1.793 -8.19,-3.738 -12.3,-5.843 8.76,4.492 17.53,8.254 26.02,11.347 -4.02,-1.465 -8.1,-3.078 -12.22,-4.851 z m -27.62,-14.242 c -0.52,-0.317 -1.04,-0.629 -1.55,-0.95 -4.07,-2.531 -8.09,-5.246 -12.03,-8.129 -0.47,-0.339 -0.94,-0.671 -1.4,-1.015 -4,-2.977 -7.9,-6.141 -11.7,-9.496 l 0,-0.004 c 12.44,10.988 26.09,19.894 39.82,26.992 -0.3,-0.156 -0.6,-0.313 -0.9,-0.469 -4.1,-2.144 -8.19,-4.453 -12.24,-6.929 z M 3691.09,65.0469 c -0.71,0.3242 -1.42,0.6797 -2.13,1.0078 0.71,-0.3281 1.42,-0.6836 2.13,-1.0078 z m 8.61,133.8591 c 0.07,-0.062 0.14,-0.133 0.22,-0.199 -6.29,5.356 -12.27,11.172 -17.86,17.457 2.65,-2.98 5.37,-5.879 8.19,-8.648 0.57,-0.563 1.16,-1.09 1.74,-1.645 2.51,-2.402 5.08,-4.723 7.71,-6.965 z m -27.79,29.809 c 0.71,-0.969 1.43,-1.91 2.16,-2.86 1.8,-2.351 3.66,-4.644 5.56,-6.886 0.15,-0.172 0.29,-0.352 0.43,-0.531 -5.07,5.906 -9.78,12.21 -14.07,18.917 1.89,-2.957 3.86,-5.839 5.92,-8.64 z m -7.6,184.105 c 3.17,4.891 6.59,9.524 10.22,13.91 l -0.01,-0.003 c -3.62,-4.383 -7.04,-9.012 -10.21,-13.903 l 0,-0.004 z m 0,-172.754 c -1.73,2.821 -3.38,5.707 -4.94,8.668 1.56,-2.961 3.22,-5.839 4.94,-8.668 z m -7.8,159.145 c 2.28,4.516 4.73,8.871 7.39,13.012 0,0 0,0 0,-0.004 -2.65,-4.137 -5.1,-8.485 -7.38,-12.992 0,-0.008 0,-0.012 -0.01,-0.016 z m -2.84,-138.516 c 1.22,-2.855 2.52,-5.652 3.88,-8.394 0.47,-0.942 0.93,-1.891 1.41,-2.824 -2.37,4.535 -4.53,9.234 -6.5,14.093 0.4,-0.965 0.8,-1.922 1.21,-2.875 z m -3.38,124.348 c 1.66,4.379 3.46,8.629 5.46,12.699 0,-0.004 0,-0.008 0,-0.012 -2,-4.066 -3.8,-8.308 -5.45,-12.679 0,-0.004 0,-0.004 -0.01,-0.008 z m -5.08,-16.188 c 1.21,4.778 2.62,9.387 4.21,13.844 -1.59,-4.457 -3,-9.066 -4.21,-13.844 z m 6.84,-104.242 c -1.24,3.11 -2.38,6.289 -3.44,9.532 1.06,-3.239 2.2,-6.422 3.44,-9.532 z m -9.24,92.785 c 0.44,2.54 0.92,5.043 1.47,7.5 l 0,-0.003 c -0.35,-1.579 -0.7,-3.161 -1.01,-4.774 -0.17,-0.894 -0.31,-1.812 -0.46,-2.723 z m -1.09,-7.054 c 0.21,1.676 0.47,3.328 0.73,4.972 -0.26,-1.644 -0.52,-3.296 -0.73,-4.972 z m 2.09,-57.805 c 0.25,-1.266 0.49,-2.539 0.77,-3.785 0.89,-3.957 1.91,-7.824 3.06,-11.606 -2.73,8.977 -4.73,18.469 -5.95,28.446 0.14,-1.039 0.28,-2.078 0.42,-3.114 0.48,-3.375 1.04,-6.687 1.7,-9.941 z m 64.13,-100.289 c 0.88,-0.676 1.76,-1.375 2.65,-2.035 2.69,-1.981 5.42,-3.891 8.18,-5.723 -5.66,3.746 -11.17,7.836 -16.49,12.227 0,-0.004 0,-0.004 0.01,-0.008 1.85,-1.531 3.74,-3.008 5.65,-4.461 z m 97.41,-156.2969 c 0.56,-0.0273 1.1,-0.0234 1.66,-0.0468 -0.56,0.0234 -1.1,0.0195 -1.66,0.0468 z m -22.22,2.0821 c 0.91,-0.1211 1.82,-0.2149 2.73,-0.3321 -0.92,0.1172 -1.81,0.2071 -2.73,0.3321 z m -23.14,4.0937 c 1.09,-0.2344 2.18,-0.4531 3.26,-0.6797 -1.09,0.2266 -2.17,0.4453 -3.26,0.6797 z m -23.7,6.082 c 1.12,-0.332 2.25,-0.6679 3.37,-0.9882 -1.12,0.3203 -2.24,0.6562 -3.37,0.9882 z m 436.25,437.1911 c -0.3,-2.871 -0.52,-5.789 -0.69,-8.754 0.17,2.965 0.39,5.883 0.69,8.754 z m -0.9,-13.168 c -0.11,-3.402 -0.11,-6.879 -0.04,-10.406 -0.07,3.527 -0.07,7.004 0.04,10.406 z m 54.62,118.633 0,-0.004 c -2.79,-2.511 -5.52,-5.125 -8.17,-7.836 -0.58,-0.586 -1.13,-1.195 -1.7,-1.793 -2.21,-2.328 -4.37,-4.73 -6.48,-7.207 5.14,6.043 10.61,11.664 16.35,16.84 z m 88.19,47.821 c -0.32,-0.094 -0.64,-0.196 -0.96,-0.29 -4.21,-1.253 -8.53,-2.656 -12.93,-4.234 -0.47,-0.164 -0.93,-0.34 -1.39,-0.512 -4.33,-1.574 -8.72,-3.308 -13.15,-5.211 -0.54,-0.238 -1.09,-0.48 -1.64,-0.718 -4.38,-1.922 -8.79,-4.012 -13.2,-6.274 -0.51,-0.254 -1,-0.515 -1.51,-0.777 15.31,7.984 30.7,13.891 44.78,18.016 z m 43.84,8.257 c 5.47,0.477 11.13,0.762 16.92,0.883 -5.79,-0.121 -11.45,-0.406 -16.92,-0.883 -6.48,-0.558 -12.7,-1.359 -18.59,-2.363 -3.79,-0.637 -7.82,-1.445 -12.02,-2.414 4.2,0.969 8.23,1.777 12.02,2.414 5.89,1.004 12.11,1.805 18.59,2.363 z m 34.87,0.645 c -5.61,0.254 -11.14,0.34 -16.55,0.254 5.42,0.086 10.94,0.004 16.55,-0.254 z m 95.51,-23.785 c 5.62,-2.875 11.11,-6.02 16.39,-9.489 -5.28,3.469 -10.77,6.614 -16.39,9.489 z m -17.78,7.949 c 5.53,-2.156 10.97,-4.559 16.28,-7.211 -5.31,2.652 -10.75,5.055 -16.28,7.211 z m -18.8,6.351 c 5.72,-1.648 11.38,-3.523 16.96,-5.64 -5.58,2.113 -11.24,3.992 -16.96,5.64 z m -19.9,4.84 c 6.18,-1.218 12.36,-2.703 18.48,-4.422 -6.12,1.719 -12.3,3.204 -18.48,4.422 z m -18.61,2.942 c 6.11,-0.746 12.26,-1.699 18.4,-2.903 -6.14,1.204 -12.29,2.157 -18.4,2.903 z m -18.58,1.609 c 5.61,-0.293 11.29,-0.766 17.01,-1.433 -5.72,0.667 -11.4,1.14 -17.01,1.433 z m -80.46,-8.777 c 4.5,1.316 8.86,2.457 13.04,3.426 -0.16,-0.04 -0.33,-0.082 -0.49,-0.122 -4.03,-0.941 -8.23,-2.039 -12.55,-3.304 z m -86.92,-46.668 0,0 c 13.08,11.551 27.4,20.961 41.83,28.504 -4.4,-2.301 -8.79,-4.782 -13.14,-7.438 -0.56,-0.34 -1.12,-0.679 -1.68,-1.027 -4.37,-2.723 -8.69,-5.637 -12.93,-8.735 -0.51,-0.371 -1.01,-0.73 -1.52,-1.101 -4.29,-3.195 -8.48,-6.602 -12.56,-10.203 z m 7.95,-265.156 c -6.72,5.722 -13.11,11.929 -19.09,18.632 4.72,-5.261 9.72,-10.179 14.9,-14.847 1.38,-1.25 2.73,-2.539 4.14,-3.746 0.02,-0.012 0.03,-0.028 0.05,-0.039 z m 30.26,-159.157 c -1.59,0.516 -3.17,1.055 -4.75,1.59 1.58,-0.531 3.17,-1.078 4.75,-1.59 z m 17.76,-5.289 c -0.24,0.063 -0.48,0.114 -0.72,0.18 0.24,-0.066 0.48,-0.113 0.72,-0.18 z m 20.87,-4.871 c -1.57,0.317 -3.13,0.637 -4.71,0.981 1.58,-0.344 3.15,-0.664 4.71,-0.981 z m -58.42,160.942 c 3.24,-2.411 6.51,-4.735 9.85,-6.938 -3.34,2.203 -6.61,4.527 -9.85,6.938 z m -7.92,6.218 c 1.79,-1.445 3.59,-2.867 5.41,-4.261 0.38,-0.293 0.76,-0.594 1.13,-0.899 -2.2,1.676 -4.38,3.391 -6.54,5.16 z m 9.34,-150.5 c -1.37,0.524 -2.74,1.016 -4.11,1.563 1.37,-0.543 2.74,-1.039 4.11,-1.563 z m -42.01,184.922 c 0.76,-1.043 1.55,-2.058 2.33,-3.078 1.93,-2.527 3.93,-4.992 5.97,-7.394 0.16,-0.188 0.32,-0.383 0.47,-0.579 -5.45,6.348 -10.52,13.118 -15.12,20.325 2.03,-3.176 4.15,-6.266 6.35,-9.274 z m -8.09,198.082 c 3.41,5.254 7.09,10.227 10.98,14.942 -3.89,-4.711 -7.56,-9.68 -10.97,-14.934 l -0.01,-0.008 z m -0.08,-185.875 c -1.86,3.035 -3.63,6.145 -5.32,9.328 1.69,-3.187 3.47,-6.289 5.32,-9.328 z m -8.31,171.223 c 2.45,4.848 5.08,9.527 7.94,13.98 -2.86,-4.453 -5.49,-9.132 -7.94,-13.98 l 0,0 z m -6.7,-15.254 c 1.78,4.707 3.72,9.269 5.87,13.648 -2.15,-4.379 -4.09,-8.941 -5.87,-13.648 z m 2.28,-130.719 c 0.43,-1.031 0.86,-2.054 1.3,-3.074 1.31,-3.07 2.7,-6.074 4.17,-9.016 0.51,-1.031 1.01,-2.062 1.53,-3.082 -2.55,4.883 -4.88,9.942 -7,15.172 z m -12.91,61.317 c 0.19,-5.133 0.64,-10.106 1.21,-15.008 -0.57,4.902 -1.02,9.875 -1.21,15.008 z m 12.47,-60.196 c -1.33,3.348 -2.56,6.766 -3.69,10.254 1.14,-3.48 2.36,-6.906 3.69,-10.254 z m -7.31,112.157 c 1.29,5.144 2.81,10.109 4.53,14.906 l 0,-0.004 c -1.72,-4.797 -3.24,-9.762 -4.53,-14.902 z m -2.09,-9.395 c 0.33,1.73 0.7,3.426 1.08,5.117 l 0,-0.004 c -0.38,-1.691 -0.75,-3.386 -1.08,-5.113 z m -1.68,-10.531 c 0.23,1.797 0.51,3.558 0.79,5.32 -0.28,-1.762 -0.56,-3.523 -0.79,-5.32 z m 2.23,-62.196 c 0.28,-1.367 0.53,-2.742 0.83,-4.089 0.96,-4.246 2.06,-8.403 3.28,-12.465 -2.92,9.633 -5.06,19.82 -6.37,30.527 0.14,-1.098 0.29,-2.187 0.45,-3.277 0.5,-3.629 1.11,-7.192 1.81,-10.696 z m 202.98,-151.894 c -1.33,-0.113 -2.64,-0.203 -3.94,-0.266 -24.94,-1.207 -56.14,4.809 -86.53,18.442 -1.89,1.73 -3.79,3.449 -5.61,5.281 -0.67,0.66 -1.29,1.371 -1.94,2.043 -2.81,2.898 -5.58,5.844 -8.22,8.941 -2.05,2.41 -4.05,4.879 -5.99,7.41 -0.77,1.016 -1.56,2.028 -2.31,3.067 -2.32,3.168 -4.57,6.414 -6.7,9.766 -0.19,0.308 -0.41,0.597 -0.6,0.91 -2.29,3.656 -4.42,7.445 -6.46,11.32 -0.58,1.105 -1.12,2.242 -1.68,3.363 -1.46,2.946 -2.85,5.953 -4.17,9.024 -0.53,1.234 -1.06,2.461 -1.56,3.715 -1.6,4 -3.1,8.078 -4.43,12.285 -0.06,0.203 -0.14,0.394 -0.2,0.601 -1.37,4.395 -2.53,8.934 -3.57,13.555 -0.3,1.34 -0.55,2.715 -0.83,4.078 -0.7,3.496 -1.3,7.059 -1.81,10.684 -0.2,1.441 -0.42,2.875 -0.59,4.34 -0.58,4.945 -1.03,9.964 -1.22,15.136 -0.44,11.305 0.1,21.953 1.4,32.043 0.23,1.793 0.5,3.559 0.78,5.317 0.28,1.746 0.56,3.492 0.89,5.203 0.33,1.73 0.7,3.426 1.08,5.121 0.32,1.437 0.65,2.867 1.01,4.277 1.29,5.141 2.81,10.102 4.53,14.895 0.3,0.855 0.62,1.703 0.94,2.55 1.78,4.708 3.72,9.274 5.87,13.649 0.27,0.547 0.56,1.066 0.83,1.601 2.45,4.848 5.08,9.528 7.94,13.977 0.15,0.238 0.31,0.461 0.47,0.695 3.4,5.25 7.08,10.219 10.96,14.926 0.52,0.621 1.05,1.223 1.57,1.836 2.1,2.481 4.27,4.891 6.49,7.223 0.56,0.59 1.11,1.199 1.68,1.777 2.66,2.715 5.38,5.324 8.17,7.836 0.46,0.41 0.92,0.797 1.38,1.199 4.07,3.598 8.27,7 12.55,10.192 0.51,0.379 1.02,0.742 1.53,1.113 4.24,3.094 8.55,6.008 12.92,8.726 0.56,0.348 1.12,0.692 1.68,1.032 4.35,2.656 8.74,5.136 13.15,7.437 0.57,0.301 1.14,0.602 1.71,0.895 4.42,2.261 8.83,4.351 13.22,6.273 0.54,0.238 1.09,0.481 1.63,0.711 4.43,1.906 8.82,3.641 13.15,5.219 0.46,0.168 0.93,0.348 1.39,0.512 4.4,1.574 8.72,2.98 12.93,4.234 0.35,0.102 0.7,0.215 1.05,0.316 4.32,1.266 8.52,2.364 12.55,3.309 0.19,0.043 0.4,0.098 0.59,0.141 4.2,0.972 8.23,1.777 12.02,2.418 5.89,1.003 12.11,1.8 18.59,2.363 34.93,3.027 77.26,-0.942 115.13,-16.309 21.08,-22 36.1,-51.574 40.33,-90.617 14.23,-130.379 -120.16,-219.406 -193.75,-225.785 z m 251.9,405.66 c -1.2,1.207 -2.39,2.43 -3.61,3.609 0.61,-0.574 1.23,-1.144 1.83,-1.734 0.61,-0.601 1.17,-1.266 1.78,-1.875 z m 12.18,-13.187 c -1.28,1.5 -2.59,2.968 -3.91,4.433 0.46,-0.515 0.96,-0.98 1.42,-1.496 0.85,-0.961 1.66,-1.957 2.49,-2.937 z m 9.56,-11.965 c -0.86,1.156 -1.76,2.277 -2.64,3.414 0.31,-0.391 0.63,-0.758 0.93,-1.149 0.57,-0.75 1.14,-1.511 1.71,-2.265 z m 10.52,-15.184 c 0.03,-0.035 0.05,-0.078 0.07,-0.113 -0.66,1.058 -1.4,2.043 -2.08,3.086 0.28,-0.422 0.58,-0.813 0.86,-1.238 0.37,-0.59 0.78,-1.141 1.15,-1.735 z m 10.82,-19.305 c -0.26,0.5 -0.5,1.02 -0.75,1.516 0.12,-0.254 0.25,-0.504 0.38,-0.758 0.13,-0.246 0.24,-0.511 0.37,-0.758 z m 8.12,-17.808 c -0.66,1.594 -1.3,3.203 -1.98,4.773 0.38,-0.847 0.76,-1.691 1.12,-2.55 0.3,-0.723 0.56,-1.497 0.86,-2.223 z m 5.49,-14.313 c 0.38,-1.125 0.67,-2.343 1.04,-3.488 -0.75,2.309 -1.51,4.598 -2.32,6.852 0.26,-0.723 0.57,-1.399 0.82,-2.125 0.14,-0.418 0.32,-0.817 0.46,-1.239 z m 6.13,-21.156 c -0.52,2.086 -1.09,4.137 -1.66,6.184 0.24,-0.848 0.52,-1.645 0.75,-2.496 0.32,-1.211 0.62,-2.454 0.91,-3.688 z m 3.84,-17.609 c -0.23,1.226 -0.49,2.418 -0.74,3.633 0.1,-0.497 0.23,-0.973 0.33,-1.473 0.14,-0.719 0.27,-1.442 0.41,-2.16 z m 3.51,-23.426 c 0,0.07 0,0.144 -0.01,0.219 -0.01,0.039 -0.01,0.074 -0.02,0.113 0.01,-0.039 0.01,-0.074 0.02,-0.113 0.01,-0.075 0.01,-0.149 0.01,-0.219 z m 1.52,-26.828 c 0,-0.02 0,-0.035 0,-0.055 -0.03,2.047 0.05,4.067 -0.03,6.125 0,0 0,-0.004 0,-0.008 0.07,-2.039 0,-4.035 0.03,-6.062 z m 205.24,197.246 -136.74,11.269 -19.46,-177.679 c -0.19,0.789 -0.37,1.582 -0.58,2.359 -1.59,5.969 -3.3,11.82 -5.22,17.469 -0.14,0.422 -0.31,0.816 -0.46,1.238 -1.82,5.242 -3.8,10.32 -5.89,15.293 -0.68,1.61 -1.39,3.184 -2.09,4.766 -1.76,3.945 -3.61,7.804 -5.54,11.582 -0.71,1.394 -1.4,2.812 -2.13,4.183 -2.64,4.926 -5.4,9.735 -8.31,14.364 -0.38,0.593 -0.79,1.148 -1.17,1.738 -2.6,4.047 -5.31,7.969 -8.11,11.789 -0.98,1.328 -1.97,2.633 -2.97,3.934 -2.47,3.226 -5.01,6.367 -7.62,9.429 -0.63,0.735 -1.2,1.539 -1.83,2.266 -0.29,0.324 -0.6,0.609 -0.89,0.934 -3.7,4.191 -7.52,8.238 -11.46,12.125 -0.83,0.816 -1.69,1.589 -2.53,2.394 -3.32,3.18 -6.72,6.258 -10.2,9.234 -0.64,0.547 -1.24,1.161 -1.88,1.704 -0.53,0.445 -1.1,0.843 -1.63,1.285 -2.48,2.047 -5.01,4.019 -7.56,5.965 -1.22,0.937 -2.43,1.906 -3.67,2.82 -3.8,2.797 -7.65,5.512 -11.58,8.101 l -58.24,38.36 c 0.05,-0.035 0.09,-0.071 0.14,-0.106 -73.62,48.559 -169.64,61.121 -244.86,54.602 -10.7,-0.926 -20.97,-2.238 -30.71,-3.891 -97.78,-16.613 -287.69,-96.988 -279.55,-310.472 0.84,-22.481 4.03,-43.579 8.99,-63.465 l -35.98,-3.117 -172.37,-14.942 6.63,-111.031 54.14,-35.656 76.1,6.597 c -39.73,-48.644 -99.18,-78.675 -139.27,-82.152 -1.25,-0.105 -2.46,-0.188 -3.67,-0.246 -23.24,-1.125 -52.29,4.48 -80.58,17.191 -0.73,0.676 -1.48,1.305 -2.2,1.992 -0.57,0.543 -1.16,1.071 -1.73,1.625 -2.93,2.883 -5.77,5.895 -8.53,9.004 -0.71,0.809 -1.4,1.645 -2.1,2.465 -1.9,2.235 -3.75,4.524 -5.55,6.871 -0.72,0.95 -1.45,1.895 -2.16,2.864 -2.16,2.945 -4.25,5.961 -6.22,9.078 -0.19,0.289 -0.39,0.558 -0.57,0.847 -2.12,3.403 -4.11,6.926 -6,10.532 -0.54,1.027 -1.05,2.086 -1.57,3.129 -1.36,2.742 -2.66,5.543 -3.88,8.398 -0.49,1.145 -0.99,2.281 -1.45,3.445 -1.49,3.719 -2.89,7.508 -4.12,11.418 -0.06,0.196 -0.14,0.383 -0.2,0.578 -1.27,4.086 -2.35,8.309 -3.32,12.606 -0.28,1.25 -0.52,2.527 -0.77,3.797 -0.66,3.254 -1.22,6.57 -1.7,9.941 -0.18,1.344 -0.39,2.676 -0.55,4.035 -0.53,4.598 -0.96,9.27 -1.14,14.086 -0.05,1.227 -0.01,2.403 -0.04,3.617 -0.06,3.274 -0.06,6.504 0.04,9.668 0.05,1.375 0.13,2.727 0.2,4.082 0.15,2.758 0.36,5.473 0.64,8.141 0.14,1.414 0.28,2.84 0.46,4.231 0.21,1.675 0.47,3.32 0.73,4.96 0.26,1.622 0.52,3.239 0.82,4.829 0.31,1.605 0.66,3.179 1.01,4.753 0.48,2.161 1.08,4.223 1.65,6.317 0.84,3.109 1.76,6.148 2.77,9.121 0.54,1.574 1.02,3.191 1.6,4.727 1.65,4.375 3.45,8.621 5.45,12.683 0.25,0.504 0.52,0.988 0.77,1.485 2.28,4.507 4.72,8.863 7.38,13 0.13,0.207 0.28,0.402 0.41,0.609 3.17,4.887 6.59,9.512 10.21,13.894 0.48,0.582 0.98,1.145 1.46,1.715 1.96,2.301 3.96,4.532 6.02,6.696 0.53,0.554 1.05,1.125 1.58,1.671 2.47,2.52 5.01,4.95 7.6,7.282 0.41,0.375 0.84,0.726 1.26,1.097 3.79,3.352 7.7,6.52 11.69,9.493 0.46,0.343 0.93,0.675 1.39,1.015 3.95,2.887 7.97,5.598 12.04,8.129 0.51,0.32 1.03,0.637 1.55,0.949 4.05,2.477 8.14,4.785 12.24,6.93 0.52,0.273 1.05,0.547 1.57,0.816 4.11,2.106 8.23,4.051 12.31,5.84 0.5,0.223 1,0.446 1.5,0.66 4.13,1.774 8.22,3.387 12.25,4.856 0.42,0.156 0.85,0.316 1.27,0.469 4.09,1.464 8.11,2.773 12.02,3.937 0.33,0.098 0.67,0.203 0.99,0.301 4.02,1.176 7.92,2.195 11.66,3.07 0.18,0.043 0.38,0.094 0.56,0.137 3.91,0.902 7.65,1.652 11.17,2.246 5.47,0.949 11.23,1.68 17.23,2.199 4.45,0.387 9.03,0.656 13.72,0.817 l -6.82,114.25 -54.14,35.66 c -6.67,-0.254 -13.21,-0.664 -19.59,-1.215 -9.95,-0.863 -19.5,-2.078 -28.54,-3.625 -90.82,-15.434 -267.44,-90.16 -259.87,-288.527 4.06,-106.727 61.97,-181.746 132.07,-227.5004 -0.39,0.25 -0.79,0.4531 -1.18,0.707 l 54.14,-35.6562 c 7.57,-4.9805 15.28,-9.6211 23.08,-13.918 15.6,-8.6016 31.58,-15.8398 47.51,-21.7422 39.82,-14.75779 79.33,-21.16404 111.97,-19.593731 1.94,0.09375 3.94,0.230469 5.94,0.40625 3.47,0.300781 7.02,0.726561 10.65,1.261721 1.21,0.17969 2.47,0.4375 3.7,0.64062 2.45,0.41016 4.89,0.8086 7.41,1.32032 1.5,0.30468 3.05,0.6914 4.58,1.03515 2.3,0.51563 4.6,1.01953 6.95,1.61719 1.65,0.42187 3.34,0.91797 5.02,1.37891 2.27,0.6289 4.54,1.24609 6.85,1.94531 1.77,0.53906 3.57,1.14066 5.36,1.72266 2.27,0.7383 4.54,1.4687 6.84,2.2773 1.83,0.6407 3.68,1.3399 5.53,2.0274 2.29,0.8515 4.59,1.707 6.91,2.625 1.89,0.75 3.8,1.5508 5.71,2.3476 2.3,0.9571 4.59,1.9219 6.9,2.9414 1.95,0.8594 3.9,1.7579 5.86,2.6641 2.3,1.0664 4.61,2.1484 6.92,3.2734 1.96,0.9571 3.93,1.9415 5.9,2.9415 2.33,1.1835 4.65,2.3906 6.98,3.6289 1.97,1.0507 3.94,2.1211 5.92,3.2187 2.33,1.2891 4.65,2.6133 6.98,3.9649 1.97,1.1445 3.94,2.3007 5.91,3.4843 2.33,1.4024 4.65,2.8438 6.97,4.3047 1.96,1.2344 3.92,2.4727 5.88,3.75 2.32,1.5117 4.62,3.0703 6.93,4.6406 1.94,1.3204 3.88,2.6329 5.81,3.9961 2.31,1.6328 4.61,3.3203 6.91,5.0118 1.89,1.3867 3.77,2.7617 5.65,4.1875 2.32,1.7695 4.62,3.6015 6.92,5.4335 1.82,1.4454 3.64,2.8633 5.44,4.3438 2.33,1.9219 4.63,3.9102 6.94,5.8945 1.71,1.4766 3.45,2.9219 5.14,4.4297 0.31,0.2735 0.63,0.5274 0.93,0.8008 0.48,0.4297 0.92,0.9102 1.4,1.3437 6.04,5.4532 11.94,11.1092 17.68,16.9762 0.64,0.649 1.29,1.262 1.92,1.914 5.82,6.032 11.42,12.321 16.87,18.77 0.57,0.684 1.21,1.301 1.78,1.988 0.58,0.7 1.11,1.45 1.69,2.153 3.04,3.714 5.99,7.507 8.88,11.351 0.99,1.313 2.02,2.586 2.99,3.914 3.78,5.164 7.42,10.438 10.9,15.824 0.15,0.227 0.32,0.438 0.46,0.665 1.17,1.812 2.23,3.699 3.36,5.535 1.69,2.754 3.42,5.496 5.03,8.308 1.27,2.203 2.44,4.469 3.65,6.703 1.51,2.793 3.05,5.567 4.48,8.407 0.22,0.437 0.47,0.851 0.69,1.289 1.27,2.57 2.42,5.215 3.62,7.824 0.87,1.883 1.79,3.738 2.62,5.641 0.67,1.539 1.27,3.109 1.92,4.66 3.18,-2.231 6.38,-4.43 9.61,-6.543 -0.4,0.261 -0.82,0.472 -1.22,0.734 l 0.01,-0.004 0,0 58.23,-38.351 c 65.13,-42.891 140.29,-62.172 196.47,-59.465 2.1,0.101 4.24,0.246 6.4,0.433 3.72,0.325 7.55,0.786 11.45,1.36 1.3,0.191 2.65,0.469 3.97,0.687 2.64,0.442 5.28,0.875 7.99,1.426 1.61,0.324 3.27,0.738 4.91,1.106 2.47,0.554 4.94,1.097 7.47,1.742 1.8,0.457 3.63,0.992 5.45,1.496 2.44,0.672 4.87,1.332 7.34,2.086 1.91,0.574 3.83,1.222 5.76,1.847 2.44,0.793 4.88,1.582 7.35,2.45 1.98,0.691 3.97,1.445 5.96,2.183 2.47,0.914 4.94,1.836 7.44,2.824 2.02,0.805 4.06,1.661 6.11,2.512 2.48,1.035 4.97,2.082 7.47,3.188 2.08,0.918 4.17,1.879 6.26,2.847 2.49,1.149 4.98,2.321 7.48,3.535 2.1,1.028 4.21,2.083 6.33,3.157 2.5,1.269 5,2.57 7.51,3.91 2.13,1.129 4.24,2.277 6.37,3.457 2.51,1.391 5.01,2.816 7.52,4.269 2.11,1.227 4.22,2.465 6.33,3.739 2.52,1.511 5.03,3.074 7.54,4.652 2.1,1.32 4.19,2.641 6.28,4.004 2.52,1.641 5.02,3.336 7.52,5.039 2.06,1.402 4.12,2.801 6.18,4.246 2.51,1.77 5,3.602 7.49,5.434 2.02,1.484 4.04,2.957 6.04,4.48 2.5,1.906 4.97,3.875 7.45,5.844 1.95,1.551 3.91,3.082 5.85,4.672 2.53,2.086 5.02,4.242 7.52,6.394 1.82,1.567 3.66,3.102 5.47,4.703 0.33,0.297 0.68,0.575 1.01,0.875 0.52,0.469 1.01,0.997 1.53,1.469 6.48,5.856 12.82,11.934 18.99,18.239 0.68,0.695 1.39,1.359 2.06,2.058 6.27,6.488 12.29,13.25 18.15,20.188 0.62,0.734 1.31,1.402 1.92,2.14 0.63,0.754 1.2,1.563 1.82,2.324 3.27,3.993 6.44,8.063 9.55,12.196 1.07,1.414 2.17,2.793 3.22,4.222 4.06,5.555 7.98,11.227 11.73,17.024 0.16,0.242 0.33,0.469 0.49,0.711 1.25,1.933 2.37,3.949 3.58,5.91 1.84,2.984 3.71,5.945 5.45,8.992 1.36,2.356 2.6,4.774 3.9,7.16 1.64,3.02 3.3,6.02 4.84,9.09 0.05,0.102 0.11,0.199 0.16,0.301 l -3.87,-35.367 50.97,-47.59 136.74,-11.27 45.84,418.633 -50.97,47.594"
         style="fill:#ffffff;fill-opacity:1;fill-rule:nonzero;stroke:none"
         id="path28"
         inkscape:connector-curvature="0" /><path
         d="m 4714.71,213.406 -15.05,-137.449 50.97,-47.5937 136.74,-11.2695 15.05,137.4492 -50.97,47.594 -136.74,11.269"
         style="fill:#ffffff;fill-opacity:1;fill-rule:nonzero;stroke:none"
         id="path30"
         inkscape:connector-curvature="0" /><path
         d="m 4505.27,614.199 c -44.21,29.114 -101.82,36.664 -146.98,32.746 -6.48,-0.558 -12.7,-1.359 -18.59,-2.363 -3.79,-0.637 -7.82,-1.445 -12.02,-2.414 -0.2,-0.047 -0.4,-0.102 -0.59,-0.145 -4.03,-0.941 -8.23,-2.039 -12.55,-3.304 -0.35,-0.102 -0.7,-0.215 -1.05,-0.321 -4.21,-1.253 -8.53,-2.656 -12.93,-4.234 -0.47,-0.164 -0.93,-0.34 -1.39,-0.512 -4.33,-1.574 -8.72,-3.308 -13.15,-5.211 -0.54,-0.238 -1.09,-0.48 -1.64,-0.718 -4.38,-1.922 -8.79,-4.012 -13.2,-6.274 -0.58,-0.293 -1.15,-0.59 -1.73,-0.894 -4.4,-2.301 -8.79,-4.782 -13.14,-7.438 -0.56,-0.34 -1.12,-0.679 -1.68,-1.027 -4.37,-2.723 -8.69,-5.637 -12.93,-8.735 -0.51,-0.371 -1.01,-0.73 -1.52,-1.101 -4.29,-3.195 -8.48,-6.602 -12.56,-10.203 -0.26,-0.231 -0.55,-0.422 -0.81,-0.656 -0.19,-0.168 -0.36,-0.36 -0.55,-0.532 -2.79,-2.511 -5.52,-5.125 -8.17,-7.836 -0.58,-0.586 -1.13,-1.195 -1.7,-1.793 -2.22,-2.328 -4.38,-4.734 -6.48,-7.211 -0.39,-0.449 -0.8,-0.855 -1.18,-1.308 -0.14,-0.164 -0.25,-0.363 -0.39,-0.527 -3.89,-4.715 -7.56,-9.684 -10.97,-14.938 -0.1,-0.156 -0.23,-0.289 -0.33,-0.449 -0.05,-0.074 -0.08,-0.156 -0.13,-0.231 -2.86,-4.453 -5.49,-9.132 -7.94,-13.98 -0.18,-0.36 -0.41,-0.672 -0.58,-1.031 -0.1,-0.184 -0.16,-0.387 -0.25,-0.571 -2.15,-4.383 -4.09,-8.949 -5.87,-13.66 -0.18,-0.469 -0.41,-0.89 -0.58,-1.363 -0.14,-0.375 -0.23,-0.793 -0.36,-1.168 -1.72,-4.797 -3.24,-9.762 -4.53,-14.906 -0.1,-0.383 -0.25,-0.727 -0.34,-1.114 -0.25,-1.031 -0.44,-2.117 -0.67,-3.164 -0.38,-1.691 -0.75,-3.39 -1.08,-5.121 -0.33,-1.707 -0.61,-3.449 -0.89,-5.195 -0.28,-1.766 -0.56,-3.531 -0.79,-5.336 -0.08,-0.676 -0.21,-1.32 -0.29,-2.004 -1.06,-9.062 -1.47,-18.594 -1.15,-28.617 0.01,-0.469 0.03,-0.938 0.05,-1.406 0.19,-5.18 0.64,-10.204 1.22,-15.149 0.17,-1.457 0.38,-2.883 0.59,-4.316 0.5,-3.629 1.11,-7.192 1.81,-10.696 0.28,-1.367 0.53,-2.742 0.83,-4.089 1.05,-4.618 2.2,-9.153 3.57,-13.547 0.06,-0.203 0.14,-0.395 0.2,-0.598 1.33,-4.211 2.83,-8.293 4.43,-12.293 0.5,-1.254 1.03,-2.473 1.56,-3.703 1.31,-3.07 2.7,-6.074 4.17,-9.016 0.56,-1.132 1.1,-2.273 1.69,-3.386 2.03,-3.868 4.16,-7.657 6.44,-11.305 0.21,-0.324 0.43,-0.625 0.64,-0.949 2.12,-3.34 4.35,-6.574 6.66,-9.727 0.76,-1.043 1.55,-2.058 2.33,-3.078 1.93,-2.527 3.93,-4.992 5.97,-7.394 0.5,-0.586 0.96,-1.227 1.46,-1.805 l 0.18,-0.117 0,-0.004 -0.18,0.121 c 5.07,-5.805 10.54,-11.125 16.17,-16.203 1.38,-1.25 2.73,-2.539 4.14,-3.746 0.43,-0.364 0.83,-0.774 1.26,-1.137 2.21,-1.848 4.48,-3.578 6.75,-5.32 0.72,-0.559 1.42,-1.153 2.15,-1.7 3.45,-2.578 6.94,-5.058 10.5,-7.402 0.01,-0.008 0.02,-0.016 0.03,-0.023 l 58.24,-38.36 c -3.68,2.426 -7.29,4.996 -10.84,7.676 -0.78,0.582 -1.52,1.211 -2.29,1.801 -2.75,2.14 -5.48,4.344 -8.14,6.636 -1.26,1.079 -2.46,2.231 -3.7,3.34 -2.47,2.246 -4.95,4.504 -7.32,6.891 -0.67,0.66 -1.29,1.371 -1.94,2.043 -2.81,2.898 -5.58,5.844 -8.22,8.941 -2.05,2.41 -4.05,4.879 -5.99,7.41 -0.77,1.016 -1.56,2.028 -2.31,3.067 -2.32,3.168 -4.57,6.414 -6.7,9.766 -0.19,0.308 -0.41,0.597 -0.6,0.91 -2.29,3.656 -4.42,7.445 -6.46,11.32 -0.58,1.105 -1.12,2.242 -1.68,3.363 -1.46,2.946 -2.85,5.953 -4.17,9.024 -0.53,1.234 -1.06,2.461 -1.56,3.715 -1.6,4 -3.1,8.078 -4.43,12.285 -0.06,0.203 -0.14,0.394 -0.2,0.601 -1.37,4.395 -2.53,8.934 -3.57,13.555 -0.3,1.34 -0.55,2.715 -0.83,4.078 -0.7,3.496 -1.3,7.059 -1.81,10.684 -0.2,1.441 -0.42,2.875 -0.59,4.34 -0.58,4.945 -1.03,9.964 -1.22,15.136 -0.44,11.305 0.1,21.953 1.4,32.043 0.23,1.793 0.5,3.559 0.78,5.317 0.28,1.746 0.56,3.492 0.89,5.203 0.33,1.73 0.7,3.426 1.08,5.121 0.32,1.437 0.65,2.867 1.01,4.277 1.29,5.141 2.81,10.102 4.53,14.895 0.3,0.855 0.62,1.703 0.94,2.55 1.78,4.708 3.72,9.274 5.87,13.649 0.27,0.547 0.56,1.066 0.83,1.601 2.45,4.848 5.08,9.528 7.94,13.977 0.15,0.238 0.31,0.461 0.47,0.695 3.4,5.25 7.08,10.219 10.96,14.926 0.52,0.621 1.05,1.223 1.57,1.836 2.1,2.481 4.27,4.891 6.49,7.223 0.56,0.59 1.11,1.199 1.68,1.777 2.66,2.715 5.38,5.324 8.17,7.836 0.46,0.41 0.92,0.797 1.38,1.199 4.07,3.598 8.27,7 12.55,10.192 0.51,0.379 1.02,0.742 1.53,1.113 4.24,3.094 8.55,6.008 12.92,8.726 0.56,0.348 1.12,0.692 1.68,1.032 4.35,2.656 8.74,5.136 13.15,7.437 0.57,0.301 1.14,0.602 1.71,0.895 4.42,2.261 8.83,4.351 13.22,6.273 0.54,0.238 1.09,0.481 1.63,0.711 4.43,1.906 8.82,3.641 13.15,5.219 0.46,0.168 0.93,0.348 1.39,0.512 4.4,1.574 8.72,2.98 12.93,4.234 0.35,0.102 0.7,0.215 1.05,0.316 4.32,1.266 8.52,2.364 12.55,3.309 0.19,0.043 0.4,0.098 0.59,0.141 4.2,0.972 8.23,1.777 12.02,2.418 5.89,1.003 12.11,1.8 18.59,2.363 45.16,3.914 102.77,-3.633 146.98,-32.746 l -58.24,38.355"
         style="fill:#a7a5a6;fill-opacity:1;fill-rule:nonzero;stroke:none"
         id="path32"
         inkscape:connector-curvature="0" /><path
         d="m 4756.05,409.336 c 0.44,2.543 0.78,5.121 1.15,7.687 0.36,2.457 0.81,4.875 1.1,7.356 0.11,0.891 0.12,1.816 0.22,2.711 0.45,4.176 0.74,8.406 1.01,12.644 0.16,2.606 0.39,5.188 0.49,7.813 0.17,4.883 0.13,9.828 0.05,14.789 -0.02,1.801 0.09,3.559 0.02,5.367 0,0.254 -0.04,0.516 -0.05,0.77 -0.26,6.918 -0.73,13.906 -1.5,20.972 -0.74,6.774 -1.73,13.317 -2.85,19.746 -0.33,1.907 -0.7,3.77 -1.07,5.645 -0.91,4.719 -1.92,9.352 -3.04,13.891 -0.43,1.746 -0.83,3.507 -1.29,5.226 -1.59,5.969 -3.3,11.82 -5.22,17.469 -0.14,0.422 -0.31,0.816 -0.46,1.238 -1.82,5.242 -3.8,10.324 -5.89,15.293 -0.68,1.61 -1.39,3.184 -2.09,4.766 -1.76,3.945 -3.61,7.804 -5.54,11.582 -0.71,1.394 -1.4,2.812 -2.13,4.183 -2.64,4.926 -5.4,9.735 -8.31,14.364 -0.38,0.593 -0.79,1.148 -1.17,1.738 -2.6,4.047 -5.31,7.969 -8.11,11.789 -0.98,1.328 -1.97,2.633 -2.97,3.934 -2.47,3.226 -5.01,6.367 -7.62,9.429 -0.63,0.735 -1.2,1.539 -1.83,2.266 -0.29,0.324 -0.6,0.609 -0.89,0.934 -3.7,4.191 -7.52,8.238 -11.46,12.125 -0.83,0.816 -1.69,1.589 -2.53,2.394 -3.32,3.18 -6.72,6.258 -10.2,9.234 -0.64,0.547 -1.24,1.161 -1.88,1.704 -0.53,0.445 -1.1,0.843 -1.63,1.285 -2.48,2.047 -5.01,4.019 -7.56,5.965 -1.22,0.937 -2.43,1.906 -3.67,2.82 -3.8,2.797 -7.65,5.512 -11.58,8.101 l -58.24,38.36 c 3.93,-2.594 7.79,-5.313 11.6,-8.113 1.21,-0.899 2.4,-1.852 3.6,-2.77 2.57,-1.965 5.12,-3.953 7.62,-6.016 1.18,-0.972 2.33,-1.98 3.49,-2.972 3.47,-2.977 6.87,-6.051 10.2,-9.231 0.84,-0.808 1.71,-1.59 2.54,-2.41 3.95,-3.887 7.77,-7.934 11.47,-12.125 0.92,-1.039 1.8,-2.121 2.7,-3.18 2.61,-3.074 5.16,-6.222 7.64,-9.457 0.99,-1.293 1.98,-2.586 2.95,-3.906 2.81,-3.828 5.52,-7.758 8.13,-11.808 0.37,-0.59 0.78,-1.141 1.15,-1.735 2.92,-4.629 5.68,-9.437 8.32,-14.363 0.73,-1.371 1.42,-2.789 2.13,-4.184 1.93,-3.773 3.78,-7.633 5.54,-11.578 0.7,-1.582 1.41,-3.156 2.09,-4.765 2.09,-4.973 4.07,-10.055 5.89,-15.297 0.14,-0.418 0.32,-0.817 0.46,-1.239 1.92,-5.648 3.63,-11.5 5.22,-17.468 0.46,-1.715 0.86,-3.481 1.29,-5.223 1.12,-4.543 2.13,-9.184 3.05,-13.914 0.36,-1.863 0.73,-3.715 1.06,-5.609 1.12,-6.438 2.11,-12.985 2.85,-19.758 0.77,-7.071 1.24,-14.063 1.5,-20.985 0.07,-2.039 0,-4.035 0.03,-6.062 0.08,-4.985 0.12,-9.957 -0.05,-14.863 -0.1,-2.618 -0.33,-5.184 -0.49,-7.778 -0.27,-4.246 -0.56,-8.488 -1.01,-12.672 -0.37,-3.379 -0.84,-6.718 -1.32,-10.05 -0.37,-2.575 -0.71,-5.165 -1.15,-7.711 -0.62,-3.551 -1.36,-7.051 -2.1,-10.555 -0.51,-2.395 -0.96,-4.809 -1.53,-7.18 -0.99,-4.156 -2.13,-8.25 -3.29,-12.328 -0.45,-1.555 -0.82,-3.137 -1.29,-4.68 -1.7,-5.597 -3.55,-11.128 -5.56,-16.578 -0.56,-1.527 -1.22,-3.008 -1.81,-4.519 -1.54,-4 -3.1,-7.992 -4.81,-11.91 -0.9,-2.055 -1.89,-4.059 -2.83,-6.094 -1.51,-3.281 -3.01,-6.567 -4.63,-9.789 -1.55,-3.071 -3.21,-6.071 -4.85,-9.086 -1.29,-2.383 -2.53,-4.797 -3.88,-7.145 -1.77,-3.074 -3.65,-6.062 -5.5,-9.074 -1.34,-2.18 -2.64,-4.394 -4.02,-6.539 -3.76,-5.801 -7.68,-11.477 -11.74,-17.031 -1.05,-1.43 -2.15,-2.809 -3.22,-4.223 -3.11,-4.129 -6.28,-8.207 -9.55,-12.199 -1.23,-1.504 -2.49,-2.981 -3.74,-4.461 -5.86,-6.938 -11.88,-13.703 -18.15,-20.188 -0.67,-0.703 -1.38,-1.367 -2.06,-2.062 -6.17,-6.301 -12.51,-12.379 -18.99,-18.234 -0.85,-0.774 -1.69,-1.582 -2.55,-2.344 -1.79,-1.602 -3.63,-3.129 -5.44,-4.695 -2.51,-2.157 -5.01,-4.321 -7.55,-6.411 -1.93,-1.586 -3.88,-3.105 -5.82,-4.648 -2.48,-1.973 -4.96,-3.949 -7.46,-5.859 -2.01,-1.532 -4.04,-3.004 -6.07,-4.493 -2.48,-1.828 -4.96,-3.652 -7.47,-5.418 -2.05,-1.449 -4.12,-2.851 -6.19,-4.257 -2.5,-1.704 -5,-3.395 -7.51,-5.032 -2.09,-1.363 -4.18,-2.687 -6.28,-4.004 -2.51,-1.578 -5.02,-3.14 -7.54,-4.656 -2.11,-1.269 -4.22,-2.508 -6.33,-3.734 -2.51,-1.453 -5.01,-2.883 -7.52,-4.27 -2.13,-1.179 -4.25,-2.336 -6.38,-3.465 -2.5,-1.335 -5,-2.632 -7.49,-3.902 -2.12,-1.074 -4.23,-2.133 -6.35,-3.16 -2.5,-1.215 -4.99,-2.391 -7.48,-3.539 -2.08,-0.965 -4.17,-1.922 -6.25,-2.84 -2.5,-1.105 -4.99,-2.156 -7.48,-3.191 -2.04,-0.852 -4.08,-1.707 -6.11,-2.508 -2.49,-0.988 -4.96,-1.91 -7.43,-2.828 -1.99,-0.739 -3.98,-1.492 -5.96,-2.184 -2.47,-0.867 -4.91,-1.656 -7.35,-2.449 -1.93,-0.621 -3.86,-1.27 -5.76,-1.848 -2.47,-0.754 -4.91,-1.414 -7.34,-2.086 -1.82,-0.504 -3.65,-1.039 -5.45,-1.496 -2.52,-0.644 -4.99,-1.183 -7.46,-1.738 -1.64,-0.367 -3.31,-0.781 -4.92,-1.109 -2.71,-0.551 -5.35,-0.985 -8,-1.426 -1.31,-0.219 -2.66,-0.496 -3.96,-0.688 -3.9,-0.574 -7.73,-1.035 -11.45,-1.355 -2.16,-0.188 -4.3,-0.336 -6.4,-0.438 -42.14,-2.027 -94.95,8.309 -146.19,31.7 -17.09,7.796 -33.99,17.042 -50.28,27.765 l 0.01,-0.004 0,0.004 58.23,-38.355 c 65.13,-42.891 140.29,-62.172 196.47,-59.465 2.1,0.101 4.24,0.246 6.4,0.433 3.72,0.325 7.55,0.786 11.45,1.36 1.3,0.191 2.65,0.469 3.97,0.687 2.64,0.442 5.28,0.875 7.99,1.426 1.61,0.324 3.27,0.738 4.91,1.106 2.47,0.554 4.94,1.097 7.47,1.742 1.8,0.457 3.63,0.992 5.45,1.496 2.44,0.672 4.87,1.332 7.34,2.086 1.91,0.574 3.83,1.222 5.76,1.847 2.44,0.793 4.88,1.582 7.35,2.45 1.98,0.691 3.97,1.445 5.96,2.183 2.47,0.914 4.94,1.836 7.44,2.824 2.02,0.805 4.06,1.661 6.11,2.512 2.48,1.035 4.97,2.082 7.47,3.188 2.08,0.918 4.17,1.879 6.26,2.847 2.49,1.149 4.98,2.321 7.48,3.535 2.1,1.028 4.21,2.083 6.33,3.157 2.5,1.269 5,2.57 7.51,3.91 2.13,1.129 4.24,2.277 6.37,3.457 2.51,1.391 5.01,2.816 7.52,4.269 2.11,1.227 4.22,2.465 6.33,3.739 2.52,1.511 5.03,3.074 7.54,4.652 2.1,1.32 4.19,2.641 6.28,4.004 2.52,1.641 5.02,3.336 7.52,5.039 2.06,1.402 4.12,2.801 6.18,4.246 2.51,1.77 5,3.602 7.49,5.434 2.02,1.484 4.04,2.957 6.04,4.48 2.5,1.906 4.97,3.875 7.45,5.844 1.95,1.551 3.91,3.082 5.85,4.672 2.53,2.086 5.02,4.242 7.52,6.394 1.82,1.567 3.66,3.102 5.47,4.703 0.33,0.297 0.68,0.575 1.01,0.875 0.52,0.469 1.01,0.997 1.53,1.469 6.48,5.856 12.82,11.934 18.99,18.239 0.68,0.695 1.39,1.359 2.06,2.058 6.27,6.488 12.29,13.25 18.15,20.188 0.62,0.734 1.31,1.402 1.92,2.14 0.63,0.754 1.2,1.563 1.82,2.324 3.27,3.993 6.44,8.063 9.55,12.196 1.07,1.414 2.17,2.793 3.22,4.222 4.06,5.555 7.98,11.227 11.73,17.024 0.16,0.242 0.33,0.469 0.49,0.711 1.25,1.933 2.37,3.949 3.58,5.91 1.84,2.984 3.71,5.945 5.45,8.992 1.36,2.356 2.6,4.774 3.9,7.16 1.64,3.02 3.3,6.02 4.84,9.09 0.24,0.469 0.5,0.914 0.74,1.383 1.37,2.762 2.61,5.605 3.9,8.41 0.94,2.027 1.92,4.024 2.82,6.07 1.72,3.961 3.3,7.997 4.86,12.043 0.57,1.469 1.21,2.907 1.76,4.387 0.04,0.117 0.09,0.231 0.14,0.352 1.96,5.343 3.76,10.761 5.42,16.246 0.46,1.511 0.83,3.062 1.27,4.586 1.02,3.597 2.08,7.183 2.98,10.836 0.12,0.527 0.21,1.066 0.33,1.589 0.57,2.348 1.02,4.747 1.52,7.122 0.75,3.519 1.49,7.039 2.11,10.609"
         style="fill:#bdbcbc;fill-opacity:1;fill-rule:nonzero;stroke:none"
         id="path34"
         inkscape:connector-curvature="0" /><path
         d="m 4378.24,275.879 c 73.59,6.379 207.98,95.406 193.75,225.785 -13.32,122.859 -133.27,152.258 -213.7,145.281 -6.48,-0.562 -12.7,-1.359 -18.59,-2.359 -58.76,-9.922 -172.98,-58.266 -168.06,-186.652 4.82,-128.313 130.15,-185.832 202.66,-182.321 1.3,0.063 2.61,0.153 3.94,0.266 m 322.06,251.926 c 23.57,-216.953 -200.05,-365.028 -322.39,-375.629 -2.16,-0.188 -4.3,-0.336 -6.4,-0.434 -120.74,-5.82 -329.14,89.914 -337.18,303.317 -8.14,213.484 181.77,293.859 279.55,310.472 9.74,1.653 20.01,2.965 30.71,3.891 133.82,11.601 333.5,-37.195 355.71,-241.617"
         style="fill:#ffffff;fill-opacity:1;fill-rule:nonzero;stroke:none"
         id="path36"
         inkscape:connector-curvature="0" /><path
         d="m 3697.81,55.4844 -54.14,35.6562 c 60.52,-39.8554 130.34,-57.7695 182.56,-55.2539 1.94,0.0938 3.94,0.2305 5.94,0.4063 113.73,9.8554 321.6,147.504 299.69,349.18 -0.52,4.691 -1.2,9.121 -1.96,13.625 l 54.14,-35.657 c 0.76,-4.503 1.44,-8.933 1.96,-13.625 21.91,-201.675 -185.96,-339.3238 -299.69,-349.179281 -2,-0.175781 -4,-0.3125 -5.94,-0.40625 C 3828.15,-2.28516 3758.33,15.6289 3697.81,55.4844"
         style="fill:#a7a5a6;fill-opacity:1;fill-rule:nonzero;stroke:none"
         id="path38"
         inkscape:connector-curvature="0" /><g
         id="g40"><g
           id="g42"
           clip-path="url(#clipPath44)"><path
             d="m 4186,349.816 c -0.52,4.692 -1.2,9.122 -1.96,13.625 l -54.14,35.657 c 0.76,-4.504 1.44,-8.934 1.96,-13.625 0.74,-6.813 1.22,-13.551 1.45,-20.211 0.47,-13.754 -0.12,-27.188 -1.67,-40.274 -1.29,-10.89 -3.23,-21.543 -5.78,-31.941 -2.45,-10.055 -5.47,-19.871 -8.99,-29.442 -3.65,-9.957 -7.85,-19.648 -12.52,-29.062 -5.18,-10.426 -10.95,-20.512 -17.21,-30.242 -7.62,-11.844 -15.98,-23.156 -24.92,-33.906 -12.26,-14.747 -25.61,-28.434 -39.65,-40.993 -61.66,-55.1559 -136.57,-88.445 -190.4,-93.109 -2,-0.1758 -4,-0.3125 -5.94,-0.4024 -52.22,-2.5195 -122.04,15.3946 -182.56,55.25 l 54.14,-35.6562 c 60.52,-39.8555 130.34,-57.76956 182.56,-55.253931 1.94,0.09375 3.94,0.230469 5.94,0.40625 53.83,4.664061 128.74,37.953081 190.4,93.109381 14.04,12.5589 27.39,26.2459 39.65,40.9919 8.94,10.75 17.3,22.063 24.92,33.907 6.26,9.73 12.03,19.816 17.21,30.242 4.67,9.414 8.87,19.105 12.53,29.062 3.51,9.571 6.53,19.391 8.98,29.442 2.55,10.398 4.49,21.05 5.78,31.937 1.55,13.09 2.14,26.524 1.67,40.277 -0.23,6.661 -0.71,13.403 -1.45,20.211"
             style="fill:#a7a5a6;fill-opacity:1;fill-rule:nonzero;stroke:none"
             id="path48"
             inkscape:connector-curvature="0" /></g></g><path
         d="m 3998.73,276.125 54.14,-35.656 -157.13,-13.621 -54.14,35.656 157.13,13.621"
         style="fill:#a7a5a6;fill-opacity:1;fill-rule:nonzero;stroke:none"
         id="path50"
         inkscape:connector-curvature="0" /><path
         d="m 3820.78,611.301 54.14,-35.66 6.82,-114.25 -54.14,35.656 -6.82,114.254"
         style="fill:#deddde;fill-opacity:1;fill-rule:nonzero;stroke:none"
         id="path52"
         inkscape:connector-curvature="0" /><path
         d="m 3827.6,497.047 c -4.69,-0.16 -9.27,-0.43 -13.73,-0.817 -5.99,-0.519 -11.75,-1.25 -17.22,-2.199 -3.52,-0.593 -7.26,-1.343 -11.17,-2.246 -0.18,-0.043 -0.37,-0.094 -0.56,-0.137 -3.75,-0.875 -7.64,-1.894 -11.66,-3.07 -0.32,-0.098 -0.66,-0.203 -0.99,-0.301 -3.91,-1.164 -7.92,-2.468 -12,-3.929 -0.44,-0.157 -0.88,-0.325 -1.32,-0.485 -4.02,-1.465 -8.1,-3.078 -12.22,-4.851 -0.5,-0.211 -1,-0.434 -1.5,-0.653 -4.08,-1.793 -8.19,-3.738 -12.31,-5.843 -0.52,-0.274 -1.04,-0.543 -1.57,-0.817 -4.1,-2.144 -8.19,-4.453 -12.24,-6.929 -0.52,-0.317 -1.04,-0.629 -1.55,-0.95 -4.07,-2.531 -8.09,-5.246 -12.03,-8.129 -0.47,-0.339 -0.94,-0.671 -1.4,-1.015 -4,-2.977 -7.9,-6.141 -11.7,-9.496 -0.24,-0.215 -0.5,-0.391 -0.74,-0.606 -0.17,-0.152 -0.33,-0.328 -0.51,-0.484 -2.59,-2.336 -5.13,-4.766 -7.6,-7.285 -0.53,-0.547 -1.05,-1.117 -1.58,-1.672 -2.06,-2.164 -4.07,-4.399 -6.02,-6.699 -0.36,-0.418 -0.75,-0.797 -1.1,-1.219 -0.13,-0.152 -0.23,-0.332 -0.36,-0.488 -3.62,-4.383 -7.04,-9.012 -10.21,-13.903 -0.09,-0.14 -0.2,-0.258 -0.29,-0.398 -0.05,-0.067 -0.08,-0.141 -0.12,-0.207 -2.65,-4.137 -5.1,-8.485 -7.38,-12.992 -0.17,-0.336 -0.38,-0.629 -0.55,-0.965 -0.08,-0.168 -0.14,-0.36 -0.22,-0.532 -2,-4.066 -3.8,-8.308 -5.45,-12.679 -0.17,-0.438 -0.39,-0.832 -0.55,-1.274 -1.87,-5.109 -3.5,-10.429 -4.85,-15.964 l 0,0 c -0.24,-0.954 -0.4,-1.954 -0.62,-2.918 -0.35,-1.579 -0.7,-3.161 -1.01,-4.774 -0.3,-1.578 -0.56,-3.187 -0.82,-4.801 -0.26,-1.644 -0.52,-3.297 -0.73,-4.98 -0.08,-0.629 -0.21,-1.231 -0.28,-1.863 -0.09,-0.766 -0.11,-1.586 -0.18,-2.364 -0.28,-2.668 -0.49,-5.379 -0.64,-8.133 -0.07,-1.359 -0.15,-2.718 -0.2,-4.101 -0.1,-3.156 -0.1,-6.375 -0.04,-9.645 0.02,-0.789 -0.03,-1.531 -0.01,-2.328 0.02,-0.433 0.03,-0.867 0.05,-1.301 0.18,-4.816 0.61,-9.488 1.14,-14.085 0.16,-1.364 0.37,-2.696 0.55,-4.04 0.48,-3.375 1.04,-6.687 1.7,-9.941 0.25,-1.266 0.49,-2.539 0.77,-3.785 0.97,-4.301 2.05,-8.524 3.32,-12.613 0.06,-0.2 0.14,-0.383 0.2,-0.578 1.23,-3.911 2.63,-7.696 4.11,-11.415 0.47,-1.168 0.97,-2.304 1.46,-3.453 1.22,-2.855 2.52,-5.652 3.88,-8.394 0.52,-1.043 1.03,-2.102 1.57,-3.129 1.89,-3.602 3.87,-7.129 6,-10.524 0.19,-0.3 0.4,-0.582 0.59,-0.882 1.97,-3.11 4.05,-6.118 6.2,-9.051 0.71,-0.969 1.43,-1.91 2.16,-2.86 1.8,-2.351 3.66,-4.644 5.56,-6.886 0.47,-0.543 0.89,-1.133 1.36,-1.672 0.23,-0.27 0.49,-0.508 0.73,-0.777 2.75,-3.11 5.59,-6.118 8.53,-9.004 0.57,-0.563 1.16,-1.09 1.74,-1.645 2.51,-2.402 5.08,-4.723 7.71,-6.965 0.46,-0.39 0.88,-0.832 1.35,-1.218 0.4,-0.34 0.83,-0.641 1.24,-0.977 1.85,-1.531 3.74,-3.008 5.65,-4.461 0.88,-0.676 1.76,-1.375 2.65,-2.035 2.81,-2.063 5.64,-4.063 8.52,-5.957 l 54.14,-35.656 c -2.88,1.898 -5.72,3.894 -8.52,5.961 -0.89,0.652 -1.76,1.347 -2.63,2.015 -1.92,1.461 -3.82,2.945 -5.68,4.481 -0.87,0.714 -1.72,1.453 -2.57,2.183 -2.63,2.25 -5.21,4.574 -7.73,6.988 -0.57,0.543 -1.16,1.071 -1.73,1.625 -2.93,2.883 -5.77,5.895 -8.53,9.004 -0.71,0.809 -1.4,1.645 -2.1,2.465 -1.9,2.235 -3.75,4.524 -5.55,6.871 -0.72,0.95 -1.45,1.895 -2.16,2.864 -2.16,2.945 -4.25,5.961 -6.22,9.078 -0.19,0.289 -0.39,0.558 -0.57,0.847 -2.12,3.403 -4.11,6.926 -6,10.532 -0.54,1.027 -1.05,2.086 -1.57,3.129 -1.36,2.742 -2.66,5.543 -3.88,8.398 -0.49,1.145 -0.99,2.281 -1.45,3.445 -1.49,3.719 -2.89,7.508 -4.12,11.418 -0.06,0.196 -0.14,0.383 -0.2,0.578 -1.27,4.086 -2.35,8.309 -3.32,12.606 -0.28,1.25 -0.52,2.527 -0.77,3.797 -0.66,3.254 -1.22,6.57 -1.7,9.941 -0.18,1.344 -0.39,2.676 -0.55,4.035 -0.53,4.598 -0.96,9.27 -1.14,14.086 -0.05,1.227 -0.01,2.403 -0.04,3.617 -0.06,3.274 -0.06,6.504 0.04,9.668 0.05,1.375 0.13,2.727 0.2,4.082 0.15,2.758 0.36,5.473 0.64,8.141 0.14,1.414 0.28,2.84 0.46,4.231 0.21,1.675 0.47,3.32 0.73,4.96 0.26,1.622 0.52,3.239 0.82,4.829 0.31,1.605 0.66,3.179 1.01,4.753 0.48,2.161 1.08,4.223 1.65,6.317 0.84,3.109 1.76,6.148 2.77,9.121 0.54,1.574 1.02,3.191 1.6,4.727 1.65,4.375 3.45,8.621 5.45,12.683 0.25,0.504 0.52,0.988 0.77,1.485 2.28,4.507 4.72,8.863 7.38,13 0.13,0.207 0.28,0.402 0.41,0.609 3.17,4.887 6.59,9.512 10.21,13.894 0.48,0.582 0.98,1.145 1.46,1.715 1.96,2.301 3.96,4.532 6.02,6.696 0.53,0.554 1.05,1.125 1.58,1.671 2.47,2.52 5.01,4.95 7.6,7.282 0.41,0.375 0.84,0.726 1.26,1.097 3.79,3.352 7.7,6.52 11.69,9.493 0.46,0.343 0.93,0.675 1.39,1.015 3.95,2.887 7.97,5.598 12.04,8.129 0.51,0.32 1.03,0.637 1.55,0.949 4.05,2.477 8.14,4.785 12.24,6.93 0.52,0.273 1.05,0.547 1.57,0.816 4.11,2.106 8.23,4.051 12.31,5.84 0.5,0.223 1,0.446 1.5,0.66 4.13,1.774 8.22,3.387 12.25,4.856 0.42,0.156 0.85,0.316 1.27,0.469 4.09,1.464 8.11,2.773 12.02,3.937 0.33,0.098 0.67,0.203 0.99,0.301 4.02,1.176 7.92,2.195 11.66,3.07 0.18,0.043 0.38,0.094 0.56,0.137 3.91,0.902 7.65,1.652 11.17,2.246 5.47,0.949 11.23,1.68 17.23,2.199 4.45,0.387 9.03,0.656 13.72,0.817 l -54.14,35.656"
         style="fill:#bdbcbc;fill-opacity:1;fill-rule:nonzero;stroke:none"
         id="path54"
         inkscape:connector-curvature="0" /><path
         d="m 3801.19,610.086 c 6.38,0.551 12.92,0.961 19.59,1.215 l 6.82,-114.254 c -4.69,-0.16 -9.27,-0.43 -13.73,-0.817 -5.99,-0.519 -11.75,-1.25 -17.22,-2.199 -54.62,-9.222 -160.8,-54.16 -156.23,-173.426 4.57,-119.351 120.99,-172.832 188.48,-169.558 1.21,0.058 2.42,0.141 3.67,0.246 50.79,4.402 132.77,51.285 166.16,124.832 l -157.13,-13.621 -6.63,111.031 172.37,14.942 87.41,7.574 35.15,3.047 c 0.76,-4.504 1.44,-8.934 1.96,-13.625 21.91,-201.676 -185.96,-339.3246 -299.69,-349.18 -2,-0.1758 -4,-0.3125 -5.94,-0.4063 -112.25,-5.4062 -305.89,83.5933 -313.45,282.0473 -7.56,198.367 169.06,273.093 259.87,288.527 9.04,1.543 18.59,2.762 28.54,3.625"
         style="fill:#ffffff;fill-opacity:1;fill-rule:nonzero;stroke:none"
         id="path56"
         inkscape:connector-curvature="0" /><path
         d="m 4907.07,698.004 -45.85,-418.637 -136.73,11.27 45.84,418.636 136.74,-11.269"
         style="fill:#ffffff;fill-opacity:1;fill-rule:nonzero;stroke:none"
         id="path58"
         inkscape:connector-curvature="0" /><path
         d="m 4907.07,698.004 50.97,-47.594 -45.84,-418.633 -50.98,47.59 45.85,418.637"
         style="fill:#deddde;fill-opacity:1;fill-rule:nonzero;stroke:none"
         id="path60"
         inkscape:connector-curvature="0" /><path
         d="m 4861.22,279.367 50.98,-47.59 -136.74,11.27 -50.97,47.59 136.73,-11.27"
         style="fill:#a7a5a6;fill-opacity:1;fill-rule:nonzero;stroke:none"
         id="path62"
         inkscape:connector-curvature="0" /><path
         d="M 4851.45,202.137 4836.4,64.6875 4699.66,75.957 l 15.05,137.449 136.74,-11.269"
         style="fill:#ffffff;fill-opacity:1;fill-rule:nonzero;stroke:none"
         id="path64"
         inkscape:connector-curvature="0" /><path
         d="m 4851.45,202.137 50.97,-47.594 -15.05,-137.4492 -50.97,47.5937 15.05,137.4495"
         style="fill:#deddde;fill-opacity:1;fill-rule:nonzero;stroke:none"
         id="path66"
         inkscape:connector-curvature="0" /><path
         d="M 4836.4,64.6875 4887.37,17.0938 4750.63,28.3633 4699.66,75.957 4836.4,64.6875"
         style="fill:#a7a5a6;fill-opacity:1;fill-rule:nonzero;stroke:none"
         id="path68"
         inkscape:connector-curvature="0" /></g></g></svg>