<svg id="Layer_1" data-name="Layer 1" xmlns="http://www.w3.org/2000/svg" viewBox="0 0 36.63 21.86"><defs><style>.cls-1{fill:#323232;}</style></defs><title>Menu (2 pkt.)</title><path class="cls-1" d="M38.9,21.58H4.27a1,1,0,1,0,0,2H38.9A1,1,0,0,0,38.9,21.58Z" transform="translate(-3.27 -11.58)"/><path class="cls-1" d="M28.9,31.44H4.27a1,1,0,1,0,0,2H28.9A1,1,0,0,0,28.9,31.44Z" transform="translate(-3.27 -11.58)"/><path class="cls-1" d="M4.27,13.58H38.9a1,1,0,0,0,0-2H4.27A1,1,0,1,0,4.27,13.58Z" transform="translate(-3.27 -11.58)"/></svg>