<svg id="Layer_1" data-name="Layer 1" xmlns="http://www.w3.org/2000/svg" viewBox="0 0 40.53 34.86"><defs><style>.cls-1{fill:#323232;}</style></defs><title>Profil (2 pkt.)</title><path class="cls-1" d="M41.43,34.33c0.11-3.26-8.35-5.93-13.94-7.34A12,12,0,0,0,33.2,16.76V15.87a12,12,0,0,0-24.08,0v0.89A12,12,0,0,0,14.84,27C9.25,28.4.79,31.07,0.9,34.3v2.11a2.28,2.28,0,0,0,2.28,2.28h36a2.28,2.28,0,0,0,2.27-2.27V34.33ZM11.12,16.76V15.87a10,10,0,0,1,20.08,0v0.89A10,10,0,0,1,11.12,16.76ZM39.53,36.42a0.37,0.37,0,0,1-.37.37h-36a0.38,0.38,0,0,1-.38-0.38V34.27c0-1.4,6.87-4.19,14.85-6a12,12,0,0,0,7,0c8,1.8,14.9,4.59,14.85,6v2.12Z" transform="translate(-0.9 -3.83)"/></svg>