<?xml version="1.0" encoding="UTF-8" standalone="no"?>
<!-- Generator: Adobe Illustrator 22.0.1, SVG Export Plug-In . SVG Version: 6.00 Build 0)  -->

<svg
   xmlns:dc="http://purl.org/dc/elements/1.1/"
   xmlns:cc="http://creativecommons.org/ns#"
   xmlns:rdf="http://www.w3.org/1999/02/22-rdf-syntax-ns#"
   xmlns:svg="http://www.w3.org/2000/svg"
   xmlns="http://www.w3.org/2000/svg"
   xmlns:sodipodi="http://sodipodi.sourceforge.net/DTD/sodipodi-0.dtd"
   xmlns:inkscape="http://www.inkscape.org/namespaces/inkscape"
   version="1.1"
   id="Layer_1"
   x="0px"
   y="0px"
   viewBox="0 0 67.199996 61.200001"
   xml:space="preserve"
   sodipodi:docname="round_arrow_right.svg"
   width="67.199997"
   height="61.200001"
   inkscape:version="0.92.3 (2405546, 2018-03-11)"><metadata
   id="metadata956"><rdf:RDF><cc:Work
       rdf:about=""><dc:format>image/svg+xml</dc:format><dc:type
         rdf:resource="http://purl.org/dc/dcmitype/StillImage" /><dc:title></dc:title></cc:Work></rdf:RDF></metadata><defs
   id="defs954" /><sodipodi:namedview
   pagecolor="#ffffff"
   bordercolor="#666666"
   borderopacity="1"
   objecttolerance="10"
   gridtolerance="10"
   guidetolerance="10"
   inkscape:pageopacity="0"
   inkscape:pageshadow="2"
   inkscape:window-width="2560"
   inkscape:window-height="1413"
   id="namedview952"
   showgrid="false"
   inkscape:pagecheckerboard="true"
   fit-margin-top="0"
   fit-margin-left="0"
   fit-margin-right="0"
   fit-margin-bottom="0"
   inkscape:zoom="3.1972111"
   inkscape:cx="-8.2614639"
   inkscape:cy="11.95464"
   inkscape:window-x="1360"
   inkscape:window-y="27"
   inkscape:window-maximized="1"
   inkscape:current-layer="Layer_1" />
<style
   type="text/css"
   id="style943">
	.st0{fill:#FFFFFF;}
	.st1{fill:#7C7364;}
</style>
<path
   class="st0"
   d="M 67.2,33.6 C 67.2,50.5 50.5,61.2 33.6,61.2 16.7,61.2 0,50.5 0,33.6 0,16.7 16.7,0 33.6,0 50.5,0 67.2,16.7 67.2,33.6 Z"
   id="path945"
   inkscape:connector-curvature="0"
   style="fill:#ffffff" />
<g
   id="g949"
   transform="translate(-16.4,-4.9)">
	<path
   class="st1"
   d="m 59.8,36.8 c -0.1,0.1 -0.1,0.3 -0.3,0.4 -0.1,0.1 -0.2,0.2 -0.3,0.3 -0.2,0.2 -0.4,0.4 -0.6,0.6 -3.1,3.4 -9.3,10 -11.8,12.4 -0.4,0.4 -1.1,0.5 -1.6,0.1 -0.7,-0.6 -1.7,-1.5 -2.3,-2.1 -0.4,-0.5 -0.4,-1.2 0,-1.6 1.8,-2 6.5,-7 9.9,-10.5 -3.6,-3.4 -8.5,-8.2 -10.4,-10.1 -0.4,-0.5 -0.5,-1.2 0,-1.6 0.6,-0.7 1.5,-1.6 2.2,-2.2 0.5,-0.4 1.1,-0.4 1.6,0 2.6,2.3 9.1,8.6 12.4,11.9 l 0.5,0.5 c 0.1,0.1 0.3,0.3 0.4,0.4 v 0 c 0.1,0.1 0.1,0.1 0.2,0.2 0.2,0.3 0.2,0.8 0.1,1.3 z"
   id="path947"
   inkscape:connector-curvature="0"
   style="fill:#7c7364" />
</g>
</svg>