<svg id="Layer_1" data-name="Layer 1" xmlns="http://www.w3.org/2000/svg" viewBox="0 0 18.77 29.78"><defs><style>.cls-1{fill:#323232;}</style></defs><title>Pil_1 (Højre)</title><path class="cls-1" d="M30.74,21.19a1.25,1.25,0,0,0-.19-0.25l-0.22-.24-0.28-.27L29.57,20c-3.45-3.43-9.82-9.6-12.37-11.88a1.71,1.71,0,0,0-2.27,0,27.32,27.32,0,0,0-2.23,2.29,1.69,1.69,0,0,0,.07,2.3c1.75,1.8,6.35,6.26,10,9.73-3.33,3.45-7.84,8.23-9.56,10.17a1.7,1.7,0,0,0,0,2.3A27.49,27.49,0,0,0,15.58,37a1.7,1.7,0,0,0,1.06.37,1.72,1.72,0,0,0,1.2-.49c2.56-2.5,8.81-9.14,11.83-12.43l0.89-1a2,2,0,0,0,.34-0.56h0A2,2,0,0,0,30.74,21.19Z" transform="translate(-12.27 -7.63)"/></svg>