<?xml version="1.0" encoding="UTF-8" standalone="no"?>
<svg
   xmlns:dc="http://purl.org/dc/elements/1.1/"
   xmlns:cc="http://creativecommons.org/ns#"
   xmlns:rdf="http://www.w3.org/1999/02/22-rdf-syntax-ns#"
   xmlns:svg="http://www.w3.org/2000/svg"
   xmlns="http://www.w3.org/2000/svg"
   xmlns:sodipodi="http://sodipodi.sourceforge.net/DTD/sodipodi-0.dtd"
   xmlns:inkscape="http://www.inkscape.org/namespaces/inkscape"
   id="Layer_1"
   data-name="Layer 1"
   viewBox="0 0 18.77 29.78"
   version="1.1"
   sodipodi:docname="arrow_right_white.svg"
   inkscape:version="0.92.3 (2405546, 2018-03-11)">
  <metadata
     id="metadata4699">
    <rdf:RDF>
      <cc:Work
         rdf:about="">
        <dc:format>image/svg+xml</dc:format>
        <dc:type
           rdf:resource="http://purl.org/dc/dcmitype/StillImage" />
        <dc:title>Pil_1 (Højre)</dc:title>
      </cc:Work>
    </rdf:RDF>
  </metadata>
  <sodipodi:namedview
     pagecolor="#ffffff"
     bordercolor="#666666"
     borderopacity="1"
     objecttolerance="10"
     gridtolerance="10"
     guidetolerance="10"
     inkscape:pageopacity="0"
     inkscape:pageshadow="2"
     inkscape:window-width="2560"
     inkscape:window-height="1413"
     id="namedview4697"
     showgrid="false"
     inkscape:zoom="41.168569"
     inkscape:cx="9.3850002"
     inkscape:cy="14.89"
     inkscape:window-x="1360"
     inkscape:window-y="27"
     inkscape:window-maximized="1"
     inkscape:current-layer="Layer_1" />
  <defs
     id="defs4690">
    <style
       id="style4688">.cls-1{fill:#323232;}</style>
  </defs>
  <title
     id="title4692">Pil_1 (Højre)</title>
  <path
     class="cls-1"
     d="M30.74,21.19a1.25,1.25,0,0,0-.19-0.25l-0.22-.24-0.28-.27L29.57,20c-3.45-3.43-9.82-9.6-12.37-11.88a1.71,1.71,0,0,0-2.27,0,27.32,27.32,0,0,0-2.23,2.29,1.69,1.69,0,0,0,.07,2.3c1.75,1.8,6.35,6.26,10,9.73-3.33,3.45-7.84,8.23-9.56,10.17a1.7,1.7,0,0,0,0,2.3A27.49,27.49,0,0,0,15.58,37a1.7,1.7,0,0,0,1.06.37,1.72,1.72,0,0,0,1.2-.49c2.56-2.5,8.81-9.14,11.83-12.43l0.89-1a2,2,0,0,0,.34-0.56h0A2,2,0,0,0,30.74,21.19Z"
     transform="translate(-12.27 -7.63)"
     id="path4694"
     style="fill:#fffff6;fill-opacity:1" />
</svg>
