<svg id="Layer_1" data-name="Layer 1" xmlns="http://www.w3.org/2000/svg" viewBox="0 0 34.67 34.67"><defs><style>.cls-1{fill:#323232;}</style></defs><title>Hjælp (2 pkt.)</title><path class="cls-1" d="M21.31,3.93A17.33,17.33,0,1,0,38.65,21.26,17.35,17.35,0,0,0,21.31,3.93Zm0,32.67A15.33,15.33,0,1,1,36.65,21.26,15.35,15.35,0,0,1,21.31,36.59Z" transform="translate(-3.98 -3.93)"/><path class="cls-1" d="M21.22,12.58a8.61,8.61,0,0,0-1.78.22,10.22,10.22,0,0,0-1.63.56,1,1,0,1,0,.79,1.78,7.44,7.44,0,0,1,1.12-.42,6.09,6.09,0,0,1,1.49-.2,2.86,2.86,0,0,1,2.08.65A2.33,2.33,0,0,1,24.08,17a2.76,2.76,0,0,1-.26,1.29,4.07,4.07,0,0,1-1,1.2l-1,.89a6.55,6.55,0,0,0-1.6,2,5.59,5.59,0,0,0-.41,2.42l0,0.9,1.9,0V24.9a4.3,4.3,0,0,1,.12-1.32,2.78,2.78,0,0,1,.45-0.88,7,7,0,0,1,1-1l1.11-1a6.59,6.59,0,0,0,.91-1,4.36,4.36,0,0,0,.6-1.18,4.43,4.43,0,0,0,.2-1.47,4.36,4.36,0,0,0-1.37-3.3A5,5,0,0,0,21.22,12.58Z" transform="translate(-3.98 -3.93)"/><path class="cls-1" d="M20.91,27.64a1.47,1.47,0,0,0,0,2.95h0A1.47,1.47,0,0,0,20.91,27.64Z" transform="translate(-3.98 -3.93)"/></svg>