<svg version="1.0" xmlns="http://www.w3.org/2000/svg"
  viewBox="0 0 3508.000000 55.000000"><g transform="translate(0.000000,236.000000) scale(0.100000,-0.100000)"
class="organic-svg" stroke="none"><path d="M133 2353 l-133 -4 0 -1174 0 -1175 17540 0 17540 0 0 1181 c0 1098
-1 1181 -17 1175 -42 -17 -428 -109 -603 -145 -500 -102 -904 -152 -1408 -173
-418 -17 -776 2 -1332 72 -761 96 -1217 103 -2140 35 -509 -37 -818 -48 -1170
-42 -412 8 -596 22 -1365 102 -634 65 -1209 101 -1985 125 -1015 31 -3941 37
-4925 11 -1168 -32 -1888 -62 -3135 -131 -877 -49 -1107 -59 -1480 -70 -552
-15 -1005 6 -1400 66 -663 100 -943 124 -1422 124 -303 0 -474 -10 -783 -46
-606 -69 -587 -68 -985 -67 -367 0 -502 6 -3060 120 -478 21 -1130 23 -1685 4
-326 -11 -553 -12 -1015 -5 -732 11 -1168 9 -1585 -6 -485 -19 -1379 -16
-1720 5 -270 17 -1370 28 -1732 18z"/></g></svg>
