<?xml version="1.0" encoding="utf-8"?>
<!-- Generator: Adobe Illustrator 22.0.1, SVG Export Plug-In . SVG Version: 6.00 Build 0)  -->
<svg version="1.1" id="Layer_1" xmlns="http://www.w3.org/2000/svg" xmlns:xlink="http://www.w3.org/1999/xlink" x="0px" y="0px"
	 viewBox="0 0 100.4 70" style="enable-background:new 0 0 100.4 70;" xml:space="preserve">
<style type="text/css">
	.st0{fill:#FFFFFF;}
	.st1{fill:#7C7364;}
</style>
<path class="st0" d="M83.6,38.5c0,16.9-16.7,27.6-33.6,27.6S16.4,55.4,16.4,38.5S33.1,4.9,50,4.9S83.6,21.6,83.6,38.5z"/>
<g>
	<path class="st1" d="M59.8,36.8c-0.1,0.1-0.1,0.3-0.3,0.4c-0.1,0.1-0.2,0.2-0.3,0.3c-0.2,0.2-0.4,0.4-0.6,0.6
		c-3.1,3.4-9.3,10-11.8,12.4c-0.4,0.4-1.1,0.5-1.6,0.1c-0.7-0.6-1.7-1.5-2.3-2.1c-0.4-0.5-0.4-1.2,0-1.6c1.8-2,6.5-7,9.9-10.5
		c-3.6-3.4-8.5-8.2-10.4-10.1c-0.4-0.5-0.5-1.2,0-1.6c0.6-0.7,1.5-1.6,2.2-2.2c0.5-0.4,1.1-0.4,1.6,0c2.6,2.3,9.1,8.6,12.4,11.9
		l0.5,0.5c0.1,0.1,0.3,0.3,0.4,0.4l0,0c0.1,0.1,0.1,0.1,0.2,0.2C59.9,35.8,59.9,36.3,59.8,36.8z"/>
</g>
</svg>
