<?xml version="1.0" encoding="utf-8"?>
<!-- Generator: Adobe Illustrator 22.0.1, SVG Export Plug-In . SVG Version: 6.00 Build 0)  -->
<svg version="1.1" id="Layer_1" xmlns="http://www.w3.org/2000/svg" xmlns:xlink="http://www.w3.org/1999/xlink" x="0px" y="0px"
	 viewBox="0 0 100.4 70" style="enable-background:new 0 0 100.4 70;" xml:space="preserve">
<style type="text/css">
	.st0{fill:#FFFFFF;}
	.st1{fill:#7C7364;}
</style>
<path class="st0" d="M50,4.9c16.9,0,33.6,16.7,33.6,33.6S66.9,66.1,50,66.1S16.4,55.4,16.4,38.5S33.1,4.9,50,4.9z"/>
<g>
	<path class="st1" d="M40.3,35.5c0.1-0.1,0.1-0.1,0.2-0.2l0,0c0.1-0.1,0.3-0.3,0.4-0.4l0.5-0.5c3.3-3.3,9.8-9.6,12.4-11.9
		c0.5-0.4,1.1-0.4,1.6,0c0.7,0.6,1.6,1.5,2.2,2.2c0.5,0.4,0.4,1.1,0,1.6c-1.9,1.9-6.8,6.7-10.4,10.1c3.4,3.5,8.1,8.5,9.9,10.5
		c0.4,0.4,0.4,1.1,0,1.6c-0.6,0.6-1.6,1.5-2.3,2.1c-0.5,0.4-1.2,0.3-1.6-0.1c-2.5-2.4-8.7-9-11.8-12.4c-0.2-0.2-0.4-0.4-0.6-0.6
		c-0.1-0.1-0.2-0.2-0.3-0.3c-0.2-0.1-0.2-0.3-0.3-0.4C40.1,36.3,40.1,35.8,40.3,35.5z"/>
</g>
</svg>
