<?xml version="1.0" standalone="no"?>
<!DOCTYPE svg PUBLIC "-//W3C//DTD SVG 1.1//EN" "http://www.w3.org/Graphics/SVG/1.1/DTD/svg11.dtd" >
<svg xmlns="http://www.w3.org/2000/svg">
<metadata>Generated by IcoMoon</metadata>
<defs>
<font id="icomoon" horiz-adv-x="1024">
<font-face units-per-em="1024" ascent="960" descent="-64" />
<missing-glyph horiz-adv-x="1024" />
<glyph unicode="&#x20;" horiz-adv-x="512" d="" />
<glyph unicode="&#xe900;" glyph-name="star" d="M512 845.002l93.389-200.704 226.099-24.576-167.936-148.275 45.875-216.269-197.427 108.954-197.427-108.954 45.875 216.269-167.936 148.275 226.099 24.576 93.389 200.704z" />
<glyph unicode="&#xe901;" glyph-name="check" d="M364.29 556.743c-7.25 7.25-7.25 19.030 0 25.373 3.625 3.625 8.156 5.437 12.687 5.437s9.062-1.812 12.687-5.437l71.589-71.589 173.083 173.083c3.625 3.625 8.156 5.437 12.687 5.437s9.968-1.812 12.687-5.437c7.25-7.25 7.25-18.124 0-25.373l-199.363-199.363-96.057 97.869zM461.253 472.467l-90.619 90.619c-3.625 3.625-3.625 9.062 0 12.687s9.062 3.625 12.687 0l77.933-77.933 180.333 180.333c3.625 3.625 9.062 3.625 12.687 0s3.625-9.062 0-12.687l-193.019-193.019z" />
<glyph unicode="&#xe902;" glyph-name="untitled" d="M521.968 284.885c-51.653 0-94.244 39.873-99.681 90.619h-88.807c-9.968 0-39.873 0-52.559 22.655-11.781 23.561 5.437 46.216 21.749 67.965 2.719 3.625 5.437 7.25 9.062 11.781 16.312 21.749 37.154 48.028 37.154 74.308v111.462c0 102.4 75.214 183.051 171.271 183.051 96.963 0 172.177-80.651 172.177-183.051v-110.556c0-32.623 26.28-64.34 45.31-87.901 19.030-22.655 36.248-43.497 25.373-67.058-10.874-22.655-39.873-22.655-50.747-22.655h-90.619c-5.437-50.747-48.028-90.619-99.681-90.619zM462.159 376.411c5.437-28.092 29.904-48.935 58.903-48.935 28.092 0 52.559 20.842 57.996 48.935h-116.899zM695.958 429.876c0 0-0.906 0.906 0 0-28.092 33.529-57.996 73.402-57.996 122.336v111.462c0 72.496-51.653 128.68-117.805 128.68-65.246 0-116.899-56.184-116.899-128.68v-111.462c0-43.497-28.092-81.558-48.935-108.743-2.719-3.625-5.437-7.25-8.156-9.968-0.906-0.906-1.812-2.719-2.719-3.625h352.51z" />
<glyph unicode="&#xe903;" glyph-name="untitled2" d="M730.393 459.781c-19.936 24.467-47.122 57.996-47.122 93.338v110.556c0 96.057-71.589 173.989-163.115 173.989s-162.209-77.933-162.209-173.989v-111.462c0-34.435-29.904-67.058-48.028-91.526-17.218-22.655-29.904-40.779-20.842-57.996 8.156-15.405 28.092-18.124 44.404-18.124h97.869c0-49.841 40.779-90.619 90.619-90.619s90.619 40.779 90.619 90.619h99.681c9.968 0 34.435 0 42.591 17.218 8.156 18.124-5.437 35.342-24.467 57.996zM521.062 329.288c-30.811 0-55.278 24.467-55.278 55.278h109.65c0-29.904-24.467-55.278-54.372-55.278zM711.363 420.814h-378.789c-2.719 0-4.531 0-6.343 0 3.625 5.437 9.062 12.687 12.687 18.124 20.842 28.092 55.278 67.058 55.278 113.274v111.462c0 76.12 54.372 137.742 125.961 137.742s126.867-61.621 126.867-137.742v-111.462c0-48.028 31.717-87.901 55.278-115.993 3.625-4.531 9.062-10.874 12.687-15.405-0.906 0-2.719 0-3.625 0z" />
<glyph unicode="&#xe904;" glyph-name="untitled3" d="M557.31 696.297c0-108.604-88.041-196.644-196.644-196.644s-196.644 88.041-196.644 196.644c0 108.604 88.041 196.644 196.644 196.644s196.644-88.041 196.644-196.644z" />
<glyph unicode="&#xe905;" glyph-name="Notification" d="M521.968 284.885c-51.653 0-94.244 39.873-99.681 90.619h-88.807c-9.968 0-39.873 0-52.559 22.655-11.781 23.561 5.437 46.216 21.749 67.965 2.719 3.625 5.437 7.25 9.062 11.781 16.312 21.749 37.154 48.028 37.154 74.308v111.462c0 102.4 75.214 183.051 171.271 183.051 96.963 0 172.177-80.651 172.177-183.051v-110.556c0-32.623 26.28-64.34 45.31-87.901 19.030-22.655 36.248-43.497 25.373-67.058-10.874-22.655-39.873-22.655-50.747-22.655h-90.619c-5.437-50.747-48.028-90.619-99.681-90.619zM462.159 376.411c5.437-28.092 29.904-48.935 58.903-48.935 28.092 0 52.559 20.842 57.996 48.935h-116.899zM695.958 429.876c0 0-0.906 0.906 0 0-28.092 33.529-57.996 73.402-57.996 122.336v111.462c0 72.496-51.653 128.68-117.805 128.68-65.246 0-116.899-56.184-116.899-128.68v-111.462c0-43.497-28.092-81.558-48.935-108.743-2.719-3.625-5.437-7.25-8.156-9.968-0.906-0.906-1.812-2.719-2.719-3.625h352.51zM730.393 459.781c-19.936 24.467-47.122 57.996-47.122 93.338v110.556c0 96.057-71.589 173.989-163.115 173.989s-162.209-77.933-162.209-173.989v-111.462c0-34.435-29.904-67.058-48.028-91.526-17.218-22.655-29.904-40.779-20.842-57.996 8.156-15.405 28.092-18.124 44.404-18.124h97.869c0-49.841 40.779-90.619 90.619-90.619s90.619 40.779 90.619 90.619h99.681c9.968 0 34.435 0 42.591 17.218 8.156 18.124-5.437 35.342-24.467 57.996zM521.062 329.288c-30.811 0-55.278 24.467-55.278 55.278h109.65c0-29.904-24.467-55.278-54.372-55.278zM711.363 420.814h-378.789c-2.719 0-4.531 0-6.343 0 3.625 5.437 9.062 12.687 12.687 18.124 20.842 28.092 55.278 67.058 55.278 113.274v111.462c0 76.12 54.372 137.742 125.961 137.742s126.867-61.621 126.867-137.742v-111.462c0-48.028 31.717-87.901 55.278-115.993 3.625-4.531 9.062-10.874 12.687-15.405-0.906 0-2.719 0-3.625 0z" />
<glyph unicode="&#xe906;" glyph-name="eReolen_Symbol" d="M529.382 542.139c-58.686 0-97.065-42.681-97.065-98.27 0-56.965 40.444-98.27 102.228-98.27 14.973 0 33.732 3.098 47.328 9.466l-7.4 22.029c-13.424-4.303-25.987-6.884-40.616-6.884-42.165 0-74.692 27.192-74.692 73.659 0 43.197 27.536 74.52 69.185 74.52 43.197 0 63.505-21.168 55.933-56.621 0 0-4.13-21.513-33.043-34.936v0c-4.13-1.893-4.13-1.893-10.326-4.475s-18.759-5.335-26.159-5.335c-8.605 0-8.433 4.647-7.572 10.326l0.861 4.475c4.475 1.205 6.884 1.721 18.587 5.335 26.159 8.089 37.346 17.898 37.346 35.109 0 15.489-12.391 24.955-30.806 24.955-28.913 0-39.583-13.768-43.714-36.485l-5.163-29.085c-3.614-20.136 1.549-35.109 27.020-35.109 8.949 0 18.587 1.377 27.364 3.786 67.636 17.554 72.799 62.128 72.971 63.333 6.54 40.788-25.815 78.478-82.264 78.478zM513.549 462.801c1.549 9.121 6.884 15.661 17.726 15.661 6.368 0 9.982-3.098 9.982-7.4 0-6.368-4.475-10.498-15.145-13.768-9.638-2.926-11.014-3.27-14.456-4.303l1.893 9.81z" />
<glyph unicode="&#xe907;" glyph-name="ArrowDown" d="M512-62.72l513.536 1022.72h-1026.304z" />
<glyph unicode="&#xe908;" glyph-name="eReolen_Logo" d="M296.013 408.761h-25.127v-59.203h-43.025v190.688h79.338c46.467 0 63.505-18.415 63.505-54.040v-23.406c0-23.75-8.605-39.755-27.708-47.844l46.123-65.226h-50.942l-42.165 59.031zM327.68 482.076c0 14.284-5.507 19.964-22.889 19.964h-34.076v-56.105h34.076c18.415 0 22.889 6.54 22.889 20.824v15.317zM434.555 404.803v-3.958c0-16.005 6.368-20.308 25.127-20.308 12.908 0 30.118 2.237 42.337 6.024l6.024-30.978c-12.563-4.647-32.871-8.949-52.491-8.949-45.263 0-62.473 22.373-62.473 56.793v32.699c0 30.118 13.424 55.761 59.891 55.761s56.449-27.536 56.449-57.826v-29.257h-74.864zM470.696 441.804c0 9.81-2.926 17.726-17.21 17.726s-18.931-8.089-18.931-17.726v-6.024h36.141v6.024zM525.424 403.082v32.355c0 28.569 13.424 56.449 62.989 56.449s62.989-27.708 62.989-56.449v-32.355c0-28.569-13.424-56.449-62.989-56.449s-62.989 27.88-62.989 56.449zM610.097 401.877v34.592c0 13.252-6.884 20.652-21.685 20.652s-21.685-7.4-21.685-20.652v-34.592c0-13.252 6.884-20.652 21.685-20.652s21.685 7.572 21.685 20.652zM674.291 349.558v196.367l41.304 5.679v-202.218h-41.304zM779.617 404.803v-3.958c0-16.005 6.368-20.308 25.127-20.308 12.908 0 30.118 2.237 42.337 6.024l6.024-30.978c-12.563-4.647-32.871-8.949-52.491-8.949-45.263 0-62.473 22.373-62.473 56.793v32.699c0 30.118 13.424 55.761 59.891 55.761s56.449-27.536 56.449-57.826v-29.257h-74.864zM815.758 441.804c0 9.81-2.926 17.726-17.21 17.726s-18.931-8.089-18.931-17.726v-6.024h36.141v6.024zM958.946 349.558v92.246c0 6.368-2.926 9.982-9.982 9.982-7.4 0-21.168-5.163-30.118-9.982v-92.246h-41.304v139.402h30.634l4.303-10.67c17.21 8.261 39.583 13.424 55.589 13.424 23.75 0 32.011-17.726 32.011-44.746v-97.581h-41.132zM121.503 542.139c-58.686 0-97.065-42.681-97.065-98.27 0-56.965 40.444-98.27 102.228-98.27 14.973 0 33.732 3.098 47.328 9.466l-7.4 22.029c-13.424-4.303-25.987-6.884-40.616-6.884-42.165 0-74.692 27.192-74.692 73.659 0 43.197 27.536 74.52 69.185 74.52 43.197 0 63.505-21.168 55.933-56.621 0 0-4.13-21.513-33.043-34.936v0c-4.13-1.893-4.13-1.893-10.326-4.475s-18.759-5.335-26.159-5.335c-8.605 0-8.433 4.647-7.572 10.326l0.861 4.475c4.475 1.205 6.884 1.721 18.587 5.335 26.159 8.089 37.346 17.898 37.346 35.109 0 15.489-12.391 24.955-30.806 24.955-28.913 0-39.583-13.768-43.714-36.485l-5.163-29.085c-3.614-20.136 1.549-35.109 27.020-35.109 8.949 0 18.587 1.377 27.364 3.786 67.636 17.554 72.799 62.128 72.971 63.333 6.54 40.788-25.815 78.478-82.264 78.478zM105.67 462.801c1.549 9.121 6.884 15.661 17.726 15.661 6.368 0 9.982-3.098 9.982-7.4 0-6.368-4.475-10.498-15.145-13.768-9.638-2.926-11.014-3.27-14.456-4.303l1.893 9.81z" />
<glyph unicode="&#xe909;" glyph-name="btn_play" d="M512.572-64c-282.601 0-512.572 229.971-512.572 511.428 0 282.601 229.971 512.572 512.572 512.572s512.572-229.971 512.572-512.572c-1.144-281.457-231.115-511.428-512.572-511.428zM512.572 931.397c-266.583 0-482.825-217.385-482.825-482.825s216.241-483.969 482.825-483.969 482.825 217.385 482.825 482.825-217.385 483.969-482.825 483.969zM731.102 437.131l-347.817-200.223v399.303l347.817-199.079z" />
<glyph unicode="&#xe90a;" glyph-name="facebook" d="M446.44 817.546c32.132 30.596 77.836 40.93 120.95 42.218 45.598 0.41 91.178 0.162 136.776 0.144 0.18-48.102 0.196-96.222-0.018-144.322-29.468 0.052-58.956-0.072-88.424 0.052-18.686 1.164-37.874-13-41.27-31.524-0.448-32.186-0.162-64.39-0.144-96.578 43.22-0.178 86.44 0.054 129.658-0.108-3.164-46.562-8.94-92.912-15.716-139.082-38.176-0.358-76.374 0.036-114.548-0.198-0.34-137.33 0.178-274.66-0.268-411.99-56.704-0.232-113.442 0.108-170.144-0.16-1.074 137.348 0.088 274.766-0.59 412.132-27.664 0.288-55.344-0.198-83.006 0.232 0.106 46.17 0.036 92.338 0.052 138.492 27.644 0.338 55.308-0.072 82.954 0.196 0.84 44.884-0.842 89.82 0.876 134.666 2.772 35.516 16.308 71.298 42.862 95.83z" />
<glyph unicode="&#xe90b;" glyph-name="Forfatterweb" d="M8.204 536.249c-5.005-28.797-8.204-58.265-8.204-88.404 0-26.010 2.528-51.298 6.45-76.379 18.627 13.521 40.194 27.868 64.961 42.731-23.322 41.957-44.374 83.295-63.207 122.052zM532.794-9.193c-156.133 0-298.748 159.21-408.031 333.283-38.853-22.965-68.212-44.331-89.521-61.723 74.352-191.052 259.586-326.367 476.759-326.367 107.735 0 207.473 33.442 289.977 90.055-22.961 13.728-48.966 29.262-77.757 48.047-53.919-51.040-117.177-83.295-191.426-83.295zM301.122 516.277c-12.022 34.113-19.091 68.896-19.091 103.731 0 53.156 20.949 100.48 62.433 141.354 89.109 87.475 240.805 130.671 379.756 152.243-64.548 29.468-136.423 46.395-212.22 46.395-199.062 0-371.191-113.692-455.707-279.92 30.958-70.548 67.334-145.276 107.942-217.475 40.194 18.888 85.652 37.209 136.888 53.672zM385.483 620.060c0-25.030 4.334-50.369 12.074-76.173 114.701 28.333 251.846 47.376 414.43 47.376 17.698 0 34.054-0.929 50.772-1.6 20.639 71.941 35.602 136.502 44.219 184.033-14.912 18.321-31.732 35.042-49.224 51.040-159.384-12.541-350.294-48.511-440.744-137.38-21.516-20.901-31.526-42.473-31.526-67.296zM1008.263 571.755c-6.811 27.352-15.376 53.878-26.211 79.166-4.386-20.437-9.597-43.918-16.098-70.806 14.705-2.322 28.74-5.316 42.31-8.36zM348.075 421.835c-48.553-15.327-91.792-32.048-129.664-49.234 99.067-155.494 212.478-278.32 314.382-278.32 35.654 0 69.192 16.050 100.563 42.473-104.588 76.637-216.399 175.982-285.281 285.081zM443.014 447.845c52.216-80.611 138.694-161.326 254.478-239.563 53.248 75.192 98.035 177.324 132.915 278.94-6.192 0-12.074 0.516-18.42 0.516-143.75 0.051-265.933-15.998-368.972-39.893zM789.336 150.533c30.081-18.166 62.226-35.506 95.197-52.898 86.374 91.397 139.468 214.688 139.468 350.262 0 4.387-0.516 8.567-0.722 13.005-24.354 7.844-52.371 14.347-84.568 18.992-32.661-108.428-81.163-233.060-149.374-329.36z" />
<glyph unicode="&#xe90c;" glyph-name="badge_book2" d="M726.528 683.008c-4.096 2.56-9.728 3.584-14.336 1.536-100.352-39.424-176.128-99.328-202.752-121.856-26.624 22.528-102.4 82.432-202.752 121.856-4.608 2.048-10.24 1.536-14.336-1.536s-6.656-7.68-6.656-12.8v-323.584c0-6.144 3.584-12.288 9.728-14.336 130.56-50.176 202.24-123.904 202.752-124.416 1.536-1.536 3.584-2.56 5.632-3.584 0 0 0 0 0 0s0.512 0 0.512 0c1.536-0.512 3.072-1.024 5.12-1.024s3.584 0.512 5.12 1.024c0 0 0.512 0 0.512 0s0 0 0 0c2.048 0.512 4.096 2.048 5.632 3.584 0.512 1.024 71.68 74.24 202.752 124.416 5.632 2.048 9.728 8.192 9.728 14.336v323.584c0 5.12-2.56 10.24-6.656 12.8zM316.416 647.168c91.136-40.448 159.232-96.256 177.664-112.128v-282.112c-31.744 26.112-91.648 69.12-177.664 103.936v290.304zM702.464 356.864c-86.016-34.816-145.92-77.824-177.664-103.936v282.112c18.432 16.384 86.528 72.192 177.664 112.128v-290.304z" />
<glyph unicode="&#xe90d;" glyph-name="lydbogsafspiller_sound" horiz-adv-x="819" d="M584.841 831.522h-0.034c-3.789 1.877-8.499 1.365-11.81-1.092l-217.259-164.489h-116.361c-6.246 0-11.332-5.018-11.332-11.264v-208.555c0-6.246 5.086-11.298 11.332-11.298h116.326l217.293-164.42c2.014-1.434 4.403-2.219 6.793-2.219 1.57 0 3.209 0.375 4.983 1.161 3.823 1.877 6.315 5.837 6.315 10.103v541.969c0.034 4.233-2.423 8.192-6.246 10.103zM568.491 798.652v-496.538l-202.103 152.917c-1.911 1.536-4.335 2.321-6.861 2.321h-108.851v186.061h108.817c2.492 0 4.915 0.785 6.793 2.253l202.206 152.986z" />
<glyph unicode="&#xe90e;" glyph-name="bagde_sound" horiz-adv-x="819" d="M482.509 917.402c-12.288 0-23.757-4.915-32.768-13.926l-164.659-165.478h-164.659c-26.214 0-47.514-21.299-47.514-47.514v-280.986c0-26.214 21.299-47.514 47.514-47.514h165.478c54.886-54.886 109.773-110.592 164.659-165.478 9.011-9.011 20.48-13.926 32.768-13.926v0c12.288 0 23.757 4.096 32.768 12.288 9.83 9.011 15.565 21.299 15.565 34.406v641.434c-0.819 25.395-22.118 46.694-49.152 46.694zM481.69 235.008c-56.525 56.525-112.23 113.050-168.755 169.574l-7.373 7.373h-183.501v276.89h183.501l175.309 176.947v-630.784h0.819zM615.219 733.082c-33.587 12.288-47.514-40.96-14.746-52.429 123.699-45.875 123.699-214.63 0-259.686-32.768-12.288-18.842-64.717 14.746-52.429 174.49 63.898 174.49 299.827 0 364.544z" />
<glyph unicode="&#xe90f;" glyph-name="user" d="M522.449 412.473c-98.22 0-177.633 79.412-177.633 178.678 0 98.22 79.412 177.633 177.633 177.633s178.678-79.412 178.678-177.633c0-98.22-80.457-178.678-178.678-178.678zM522.449 704c-61.649 0-112.849-50.155-112.849-112.849s51.2-112.849 112.849-112.849 112.849 50.155 112.849 112.849-51.2 112.849-112.849 112.849zM779.494 119.902h-58.514c-2.090 0-4.18 2.090-4.18 4.18-1.045 105.535-87.771 191.216-194.351 191.216s-193.306-85.682-195.396-191.216c0-2.090-2.090-4.18-4.18-4.18h-57.469c-2.090 0-4.18 2.090-4.18 4.18 2.090 142.106 118.073 257.045 261.224 257.045 142.106 0 259.135-114.939 261.224-257.045 0-2.090-2.090-4.18-4.18-4.18z" />
<glyph unicode="&#xe910;" glyph-name="lydbogsafspiller_sound2" d="M686.080 830.293v0c-3.413 3.413-6.827 0-10.24 0l-218.453-163.84h-116.053c-6.827 0-10.24-3.413-10.24-10.24v-208.213c0-6.827 3.413-10.24 10.24-10.24h116.053l218.453-163.84c3.413 0 3.413-3.413 6.827-3.413 0 0 3.413 0 3.413 0 3.413 3.413 6.827 6.827 6.827 10.24v539.307c0 6.827-3.413 10.24-6.827 10.24zM672.427 799.573v-494.933l-201.387 153.6c-3.413 0-3.413 3.413-6.827 3.413h-112.64v180.907h109.227c3.413 0 3.413 0 6.827 3.413l204.8 153.6z" />
<glyph unicode="&#xe911;" glyph-name="search" horiz-adv-x="1536" d="M1101.424 135.805l-202.302 201.054c64.937 84.917 84.917 206.049 24.976 327.18-24.976 51.2-66.185 92.41-117.385 117.385-273.483 132.371-543.22-137.366-410.849-410.849 24.976-51.2 66.185-92.41 117.385-117.385 122.38-59.941 243.512-38.712 328.429 26.224l203.551-199.805c3.746-3.746 8.741-3.746 11.239 0l43.707 43.707c3.746 3.746 3.746 8.741 1.249 12.488zM774.244 328.117c-204.8-107.395-410.849 98.654-303.454 303.454 16.234 32.468 43.707 58.693 74.927 74.927 204.8 107.395 409.6-98.654 303.454-303.454-16.234-31.22-42.459-57.444-74.927-74.927z" />
<glyph unicode="&#xe912;" glyph-name="help" horiz-adv-x="819" d="M505.446 923.955h-191.693c-165.478 0-300.646-134.349-300.646-300.646 0 0 0 0 0 0v0c0.819-149.094 109.773-275.251 257.229-297.37 6.554-39.322 3.277-80.282-7.373-117.965-4.096-13.107 3.277-26.214 16.384-30.31 5.734-1.638 12.288-0.819 18.022 1.638 49.971 25.395 120.422 71.27 158.106 143.36h49.971c165.478 0 300.646 134.349 300.646 300.646v0c-0.819 166.298-135.168 300.646-300.646 300.646 0 0 0 0 0 0zM405.504 443.085c-17.203 0-31.13 13.926-31.13 31.13s13.926 31.13 31.13 31.13 31.13-13.926 31.13-31.13v0c0.819-17.203-13.107-31.13-31.13-31.13zM439.91 595.456c0 0-3.277-0.819-3.277-3.277v-24.576c0-17.203-13.926-31.13-31.13-31.13s-31.13 13.926-31.13 31.13c0 0 0 0 0 0v24.576c0 28.672 18.842 53.248 45.056 62.259 18.842 5.734 31.13 23.757 30.31 43.418-0.819 23.757-21.299 43.418-45.056 43.418-17.203 0-32.768-9.83-39.322-25.395-8.192-15.565-27.034-21.299-41.779-13.107-14.746 7.373-20.48 25.395-13.926 40.141 17.203 36.864 54.886 60.621 95.846 60.621h0.819c57.344 0 104.858-45.875 107.315-104.038 0.819-46.694-28.672-89.293-73.728-104.038v0z" />
<glyph unicode="&#xe913;" glyph-name="eye" horiz-adv-x="819" d="M53.248 549.581c0-2.458 0.819-4.915 2.458-7.373 62.259-128.614 197.427-217.088 353.894-217.088s291.635 88.474 354.714 217.088c2.458 4.915 2.458 11.469 0 17.203-63.078 127.795-198.246 216.269-354.714 216.269s-291.635-88.474-353.894-216.269c-1.638-3.277-2.458-6.554-2.458-9.83v0zM95.027 550.4c58.163 110.592 176.947 186.778 314.573 186.778s256.41-76.186 314.573-185.958c-58.163-111.411-176.947-187.597-314.573-187.597s-256.41 76.186-314.573 186.778v0zM280.166 550.4c0-71.27 58.163-128.614 129.434-128.614s129.434 57.344 129.434 128.614c0 71.27-58.163 128.614-129.434 128.614s-129.434-58.163-129.434-128.614v0zM319.488 550.4c0 49.971 40.141 90.112 90.112 90.112s90.931-40.141 90.931-90.112-40.96-90.112-90.931-90.112c-49.971 0-90.112 40.141-90.112 90.112v0z" />
<glyph unicode="&#xe914;" glyph-name="check2" horiz-adv-x="819" d="M358.628 470.3l-91.022 91.022c-3.641 3.641-3.641 9.102 0 12.743s9.102 3.641 12.743 0l78.279-78.279 181.134 181.134c3.641 3.641 9.102 3.641 12.743 0s3.641-9.102 0-12.743l-193.877-193.877z" />
<glyph unicode="&#xe915;" glyph-name="books" horiz-adv-x="819" d="M752.594 845.002c14.746 0 24.576-13.107 24.576-25.395v-538.214c0-13.107-9.83-26.214-24.576-26.214h-98.304c-14.746 0-24.576 13.107-24.576 26.214v538.214c0 13.107 9.83 25.395 24.576 25.395h98.304zM392.146 845.002c14.746 0 24.576-13.107 24.576-25.395v-538.214c0-13.107-9.83-26.214-24.576-26.214h-98.304c-14.746 0-24.576 13.107-24.576 26.214v538.214c0 13.107 9.83 25.395 24.576 25.395h98.304zM744.402 812.234h-81.92v-81.92h81.92v81.92zM383.954 812.234h-81.92v-81.92h81.92v81.92zM572.37 779.466c13.107 0 24.576-11.469 24.576-24.576v-475.136c0-13.107-11.469-24.576-24.576-24.576h-98.304c-13.107 0-24.576 11.469-24.576 24.576v475.136c0 13.107 11.469 24.576 24.576 24.576h98.304zM564.178 746.698h-81.92v-65.536h81.92v65.536zM744.402 697.546h-81.92v-294.912h81.92v294.912zM383.954 697.546h-81.92v-294.912h81.92v294.912zM564.178 648.394h-81.92v-262.144h81.92v262.144zM744.402 369.866h-81.92v-81.92h81.92v81.92zM383.954 369.866h-81.92v-81.92h81.92v81.92zM564.178 353.482h-81.92v-65.536h81.92v65.536zM249.605 722.122c12.288-2.458 22.118-14.746 19.661-28.672l-81.92-419.43c-2.458-13.107-16.384-21.299-28.672-18.842l-96.666 18.842c-12.288 2.458-22.118 14.746-19.661 28.672l81.92 419.43c2.458 13.107 16.384 21.299 28.672 18.842l96.666-18.842zM234.86 691.812l-80.282 15.565-12.288-64.717 80.282-15.565 12.288 64.717zM216.018 595.146l-80.282 15.565-40.96-208.896 80.282-15.565 40.96 208.896zM169.324 354.301l-80.282 15.565-12.288-64.717 80.282-15.565 12.288 64.717z" />
<glyph unicode="&#xe916;" glyph-name="link" horiz-adv-x="819" d="M344.883 420.966l-72.909-72.909c-22.118-22.118-58.982-22.118-81.101 0l-77.824 77.824c-22.118 22.118-22.118 58.982 0 81.101l157.286 158.106c22.118 22.118 58.982 22.118 81.101 0l77.824-77.824c15.565-15.565 20.48-39.322 13.107-59.802-4.915-13.107 2.458-27.034 14.746-31.13 13.107-4.915 27.034 2.458 31.13 14.746 13.926 38.502 4.096 81.92-24.576 111.411l-77.824 77.824c-41.779 41.779-108.954 41.779-150.733 0l-158.106-158.106c-41.779-41.779-41.779-108.954 0-150.733l78.643-78.643c20.48-20.48 48.333-31.13 75.366-31.13s54.886 10.65 75.366 31.13l72.909 72.909c9.83 9.83 9.83 25.395 0 34.406-9.83 10.65-25.395 10.65-34.406 0.819zM742.195 709.325l-78.643 78.643c-41.779 40.96-108.954 40.96-150.733 0l-72.909-73.728c-9.83-9.83-9.83-25.395 0-34.406 9.83-9.83 25.395-9.83 34.406 0l72.909 72.909c22.118 22.118 58.982 22.118 81.101 0l77.824-77.824c22.118-22.118 22.118-58.982 0-81.101l-157.286-158.106c-22.118-22.118-58.982-22.118-81.101 0l-77.824 77.824c-15.565 15.565-20.48 39.322-13.107 59.802 4.915 13.107-2.458 27.034-14.746 31.13-13.107 4.915-27.034-2.458-31.13-14.746-13.926-38.502-4.096-81.92 24.576-111.411l77.824-77.824c20.48-20.48 48.333-31.13 75.366-31.13s54.886 10.65 75.366 31.13l158.106 158.106c40.96 41.779 40.96 109.773 0 150.733z" />
<glyph unicode="&#xe917;" glyph-name="eReolen-symbol" horiz-adv-x="1513" d="M735.252 695.070c-159.015 0-262.286-116.269-262.286-244.848 0-160.041 102.592-272.889 277.335-272.889 43.774 0 89.594-8.549 136.445 16.415l-25.992 65.317c-32.487-23.254-63.262-24.281-113.875-24.281-107.036 0-201.76 83.782-201.76 215.439 0 109.43 81.732 184.662 185.003 184.662 121.057 0 170.642-44.797 157.644-159.355 0 0-14.021-53.002-93.699-79.678l-1.027-2.050c-1.711-0.683-15.048-19.493-25.648-8.893-7.522-8.21-47.874-22.91-72.155-22.91-19.149 0-7.522 26.331-26.331 36.931l12.31-7.182c9.916 21.203 12.31 10.26 47.874 32.83 75.577 15.388 107.72 40.692 107.72 86.86 0 39.325-39.325 83.782-91.648 83.782-69.761 0-100.537-59.501-113.191-115.925l-21.887-64.973c2.738-62.239 15.732-110.797 87.887-110.797 24.281 0 33.17-1.367 76.6 22.57 191.842 51.636 199.368 168.248 186.37 163.116 37.275 121.057-65.657 206.206-224.672 206.206zM702.422 502.885v0c-9.916 2.738 11.627 34.197 38.302 34.197 13.338 0 27.359-11.283 27.359-26.331 0-21.543-10.943-31.803-52.319-31.459-12.31-3.078-23.254-14.704-20.176-32.147l6.499 55.74z" />
<glyph unicode="&#xe918;" glyph-name="eReolen-fuld" horiz-adv-x="1449" d="M414.2 399.586h-31.632v-88.217h-58.87v265.531h104.209c73.456 0 95.598-19.155 95.598-79.782v-27.59c0-41.297-11.598-56.058-40.77-61.506l73.104-96.477h-78.552l-63.263 88.217zM467.095 501.51v0c0 19.682-13.883 21.966-36.377 21.966h-48.151v-76.971h48.151c32.335 0 36.377 4.745 36.377 27.238v27.766zM608.911 385.703v-9.841c0-14.761 14.234-30.753 46.042-30.753 7.381 0 43.933 17.573 53.598 22.669l8.259-48.151c-11.774-7.556-42.527-11.95-71.874-11.95-61.155 0-94.017 28.996-94.017 80.134v52.017c0 29.523 18.276 70.82 96.301 70.82 53.247 0 71.347-45.163 71.347-82.945v-42.176h-109.657zM663.915 442.113v0c0 15.992 0.351 22.669-22.142 22.669s-32.862-6.502-32.862-22.669v-7.029h55.004v7.029zM747.915 379.025v50.084c0 42.176 21.088 81.891 84.351 81.891 66.778 0 83.824-39.715 83.824-81.891v-50.084c0-30.577-17.222-71.347-83.824-71.347-63.263 0-84.351 40.77-84.351 71.347zM858.275 386.054v0 53.247c0 9.49-3.515 22.318-25.833 22.318-24.427 0-23.724-12.828-23.724-22.318v-53.247c0-15.113-0.879-25.13 23.724-25.13 22.318 0 25.833 10.017 25.833 25.13zM949.48 311.368v282.050l57.992 2.285v-284.334zM1105.354 385.703v-9.841c0-14.761 13.18-30.753 31.632-30.753 20.736 0 42.879 17.573 64.142 22.669l12.126-48.151c-15.816-7.556-46.569-11.95-81.364-11.95-65.197 0-87.339 28.996-87.339 80.134v52.017c0 29.523 19.858 70.82 84.703 70.82 63.615 0 81.891-45.163 81.891-82.945v-42.176h-105.791zM1159.304 442.113v0c0 15.992-2.46 22.669-24.954 22.669s-28.82-6.502-28.82-22.669v-7.029h53.95v7.029zM1355.772 311.368v130.745c0 10.544 0.351 7.732-6.502 7.732-10.017 0-33.213-6.854-43.933-7.732v-130.745h-60.803v199.807h43.23l4.393-18.276c22.142 14.937 53.95 17.925 80.485 17.925 29.699 0 43.933-18.628 43.933-56.937v-142.519h-60.803zM169.581 574.966c-81.715 0-134.786-59.749-134.786-125.824 0-82.243 52.72-140.234 142.519-140.234 22.494 0 46.042-4.393 70.117 8.435l-13.356 33.565c-16.695-11.95-32.51-12.477-58.519-12.477-55.004 0-103.682 43.054-103.682 110.711 0 56.234 42 94.895 95.071 94.895 62.209 0 87.69-23.021 81.012-81.891 0 0-7.205-27.238-48.151-40.946l-0.527-1.054c-0.879-0.351-7.732-10.017-13.18-4.569-3.866-4.218-24.602-11.774-37.079-11.774-9.841 0-3.866 13.531-13.531 18.979l6.326-3.69c5.096 10.895 6.326 5.272 24.602 16.87 38.837 7.908 55.356 20.912 55.356 44.636 0 20.209-20.209 43.054-47.096 43.054-35.849 0-51.665-30.577-58.167-59.573l-11.247-33.389c1.406-31.983 8.084-56.937 45.163-56.937 12.477 0 17.046-0.703 39.364 11.598 98.586 26.536 102.452 86.46 95.774 83.824 19.155 62.209-33.741 105.966-115.456 105.966zM152.711 476.205v0c-5.096 1.406 5.975 17.573 19.682 17.573 6.854 0 14.059-5.799 14.059-13.531 0-11.071-5.623-16.343-26.887-16.167-6.326-1.582-11.95-7.556-10.368-16.519l3.339 28.644z" />
<glyph unicode="&#xe919;" glyph-name="arrow" d="M773.968 472.501h-429.703l134.439 135.067-35.18 35.18-195.377-195.377 195.377-194.748 35.18 35.18-133.811 134.439h429.075z" />
<glyph unicode="&#xe91a;" glyph-name="badge_book22" d="M930.31 906.755c-7.89 4.933-18.744 6.909-27.622 2.957-193.368-75.964-339.382-191.399-390.681-234.808-51.299 43.409-197.313 158.837-390.681 234.808-8.878 3.945-19.732 2.957-27.622-2.957s-12.823-14.799-12.823-24.665v-623.513c0-11.842 6.909-23.677 18.744-27.622 251.576-96.684 389.7-238.753 390.681-239.741 2.957-2.957 6.909-4.933 10.854-6.909 0 0 0 0 0 0s0.988 0 0.988 0c2.957-0.988 5.921-1.976 9.866-1.976s6.909 0.988 9.866 1.976c0 0 0.988 0 0.988 0s0 0 0 0c3.945 0.988 7.89 3.945 10.854 6.909 0.988 1.976 138.124 143.057 390.681 239.741 10.854 3.945 18.744 15.787 18.744 27.622v623.513c0 9.866-4.933 19.732-12.823 24.665zM140.063 837.7c175.612-77.94 306.827-185.478 342.339-216.057v-543.604c-61.165 50.318-176.6 133.191-342.339 200.277v559.391zM883.937 278.309c-165.746-67.086-281.174-149.959-342.339-200.277v543.604c35.519 31.567 166.734 139.105 342.339 216.057v-559.391z" />
<glyph unicode="&#xe91b;" glyph-name="bagde_sound2" d="M608.577 911.411c-15.498 0-29.964-6.199-41.33-17.565l-207.682-208.714h-207.682c-33.063 0-59.928-26.864-59.928-59.928v-354.405c0-33.063 26.864-59.928 59.928-59.928h208.714c69.226-69.226 138.456-139.488 207.682-208.714 11.366-11.366 25.832-17.565 41.33-17.565v0c15.498 0 29.964 5.167 41.33 15.498 12.398 11.366 19.633 26.864 19.633 43.397v809.032c-1.032 32.031-27.896 58.895-61.995 58.895zM607.545 50.715c-71.294 71.294-141.555 142.588-212.849 213.881l-9.299 9.299h-231.447v349.238h231.447l221.116 223.18v-795.601h1.032zM775.964 678.929c-42.362 15.498-59.928-51.661-18.598-66.127 156.021-57.863 156.021-270.709 0-327.54-41.33-15.498-23.765-81.628 18.598-66.127 220.081 80.593 220.081 378.169 0 459.794z" />
<glyph unicode="&#xe91c;" glyph-name="search2" d="M734.283 239.87l-134.868 134.036c43.291 56.611 56.611 137.366 16.65 218.12-16.65 34.133-44.124 61.607-78.257 78.257-182.322 88.247-362.146-91.577-273.899-273.899 16.65-34.133 44.124-61.607 78.257-78.257 81.587-39.961 162.341-25.808 218.953 17.483l135.701-133.203c2.498-2.498 5.828-2.498 7.493 0l29.138 29.138c2.498 2.498 2.498 5.828 0.833 8.325zM516.163 368.078c-136.533-71.597-273.899 65.769-202.302 202.302 10.823 21.646 29.138 39.128 49.951 49.951 136.533 71.597 273.067-65.769 202.302-202.302-10.823-20.813-28.306-38.296-49.951-49.951z" />
<glyph unicode="&#xe91d;" glyph-name="help2" d="M607.846 923.955h-191.693c-165.478 0-300.646-134.349-300.646-300.646 0 0 0 0 0 0v0c0.819-149.094 109.773-275.251 257.229-297.37 6.554-39.322 3.277-80.282-7.373-117.965-4.096-13.107 3.277-26.214 16.384-30.31 5.734-1.638 12.288-0.819 18.022 1.638 49.971 25.395 120.422 71.27 158.106 143.36h49.971c165.478 0 300.646 134.349 300.646 300.646v0c-0.819 166.298-135.168 300.646-300.646 300.646 0 0 0 0 0 0zM507.904 443.085c-17.203 0-31.13 13.926-31.13 31.13s13.926 31.13 31.13 31.13 31.13-13.926 31.13-31.13v0c0.819-17.203-13.107-31.13-31.13-31.13zM542.31 595.456c0 0-3.277-0.819-3.277-3.277v-24.576c0-17.203-13.926-31.13-31.13-31.13s-31.13 13.926-31.13 31.13c0 0 0 0 0 0v24.576c0 28.672 18.842 53.248 45.056 62.259 18.842 5.734 31.13 23.757 30.31 43.418-0.819 23.757-21.299 43.418-45.056 43.418-17.203 0-32.768-9.83-39.322-25.395-8.192-15.565-27.034-21.299-41.779-13.107-14.746 7.373-20.48 25.395-13.926 40.141 17.203 36.864 54.886 60.621 95.846 60.621h0.819c57.344 0 104.858-45.875 107.315-104.038 0.819-46.694-28.672-89.293-73.728-104.038v0z" />
<glyph unicode="&#xe91e;" glyph-name="eye2" d="M155.648 549.581c0-2.458 0.819-4.915 2.458-7.373 62.259-128.614 197.427-217.088 353.894-217.088s291.635 88.474 354.714 217.088c2.458 4.915 2.458 11.469 0 17.203-63.078 127.795-198.246 216.269-354.714 216.269s-291.635-88.474-353.894-216.269c-1.638-3.277-2.458-6.554-2.458-9.83v0zM197.427 550.4c58.163 110.592 176.947 186.778 314.573 186.778s256.41-76.186 314.573-185.958c-58.163-111.411-176.947-187.597-314.573-187.597s-256.41 76.186-314.573 186.778v0zM382.566 550.4c0-71.27 58.163-128.614 129.434-128.614s129.434 57.344 129.434 128.614c0 71.27-58.163 128.614-129.434 128.614s-129.434-58.163-129.434-128.614v0zM421.888 550.4c0 49.971 40.141 90.112 90.112 90.112s90.931-40.141 90.931-90.112-40.96-90.112-90.931-90.112c-49.971 0-90.112 40.141-90.112 90.112v0z" />
<glyph unicode="&#xe91f;" glyph-name="check3" d="M461.253 472.467l-90.619 90.619c-3.625 3.625-3.625 9.062 0 12.687s9.062 3.625 12.687 0l77.933-77.933 180.333 180.333c3.625 3.625 9.062 3.625 12.687 0s3.625-9.062 0-12.687l-193.019-193.019z" />
<glyph unicode="&#xe920;" glyph-name="books2" d="M854.994 845.002c14.746 0 24.576-13.107 24.576-25.395v-538.214c0-13.107-9.83-26.214-24.576-26.214h-98.304c-14.746 0-24.576 13.107-24.576 26.214v538.214c0 13.107 9.83 25.395 24.576 25.395h98.304zM494.546 845.002c14.746 0 24.576-13.107 24.576-25.395v-538.214c0-13.107-9.83-26.214-24.576-26.214h-98.304c-14.746 0-24.576 13.107-24.576 26.214v538.214c0 13.107 9.83 25.395 24.576 25.395h98.304zM846.802 812.234h-81.92v-81.92h81.92v81.92zM486.354 812.234h-81.92v-81.92h81.92v81.92zM674.77 779.466c13.107 0 24.576-11.469 24.576-24.576v-475.136c0-13.107-11.469-24.576-24.576-24.576h-98.304c-13.107 0-24.576 11.469-24.576 24.576v475.136c0 13.107 11.469 24.576 24.576 24.576h98.304zM666.578 746.698h-81.92v-65.536h81.92v65.536zM846.802 697.546h-81.92v-294.912h81.92v294.912zM486.354 697.546h-81.92v-294.912h81.92v294.912zM666.578 648.394h-81.92v-262.144h81.92v262.144zM846.802 369.866h-81.92v-81.92h81.92v81.92zM486.354 369.866h-81.92v-81.92h81.92v81.92zM666.578 353.482h-81.92v-65.536h81.92v65.536zM352.005 722.122c12.288-2.458 22.118-14.746 19.661-28.672l-81.92-419.43c-2.458-13.107-16.384-21.299-28.672-18.842l-96.666 18.842c-12.288 2.458-22.118 14.746-19.661 28.672l81.92 419.43c2.458 13.107 16.384 21.299 28.672 18.842l96.666-18.842zM337.26 691.812l-80.282 15.565-12.288-64.717 80.282-15.565 12.288 64.717zM318.418 595.146l-80.282 15.565-40.96-208.896 80.282-15.565 40.96 208.896zM271.724 354.301l-80.282 15.565-12.288-64.717 80.282-15.565 12.288 64.717z" />
<glyph unicode="&#xe921;" glyph-name="link2" d="M447.283 420.966l-72.909-72.909c-22.118-22.118-58.982-22.118-81.101 0l-77.824 77.824c-22.118 22.118-22.118 58.982 0 81.101l157.286 158.106c22.118 22.118 58.982 22.118 81.101 0l77.824-77.824c15.565-15.565 20.48-39.322 13.107-59.802-4.915-13.107 2.458-27.034 14.746-31.13 13.107-4.915 27.034 2.458 31.13 14.746 13.926 38.502 4.096 81.92-24.576 111.411l-77.824 77.824c-41.779 41.779-108.954 41.779-150.733 0l-158.106-158.106c-41.779-41.779-41.779-108.954 0-150.733l78.643-78.643c20.48-20.48 48.333-31.13 75.366-31.13s54.886 10.65 75.366 31.13l72.909 72.909c9.83 9.83 9.83 25.395 0 34.406-9.83 10.65-25.395 10.65-34.406 0.819zM844.595 709.325l-78.643 78.643c-41.779 40.96-108.954 40.96-150.733 0l-72.909-73.728c-9.83-9.83-9.83-25.395 0-34.406 9.83-9.83 25.395-9.83 34.406 0l72.909 72.909c22.118 22.118 58.982 22.118 81.101 0l77.824-77.824c22.118-22.118 22.118-58.982 0-81.101l-157.286-158.106c-22.118-22.118-58.982-22.118-81.101 0l-77.824 77.824c-15.565 15.565-20.48 39.322-13.107 59.802 4.915 13.107-2.458 27.034-14.746 31.13-13.107 4.915-27.034-2.458-31.13-14.746-13.926-38.502-4.096-81.92 24.576-111.411l77.824-77.824c20.48-20.48 48.333-31.13 75.366-31.13s54.886 10.65 75.366 31.13l158.106 158.106c40.96 41.779 40.96 109.773 0 150.733z" />
<glyph unicode="&#xe922;" glyph-name="right-chevron" d="M772.547 463.335l-490.715 490.715c-8.535 8.107-21.976 7.895-30.083-0.426-7.895-8.321-7.895-21.336 0-29.657l475.567-475.567-475.567-475.781c-8.535-8.107-8.747-21.762-0.426-30.083 8.107-8.535 21.762-8.747 30.083-0.426 0.214 0.214 0.426 0.426 0.426 0.426l490.715 490.715c8.321 8.323 8.321 21.764 0 30.085z" />
<glyph unicode="&#xe923;" glyph-name="left-chevron" d="M772.068-58.242c7.676 7.676 7.676 20.11 0 27.786l-478.456 478.446 478.456 478.468c7.676 7.676 7.676 20.11 0 27.786s-20.11 7.676-27.786 0l-492.35-492.36c-3.684-3.684-5.756-8.674-5.756-13.894s2.072-10.208 5.756-13.892l492.35-492.34c7.676-7.676 20.11-7.676 27.786 0z" />
<glyph unicode="&#xe924;" glyph-name="up-chevron" d="M5.758 187.932c7.676-7.676 20.11-7.676 27.786 0l478.446 478.456 478.468-478.456c7.676-7.676 20.11-7.676 27.786 0s7.676 20.11 0 27.786l-492.36 492.35c-3.684 3.684-8.674 5.756-13.894 5.756s-10.208-2.072-13.892-5.756l-492.34-492.35c-7.676-7.676-7.676-20.11 0-27.786z" />
<glyph unicode="&#xe925;" glyph-name="down-chevron" d="M1018.242 708.068c-7.676 7.676-20.11 7.676-27.786 0l-478.446-478.456-478.468 478.456c-7.676 7.676-20.11 7.676-27.786 0s-7.676-20.11 0-27.786l492.36-492.35c3.684-3.684 8.674-5.756 13.894-5.756s10.208 2.072 13.892 5.756l492.34 492.35c7.676 7.676 7.676 20.11 0 27.786z" />
<glyph unicode="&#xe971;" glyph-name="user2" d="M576 253.388v52.78c70.498 39.728 128 138.772 128 237.832 0 159.058 0 288-192 288s-192-128.942-192-288c0-99.060 57.502-198.104 128-237.832v-52.78c-217.102-17.748-384-124.42-384-253.388h896c0 128.968-166.898 235.64-384 253.388z" />
<glyph unicode="&#xe98f;" glyph-name="lock" d="M592 512h-16v192c0 105.87-86.13 192-192 192h-128c-105.87 0-192-86.13-192-192v-192h-16c-26.4 0-48-21.6-48-48v-480c0-26.4 21.6-48 48-48h544c26.4 0 48 21.6 48 48v480c0 26.4-21.6 48-48 48zM192 704c0 35.29 28.71 64 64 64h128c35.29 0 64-28.71 64-64v-192h-256v192z" />
<glyph unicode="&#xea0f;" glyph-name="cross" d="M1014.662 137.34c-0.004 0.004-0.008 0.008-0.012 0.010l-310.644 310.65 310.644 310.65c0.004 0.004 0.008 0.006 0.012 0.010 3.344 3.346 5.762 7.254 7.312 11.416 4.246 11.376 1.824 24.682-7.324 33.83l-146.746 146.746c-9.148 9.146-22.45 11.566-33.828 7.32-4.16-1.55-8.070-3.968-11.418-7.31 0-0.004-0.004-0.006-0.008-0.010l-310.648-310.652-310.648 310.65c-0.004 0.004-0.006 0.006-0.010 0.010-3.346 3.342-7.254 5.76-11.414 7.31-11.38 4.248-24.682 1.826-33.83-7.32l-146.748-146.748c-9.148-9.148-11.568-22.452-7.322-33.828 1.552-4.16 3.97-8.072 7.312-11.416 0.004-0.002 0.006-0.006 0.010-0.010l310.65-310.648-310.65-310.652c-0.002-0.004-0.006-0.006-0.008-0.010-3.342-3.346-5.76-7.254-7.314-11.414-4.248-11.376-1.826-24.682 7.322-33.83l146.748-146.746c9.15-9.148 22.452-11.568 33.83-7.322 4.16 1.552 8.070 3.97 11.416 7.312 0.002 0.004 0.006 0.006 0.010 0.010l310.648 310.65 310.648-310.65c0.004-0.002 0.008-0.006 0.012-0.008 3.348-3.344 7.254-5.762 11.414-7.314 11.378-4.246 24.684-1.826 33.828 7.322l146.746 146.748c9.148 9.148 11.57 22.454 7.324 33.83-1.552 4.16-3.97 8.068-7.314 11.414z" />
</font>
</defs>
</svg>
