<?xml version="1.0" encoding="utf-8"?>
<svg width="41px" height="47px" viewBox="0 0 41 47" version="1.1" xmlns="http://www.w3.org/2000/svg" xmlns:xlink="http://www.w3.org/1999/xlink">
  <defs>
    <path d="M20.5269855,47 L20.4737567,47 C20.339872,46.9958517 20.2158194,46.9601246 20.1039551,46.9025646 C20.0909434,46.8968809 20.0787448,46.8916031 20.0661397,46.8847014 L0.435080133,35.5671726 C0.166306331,35.4128998 0,35.1258713 0,34.8169199 L0,12.1834861 C0,11.8737227 0.166306331,11.5875062 0.435080133,11.4320155 L20.0661397,0.11570455 C20.3349135,-0.0385681832 20.6650865,-0.0385681832 20.9342669,0.11570455 L40.5661397,11.4320155 C40.8349135,11.5875062 41,11.8737227 41,12.1834861 L41,34.8169199 C41,35.1258713 40.8349135,35.4128998 40.5661397,35.5671726 L20.9342669,46.8847014 C20.9220684,46.8916031 20.9114964,46.8989108 20.8972648,46.9041885 C20.7856033,46.9620246 20.6607263,46.9959672 20.5269855,47 Z M19.6318728,2.36849243 L2.6056014,12.1834861 L20.5,22.4986482 L38.3943986,12.1834861 L21.369347,2.36849243 L21.369347,14.1865957 C21.369347,14.6660591 20.9802146,15.0533649 20.5,15.0533649 C20.0210052,15.0533649 19.6318728,14.6660591 19.6318728,14.1865957 L19.6318728,2.36849243 Z M12.7872897,28.4292168 C13.028007,28.8425053 12.8848778,29.3739343 12.4697219,29.613869 L2.61739329,34.8230096 L19.6318728,44.6319136 L19.6318728,23.9999654 L1.73747421,13.6848034 L1.73747421,33.3273761 L11.6007815,28.1113338 C12.0171573,27.872211 12.5477924,28.0134924 12.7872897,28.4292168 Z M29.2625952,28.0195821 L39.2637456,33.307483 L39.2637456,13.6848034 L21.369347,23.9999654 L21.369347,44.6319136 L38.4004979,34.8136721 L28.3936548,29.5221173 C27.9780923,29.2829946 27.8365896,28.7519716 28.076087,28.3374651 C28.3155843,27.9229587 28.8462195,27.7804594 29.2625952,28.0195821 Z" id="path-1"></path>
  </defs>
  <g id="----Sign-on" stroke="none" stroke-width="1" fill="none" fill-rule="evenodd">
    <g id="D-/-Sign-on-01---short" transform="translate(-476.000000, -60.000000)">
      <g id="Logo" transform="translate(476.000000, 60.000000)">
        <mask id="mask-2" fill="white">
          <use xlink:href="#path-1"></use>
        </mask>
        <g id="Clip-11"></g>
        <polygon id="Fill-10" fill="#252525" mask="url(#mask-2)" points="0 47 41 47 41 0 0 0"></polygon>
      </g>
    </g>
  </g>
</svg>
