<svg xmlns="http://www.w3.org/2000/svg" width="552" height="136" fill="none">
  <path fill="#B91437" d="M107.002 56.39h-9.933v23.366H80.14V4.586h31.265c18.285 0 25.057 7.224 25.057 21.33v9.259c0 9.365-3.385 15.687-10.948 18.847l18.171 25.734h-20.09l-16.592-23.365Zm12.528-28.894c0-5.641-2.145-7.898-9.029-7.898H97.069v22.12h13.432c7.223 0 9.029-2.594 9.029-8.238v-5.984ZM161.622 57.972v1.58c0 6.322 2.482 8.014 9.934 8.014 5.078 0 11.849-.903 16.704-2.37l2.369 12.19c-4.964 1.805-12.977 3.5-20.653 3.5-17.835 0-24.606-8.804-24.606-22.351V45.67c0-11.851 5.304-22.008 23.588-22.008 18.287 0 22.236 10.833 22.236 22.797v11.513h-29.572Zm14.223-14.56c0-3.838-1.128-6.998-6.772-6.998s-7.451 3.16-7.451 6.998v2.37h14.223v-2.37ZM197.397 58.65V45.897c0-11.285 5.306-22.233 24.832-22.233s24.83 10.948 24.83 22.233v12.755c0 11.288-5.304 22.236-24.83 22.236-19.526 0-24.832-10.948-24.832-22.236Zm33.41.452V45.444c0-5.19-2.709-8.126-8.578-8.126-5.868 0-8.578 2.937-8.578 8.126v13.657c0 5.194 2.71 8.129 8.578 8.129 5.869 0 8.578-2.935 8.578-8.129M272.335.071l-16.253 2.257v77.428h16.253V.071ZM297.615 57.972v1.58c0 6.322 2.483 8.014 9.934 8.014 5.078 0 11.85-.903 16.702-2.37l2.371 12.19c-4.967 1.805-12.979 3.5-20.653 3.5-17.836 0-24.607-8.804-24.607-22.351V45.67c0-11.851 5.305-22.008 23.589-22.008s22.233 10.833 22.233 22.797v11.513h-29.569Zm14.223-14.56c0-3.838-1.131-6.998-6.773-6.998-5.644 0-7.45 3.16-7.45 6.998v2.37h14.223v-2.37ZM368.266 79.756V43.414c0-2.486-1.128-3.952-3.952-3.952-2.935 0-8.351 2.032-11.851 3.952v36.342H336.21V24.79h12.077l1.695 4.176c6.77-3.275 15.577-5.304 21.896-5.304 9.368 0 12.642 6.996 12.642 17.606v38.488h-16.254ZM38.225 3.872C15.087 3.872 0 20.69 0 42.586c0 22.46 15.916 38.712 40.295 38.712 5.868 0 13.317-1.24 18.623-3.725l-2.934-8.689c-5.304 1.69-10.273 2.71-16.027 2.71-16.592 0-29.46-10.723-29.46-29.008 0-17.043 10.882-29.346 27.248-29.346 17.044 0 25.016 8.376 22.074 22.31 0 0-1.618 8.477-13.003 13.768l-.003-.006c-1.618.754-1.614.74-4.041 1.764-2.425 1.024-7.364 2.103-10.31 2.103-3.417 0-3.338-1.864-2.95-4.036l.31-1.787c1.786-.464 2.715-.699 7.294-2.095 10.321-3.18 14.746-7.062 14.746-13.813 0-6.13-4.889-9.854-12.107-9.854-11.407 0-15.598 5.433-17.226 14.356l-2.018 11.485c-1.399 7.916.62 13.822 10.63 13.822 3.558 0 7.338-.542 10.779-1.515 26.635-6.948 28.708-24.514 28.78-24.946C73.219 18.682 60.46 3.872 38.225 3.872Zm-6.23 31.223c.62-3.568 2.717-6.204 6.984-6.204 2.484 0 3.958 1.24 3.958 2.948 0 2.48-1.784 4.11-5.974 5.433-3.803 1.162-4.347 1.318-5.666 1.703l.699-3.88ZM18.235 127.809c3.956 0 6.528-1.977 6.528-5.657v-3.165c0-2.81-1.583-4.352-3.878-4.748 2.335-.871 3.007-2.374 3.007-4.392v-3.046c0-3.482-2.057-5.341-6.21-5.341H7.512v26.349h10.722Zm3.125-5.934c0 1.978-1.187 3.008-3.6 3.008h-6.844v-9.022h6.647c2.61 0 3.797 1.147 3.797 3.246v2.768Zm-.87-12.028c0 1.9-.989 3.086-3.56 3.086h-6.014v-8.544h6.567c2.057 0 3.006.79 3.006 2.492v2.966Zm12.74-1.306h-3.325v19.268h3.324v-19.268Zm0-7.872h-3.325v4.787h3.324v-4.787Zm21.403 13.492c0-3.681-1.663-6.014-5.657-6.014-2.453 0-4.748.633-6.093 1.345v-9.299l-3.324.476v26.784c2.216.515 5.104.752 6.884.752 6.608 0 8.19-2.809 8.19-7.201v-6.843Zm-11.75-1.624c1.305-.633 3.6-1.464 5.3-1.464 2.255 0 3.126.99 3.126 2.968v7.082c0 2.572-.712 4.156-4.63 4.156-1.186 0-2.491-.08-3.797-.278v-12.464Zm20.533 15.272v-27.616l-3.323.476v27.14h3.323Zm9.653-19.268h-3.324v19.268h3.324v-19.268Zm0-7.872h-3.324v4.787h3.324v-4.787Zm21.008 20.296v-5.577c0-4.037-2.216-7.241-7.833-7.241-5.619 0-7.835 3.204-7.835 7.241v5.577c0 4.036 2.216 7.24 7.835 7.24 5.617 0 7.833-3.204 7.833-7.24Zm-3.324-5.697v5.816c0 2.808-1.503 4.233-4.51 4.233-3.007 0-4.51-1.425-4.51-4.233v-5.816c0-2.809 1.503-4.233 4.51-4.233 3.007 0 4.51 1.424 4.51 4.233Zm18.279 9.653c-1.227.316-2.176.475-3.086.475-1.781 0-1.978-.712-1.978-2.136v-11.949h5.182l.278-2.77h-5.46v-5.222l-3.324.476v4.746h-3.402v2.77h3.402v12.502c0 3.206 1.544 4.392 4.788 4.392 1.424 0 2.848-.277 4.036-.71l-.436-2.574Zm7.318-3.837v-1.623h11.474v-4.036c0-3.996-1.543-7.278-7.24-7.278-5.736 0-7.556 3.204-7.556 7.2v5.776c0 4.352 1.938 7.082 7.636 7.082 2.413 0 4.984-.434 6.804-1.108l-.435-2.649c-2.097.553-4.193.908-6.093.908-3.759 0-4.59-1.227-4.59-4.272Zm0-5.973c0-2.692 1.108-4.195 4.234-4.195 3.125 0 4.036 1.503 4.036 4.195v1.581h-8.27v-1.581Zm20.019 12.698v-27.616l-3.323.476v27.14h3.323Zm7.636-19.268-6.804 9.535 7.041 9.733h3.918l-7.2-9.733 6.884-9.535h-3.839Zm10.208 12.543v-1.623h11.473v-4.036c0-3.996-1.542-7.278-7.24-7.278-5.737 0-7.557 3.204-7.557 7.2v5.776c0 4.352 1.939 7.082 7.636 7.082 2.413 0 4.985-.434 6.805-1.108l-.434-2.649c-2.098.553-4.195.908-6.094.908-3.758 0-4.589-1.227-4.589-4.272Zm0-5.973c0-2.692 1.108-4.195 4.233-4.195 3.126 0 4.036 1.503 4.036 4.195v1.581h-8.269v-1.581Zm25.083-6.964a24.587 24.587 0 0 0-5.302 3.085l-.197-2.691h-2.889v19.268h3.324v-13.293c1.582-1.108 3.68-2.453 5.5-3.324l-.436-3.045Zm18.753 19.662v-14.756c0-2.968-1.108-4.906-4.194-4.906-2.294 0-5.618 1.028-7.754 2.057l-.317-1.663h-2.69v19.268h3.323v-14.56c2.057-1.068 5.025-1.938 6.449-1.938 1.227 0 1.86.516 1.86 1.781v14.717h3.323Zm8.466-6.725v-1.623h11.474v-4.036c0-3.996-1.543-7.278-7.24-7.278-5.738 0-7.558 3.204-7.558 7.2v5.776c0 4.352 1.939 7.082 7.636 7.082 2.414 0 4.986-.434 6.806-1.108l-.435-2.649c-2.097.553-4.195.908-6.093.908-3.759 0-4.59-1.227-4.59-4.272Zm0-5.973c0-2.692 1.108-4.195 4.234-4.195 3.125 0 4.034 1.503 4.034 4.195v1.581h-8.268v-1.581Zm28.683 7.516c0-3.838-.435-4.511-5.973-5.895-3.244-.791-3.284-1.188-3.284-3.324 0-1.74.396-2.412 3.244-2.412 1.582 0 3.718.236 5.341.553l.237-2.73c-1.582-.434-3.6-.672-5.46-.672-5.064 0-6.646 1.621-6.646 5.184 0 3.996.434 4.982 5.222 6.172 3.878.948 4.035 1.185 4.035 3.242 0 2.058-.513 2.611-3.56 2.611-1.661 0-3.837-.316-5.5-.791l-.435 2.611c1.543.595 4.155 1.029 6.132 1.029 5.5 0 6.647-1.818 6.647-5.578Zm16.221-1.543v-1.623h11.474v-4.036c0-3.996-1.543-7.278-7.24-7.278-5.738 0-7.558 3.204-7.558 7.2v5.776c0 4.352 1.939 7.082 7.636 7.082 2.414 0 4.986-.434 6.806-1.108l-.435-2.649c-2.097.553-4.195.908-6.093.908-3.759 0-4.59-1.227-4.59-4.272Zm0-5.973c0-2.692 1.108-4.195 4.234-4.195 3.125 0 4.036 1.503 4.036 4.195v1.581h-8.27v-1.581Zm31.77-.95c0-3.681-1.662-6.014-5.658-6.014-2.453 0-4.748.633-6.093 1.345v-9.299l-3.323.476v26.784c2.215.515 5.103.752 6.884.752 6.606 0 8.19-2.809 8.19-7.201v-6.843Zm-11.751-1.624c1.305-.633 3.6-1.464 5.301-1.464 2.255 0 3.126.99 3.126 2.968v7.082c0 2.572-.714 4.156-4.628 4.156-1.187 0-2.494-.08-3.799-.278v-12.464Zm16.22 16.34 1.465.911 1.662-2.651c1.186.672 2.73 1.068 4.706 1.068 5.62 0 7.834-3.204 7.834-7.24v-5.577c0-1.98-.554-3.8-1.78-5.105l1.78-2.81-1.462-.909-1.702 2.652c-1.187-.675-2.731-1.069-4.67-1.069-5.617 0-7.833 3.204-7.833 7.241v5.577c0 2.018.516 3.798 1.78 5.103l-1.78 2.809Zm12.345-13.609v5.816c0 2.808-1.504 4.233-4.512 4.233-1.304 0-2.293-.237-3.045-.752l7.201-11.316c.236.594.356 1.227.356 2.019Zm-9.021 5.816v-5.816c0-2.809 1.503-4.233 4.509-4.233 1.268 0 2.296.276 3.008.792l-7.2 11.274c-.237-.553-.317-1.226-.317-2.017Zm32.601-12.543h-5.54c-.909-.276-2.254-.394-3.244-.394-5.498 0-7.516 2.413-7.516 6.606v.871c0 2.532.868 4.432 2.69 5.46-1.028.791-1.822 1.977-1.822 3.401 0 1.782.912 3.286 3.76 3.522 2.256.198 2.967.277 5.104.474 2.255.199 2.85.476 2.85 2.098 0 2.017-.475 2.692-5.382 2.692-1.94 0-4.432-.319-6.449-.794l-.475 2.612c2.176.594 5.223.911 7.003.911 6.964 0 8.426-1.385 8.426-5.58 0-2.925-1.344-4.272-4.826-4.628-2.412-.236-3.441-.355-5.459-.555-.87-.077-1.268-.354-1.268-1.108 0-.83.714-1.502 1.386-2.057.594.08 1.266.119 1.978.119 5.024 0 7.557-2.412 7.557-6.567v-.871c-.04-1.504-.355-2.849-1.067-3.837l2.294-.436v-1.939Zm-4.392 6.252v.831c0 2.532-1.226 3.837-4.392 3.837-3.164 0-4.39-.908-4.39-3.837v-.831c0-2.848 1.186-3.917 4.39-3.917 3.206 0 4.392 1.108 4.392 3.917Zm11.196 6.291v-1.623h11.475v-4.036c0-3.996-1.546-7.278-7.242-7.278-5.737 0-7.556 3.204-7.556 7.2v5.776c0 4.352 1.939 7.082 7.636 7.082 2.414 0 4.986-.434 6.804-1.108l-.434-2.649c-2.098.553-4.195.908-6.094.908-3.76 0-4.589-1.227-4.589-4.272Zm0-5.973c0-2.692 1.107-4.195 4.233-4.195 3.127 0 4.035 1.503 4.035 4.195v1.581h-8.268v-1.581Zm25.084-6.964a24.593 24.593 0 0 0-5.303 3.085l-.197-2.691h-2.888v19.268h3.324v-13.293c1.58-1.108 3.679-2.453 5.499-3.324l-.435-3.045Zm26.981 12.818v-5.577c0-4.037-2.214-7.241-7.833-7.241-5.617 0-7.833 3.204-7.833 7.241v5.577c0 4.036 2.216 7.24 7.833 7.24 5.619 0 7.833-3.204 7.833-7.24Zm-3.322-5.697v5.816c0 2.808-1.504 4.233-4.511 4.233s-4.511-1.425-4.511-4.233v-5.816c0-2.809 1.504-4.233 4.511-4.233s4.511 1.424 4.511 4.233Zm23.578-6.727h-5.537c-.911-.276-2.256-.394-3.244-.394-5.5 0-7.517 2.413-7.517 6.606v.871c0 2.532.869 4.432 2.688 5.46-1.027.791-1.819 1.977-1.819 3.401 0 1.782.911 3.286 3.759 3.522 2.256.198 2.968.277 5.104.474 2.256.199 2.848.476 2.848 2.098 0 2.017-.474 2.692-5.38 2.692-1.939 0-4.431-.319-6.451-.794l-.473 2.612c2.176.594 5.222.911 7.002.911 6.963 0 8.428-1.385 8.428-5.58 0-2.925-1.346-4.272-4.826-4.628-2.415-.236-3.443-.355-5.462-.555-.869-.077-1.265-.354-1.265-1.108 0-.83.712-1.502 1.385-2.057.592.08 1.264.119 1.979.119 5.024 0 7.556-2.412 7.556-6.567v-.871c-.04-1.504-.356-2.849-1.068-3.837l2.293-.436v-1.939Zm-4.392 6.252v.831c0 2.532-1.225 3.837-4.389 3.837-3.165 0-4.392-.908-4.392-3.837v-.831c0-2.848 1.187-3.917 4.392-3.917 3.204 0 4.389 1.108 4.389 3.917Zm20.694 13.016v-27.616l-3.324.476v27.14h3.324Zm8.425 7.796h3.127l2.729-7.796 6.369-19.268h-3.284l-5.34 16.619-5.261-16.619h-3.285l6.252 19.268h1.384l-2.691 7.796Zm14.916-13.296c0 3.878 1.82 5.896 5.619 5.896 2.532 0 4.786-.869 6.369-2.137l.277 1.741h2.809v-27.616l-3.325.476v8.071c-1.541-.317-3.796-.593-5.498-.593-4.51 0-6.251 2.452-6.251 6.292v7.87Zm11.749.674c-1.423 1.265-3.56 2.296-5.459 2.296-2.333 0-2.966-.991-2.966-2.97v-7.87c0-2.335.909-3.366 3.125-3.366 1.346 0 3.52.238 5.3.595v11.315Zm24.728-8.822c0-3.681-1.661-6.014-5.657-6.014-2.454 0-4.747.633-6.092 1.345v-9.299l-3.324.476v26.784c2.216.515 5.104.752 6.884.752 6.608 0 8.189-2.809 8.189-7.201v-6.843Zm-11.749-1.624c1.304-.633 3.6-1.464 5.3-1.464 2.256 0 3.126.99 3.126 2.968v7.082c0 2.572-.712 4.156-4.63 4.156-1.186 0-2.492-.08-3.796-.278v-12.464Zm16.221 16.34 1.463.911 1.662-2.651c1.187.672 2.728 1.068 4.708 1.068 5.618 0 7.834-3.204 7.834-7.24v-5.577c0-1.98-.554-3.8-1.78-5.105l1.78-2.81-1.464-.909-1.702 2.652c-1.186-.675-2.729-1.069-4.668-1.069-5.618 0-7.833 3.204-7.833 7.241v5.577c0 2.018.513 3.798 1.78 5.103l-1.78 2.809Zm12.344-13.609v5.816c0 2.808-1.504 4.233-4.511 4.233-1.306 0-2.294-.237-3.046-.752l7.201-11.316c.237.594.356 1.227.356 2.019Zm-9.021 5.816v-5.816c0-2.809 1.504-4.233 4.51-4.233 1.266 0 2.295.276 3.007.792l-7.201 11.274c-.236-.553-.316-1.226-.316-2.017Zm32.601-12.543h-5.54c-.909-.276-2.256-.394-3.245-.394-5.498 0-7.516 2.413-7.516 6.606v.871c0 2.532.87 4.432 2.69 5.46-1.028.791-1.82 1.977-1.82 3.401 0 1.782.911 3.286 3.758 3.522 2.256.198 2.969.277 5.104.474 2.256.199 2.849.476 2.849 2.098 0 2.017-.475 2.692-5.38 2.692-1.939 0-4.432-.319-6.449-.794l-.475 2.612c2.175.594 5.223.911 7.003.911 6.964 0 8.426-1.385 8.426-5.58 0-2.925-1.344-4.272-4.826-4.628-2.414-.236-3.442-.355-5.459-.555-.871-.077-1.267-.354-1.267-1.108 0-.83.712-1.502 1.386-2.057.593.08 1.265.119 1.976.119 5.026 0 7.557-2.412 7.557-6.567v-.871c-.039-1.504-.355-2.849-1.068-3.837l2.296-.436v-1.939Zm-4.392 6.252v.831c0 2.532-1.228 3.837-4.393 3.837-3.164 0-4.391-.908-4.391-3.837v-.831c0-2.848 1.188-3.917 4.391-3.917 3.206 0 4.393 1.108 4.393 3.917Zm11.196 6.291v-1.623h11.473v-4.036c0-3.996-1.542-7.278-7.24-7.278-5.736 0-7.556 3.204-7.556 7.2v5.776c0 4.352 1.938 7.082 7.635 7.082 2.413 0 4.984-.434 6.805-1.108l-.436-2.649c-2.096.553-4.193.908-6.092.908-3.758 0-4.589-1.227-4.589-4.272Zm0-5.973c0-2.692 1.108-4.195 4.233-4.195 3.126 0 4.036 1.503 4.036 4.195v1.581h-8.269v-1.581Zm25.083-6.964a24.498 24.498 0 0 0-5.302 3.085l-.197-2.691h-2.888v19.268h3.321v-13.293c1.584-1.108 3.682-2.453 5.5-3.324l-.434-3.045Z"/>
</svg>
