<svg xmlns="http://www.w3.org/2000/svg" viewBox="0 0 26 26"><g fill="none" fill-rule="evenodd"><path d="M0 0h24v24H0z"/><path d="M17.25 9a5.25 5.25 0 0 0-10.496-.216L6.75 9v2H8a1 1 0 0 1 1 1v8a1 1 0 0 1-1 1H5a3 3 0 0 1-3-3v-4a3 3 0 0 1 3-3h.25V9a6.75 6.75 0 0 1 13.496-.237L18.75 9v2H19a3 3 0 0 1 3 3v4a3 3 0 0 1-3 3h-3a1 1 0 0 1-1-1v-8a1 1 0 0 1 1-1h1.25V9ZM7.5 12.5H5a1.5 1.5 0 0 0-1.493 1.356L3.5 14v4a1.5 1.5 0 0 0 1.356 1.493L5 19.5h2.5v-7Zm11.5 0h-2.5v7H19a1.5 1.5 0 0 0 1.493-1.356L20.5 18v-4a1.5 1.5 0 0 0-1.356-1.493L19 12.5Z" fill="currentColor"/></g></svg>
