<svg xmlns="http://www.w3.org/2000/svg" viewBox="0 0 26 26"><path d="M14.32 12a5 5 0 0 1 4.797 3.59l.753 2.564A3 3 0 0 1 16.992 22H7.008a3 3 0 0 1-2.878-3.846l.753-2.563A5 5 0 0 1 9.68 12h4.64Zm0 1.5H9.68a3.5 3.5 0 0 0-3.299 2.33l-.06.184-.752 2.563a1.5 1.5 0 0 0 1.295 1.916l.144.007h9.984a1.5 1.5 0 0 0 1.473-1.782l-.034-.14-.753-2.564a3.5 3.5 0 0 0-3.165-2.509l-.193-.005ZM12 2.25a4.25 4.25 0 1 1 0 8.5 4.25 4.25 0 0 1 0-8.5Zm0 1.5a2.75 2.75 0 1 0 0 5.5 2.75 2.75 0 0 0 0-5.5Z" fill="currentColor"/></svg>
