<svg xmlns="http://www.w3.org/2000/svg" viewBox="0 0 26 26"><path d="M4 2.594c.17 0 .34.025.503.074l7.423 2.227a.25.25 0 0 0 .144 0l7.427-2.227a1.75 1.75 0 0 1 2.253 1.676v13.212a1.75 1.75 0 0 1-1.247 1.676l-7.995 2.4a1.75 1.75 0 0 1-1.006 0l-8.005-2.4a1.75 1.75 0 0 1-1.247-1.676V4.344c0-.966.784-1.75 1.75-1.75Zm0 1.5a.25.25 0 0 0-.25.25v13.212c0 .11.072.208.178.24l7.327 2.195-.005-13.733-7.178-2.153a.25.25 0 0 0-.036-.008Zm15.985 0-.057.01-7.178 2.152.005 13.734 7.317-2.194a.25.25 0 0 0 .17-.176l.008-.064V4.344a.25.25 0 0 0-.322-.24Z" fill="currentColor"/></svg>
