<?xml version="1.0" encoding="utf-8"?>
<!-- Generator: Adobe Illustrator 21.0.0, SVG Export Plug-In . SVG Version: 6.00 Build 0)  -->
<svg version="1.1" id="Layer_1" xmlns="http://www.w3.org/2000/svg" xmlns:xlink="http://www.w3.org/1999/xlink" x="0px" y="0px"
	 viewBox="0 0 100 125" style="enable-background:new 0 0 100 125;" xml:space="preserve">
<g>
	<g>
		<path d="M58.9,5.2c-1.5,0-2.9,0.6-4,1.7L34.8,27.1H14.7c-3.2,0-5.8,2.6-5.8,5.8v34.3c0,3.2,2.6,5.8,5.8,5.8h20.2
			c6.7,6.7,13.4,13.5,20.1,20.2c1.1,1.1,2.5,1.7,4,1.7l0,0c1.5,0,2.9-0.5,4-1.5c1.2-1.1,1.9-2.6,1.9-4.2V10.9
			C64.8,7.8,62.2,5.2,58.9,5.2z M58.8,88.5c-6.9-6.9-13.7-13.8-20.6-20.7l-0.9-0.9H14.9V33.1h22.4l21.4-21.6v77H58.8z"/>
	</g>
	<g>
		<path d="M75.1,27.7c-4.1-1.5-5.8,5-1.8,6.4c15.1,5.6,15.1,26.2,0,31.7c-4,1.5-2.3,7.9,1.8,6.4C96.4,64.4,96.4,35.6,75.1,27.7z"/>
	</g>
</g>
</svg>
