<?xml version="1.0" encoding="utf-8"?>
<!DOCTYPE svg PUBLIC "-//W3C//DTD SVG 1.1//EN" "http://www.w3.org/Graphics/SVG/1.1/DTD/svg11.dtd">
<svg version="1.1" id="Layer_1" xmlns="http://www.w3.org/2000/svg" xmlns:xlink="http://www.w3.org/1999/xlink" x="0px" y="0px"
	 width="756.768px" height="159.791px" viewBox="101.616 199.971 756.768 159.791"
	 enable-background="new 101.616 199.971 756.768 159.791" xml:space="preserve">
<g>
	<g>
		<path fill="#B81B40" d="M312.267,310.77h-19.49v45.922h-33.373v-147.91h61.54c36.043,0,49.259,14.284,49.259,41.917v18.155
			c0,18.422-6.675,30.836-21.492,37.111l35.776,50.593h-39.514L312.267,310.77z M336.83,253.902c0-11.08-4.272-15.485-17.754-15.485
			h-26.432v43.519h26.432c14.284,0,17.754-5.073,17.754-16.152V253.902z"/>
		<path fill="#B81B40" d="M419.729,313.84v3.07c0,12.415,4.939,15.753,19.489,15.753c10.013,0,23.361-1.735,32.84-4.673
			l4.672,24.029c-9.745,3.604-25.497,6.941-40.715,6.941c-35.108,0-48.458-17.354-48.458-44.053v-25.363
			c0-23.361,10.412-43.251,46.455-43.251s43.785,21.358,43.785,44.853v22.693H419.729L419.729,313.84z M447.762,285.14
			c0-7.609-2.27-13.75-13.35-13.75c-11.079,0-14.684,6.274-14.684,13.75v4.672h28.033V285.14z"/>
		<path fill="#B81B40" d="M490.212,315.175v-25.097c0-22.159,10.413-43.785,48.858-43.785s48.858,21.493,48.858,43.785v25.097
			c0,22.16-10.413,43.786-48.858,43.786S490.212,337.335,490.212,315.175z M555.891,316.109v-26.832
			c0-10.278-5.34-16.019-16.82-16.019s-16.82,5.74-16.82,16.019v26.832c0,10.279,5.34,16.02,16.82,16.02
			S555.891,326.255,555.891,316.109z"/>
		<path fill="#B81B40" d="M605.683,356.691V204.376l32.038-4.405v156.854h-32.038V356.691z"/>
		<path fill="#B81B40" d="M687.38,313.84v3.07c0,12.415,4.939,15.753,19.49,15.753c10.012,0,23.361-1.735,32.839-4.673l4.673,24.029
			c-9.745,3.604-25.497,6.941-40.716,6.941c-35.108,0-48.457-17.354-48.457-44.053v-25.363c0-23.361,10.412-43.251,46.455-43.251
			s43.785,21.358,43.785,44.853v22.693H687.38L687.38,313.84z M715.414,285.14c0-7.609-2.27-13.75-13.35-13.75
			s-14.685,6.274-14.685,13.75v4.672h28.034V285.14z"/>
		<path fill="#B81B40" d="M826.479,356.691V285.14c0-4.939-2.27-7.743-7.743-7.743c-5.74,0-16.419,4.005-23.361,7.743v71.552
			h-32.037V248.562h23.761l3.338,8.276c13.349-6.407,30.703-10.412,43.118-10.412c18.422,0,24.829,13.75,24.829,34.708v75.69
			h-31.904V356.691z"/>
	</g>
	<path fill="#B81B40" d="M176.906,207.313c-45.521,0-75.29,33.106-75.29,76.224c0,44.187,31.371,76.225,79.294,76.225
		c11.614,0,26.165-2.403,36.71-7.342l-5.74-17.087c-10.413,3.337-20.157,5.339-31.504,5.339c-32.706,0-57.936-21.092-57.936-57.135
		c0-33.506,21.359-57.802,53.664-57.802c33.506,0,49.258,16.419,43.385,43.919c0,0-3.204,16.687-25.63,27.1l0,0
		c-3.204,1.468-3.204,1.468-8.01,3.471c-4.806,2.002-14.55,4.138-20.291,4.138c-6.675,0-6.541-3.604-5.874-8.009l0.667-3.472
		c3.471-0.935,5.339-1.335,14.417-4.138c20.291-6.274,28.968-13.884,28.968-27.233c0-12.014-9.611-19.356-23.895-19.356
		c-22.427,0-30.703,10.68-33.907,28.3l-4.005,22.561c-2.803,15.618,1.202,27.232,20.958,27.232c6.941,0,14.417-1.068,21.225-2.937
		c52.462-13.616,56.467-48.191,56.601-49.125C245.788,236.548,220.691,207.313,176.906,207.313z M164.625,268.854
		c1.202-7.075,5.34-12.148,13.75-12.148c4.939,0,7.743,2.403,7.743,5.74c0,4.939-3.471,8.143-11.747,10.679
		c-7.476,2.27-8.543,2.537-11.213,3.337L164.625,268.854z"/>
</g>
</svg>
