<svg xmlns="http://www.w3.org/2000/svg"
viewBox="0 0 8243 5827"
 xmlns:xlink="http://www.w3.org/1999/xlink">
 <defs>
  <style type="text/css">
   <![CDATA[
    .fil0 {fill:#BA324B;fill-rule:nonzero}
   ]]>
  </style>
 </defs>
 <g id="__x0023_Layer_x0020_1">
  <g id="_301726816">
   <g>
    <path class="fil0" d="M2357 3189l-180 0 0 502 -335 0 0 -1511 593 0c418,0 544,109 544,454l0 157c0,235 -66,319 -232,350l416 549 -447 0 -360 -502zm301 -580l0 0c0,-112 -79,-125 -207,-125l-274 0 0 438 274 0c184,0 207,-27 207,-155l0 -158z"/>
    <path class="fil0" d="M3465 3268l0 56c0,84 81,175 262,175 42,0 250,-100 305,-129l47 274c-67,43 -242,68 -409,68 -348,0 -535,-165 -535,-456l0 -296c0,-168 104,-403 548,-403 303,0 406,257 406,472l0 240 -624 0zm313 -321l0 0c0,-91 2,-129 -126,-129 -128,0 -187,37 -187,129l0 40 313 0 0 -40z"/>
    <path class="fil0" d="M4256 3306l0 -285c0,-240 120,-466 480,-466 380,0 477,226 477,466l0 285c0,174 -98,406 -477,406 -360,0 -480,-232 -480,-406zm628 -40l0 0 0 -303c0,-54 -20,-127 -147,-127 -139,0 -135,73 -135,127l0 303c0,86 -5,143 135,143 127,0 147,-57 147,-143z"/>
    <polygon class="fil0" points="5403,3691 5403,2086 5733,2073 5733,3691 "/>
    <path class="fil0" d="M6290 3268l0 56c0,84 75,175 180,175 118,0 244,-100 365,-129l69 274c-90,43 -265,68 -463,68 -371,0 -497,-165 -497,-456l0 -296c0,-168 113,-403 482,-403 362,0 466,257 466,472l0 240 -602 0zm307 -321l0 0c0,-91 -14,-129 -142,-129 -128,0 -164,37 -164,129l0 40 307 0 0 -40z"/>
    <path class="fil0" d="M7715 3691l0 -744c0,-60 2,-44 -37,-44 -57,0 -189,39 -250,44l0 744 -346 0 0 -1137 246 0 25 104c126,-85 307,-102 458,-102 169,0 250,106 250,324l0 811 -346 0z"/>
   </g>
   <path class="fil0" d="M965 2191c-465,0 -767,340 -767,716 0,468 300,798 811,798 128,0 262,25 399,-48l-76 -191c-95,68 -185,71 -333,71 -313,0 -590,-245 -590,-630 0,-320 239,-540 541,-540 354,0 499,131 461,466 0,0 -41,155 -274,233l-3 6c-5,2 -44,57 -75,26 -22,24 -140,67 -211,67 -56,0 -22,-77 -77,-108l36 21c29,-62 36,-30 140,-96 221,-45 315,-119 315,-254 0,-115 -115,-245 -268,-245 -204,0 -294,174 -331,339l-64 190c8,182 46,324 257,324 71,0 97,4 224,-66 561,-151 583,-492 545,-477 109,-354 -192,-603 -657,-603zm-96 562l0 0c-29,-8 34,-100 112,-100 39,0 80,33 80,77 0,63 -32,93 -153,92 -36,9 -68,43 -59,94l19 -163z"/>
  </g>
 </g>
</svg>
