<svg xmlns="http://www.w3.org/2000/svg" xmlns:xlink="http://www.w3.org/1999/xlink" version="1.1" x="0px" y="0px" viewBox="0 0 24 30" style="enable-background:new 0 0 24 24;" xml:space="preserve"><path d="M17.134,3.764h-0.001c-0.111-0.055-0.249-0.04-0.346,0.032l-6.365,4.819H7.013c-0.183,0-0.332,0.147-0.332,0.33v6.11  c0,0.183,0.149,0.331,0.332,0.331h3.408l6.366,4.817c0.059,0.042,0.129,0.065,0.199,0.065c0.046,0,0.094-0.011,0.146-0.034  c0.112-0.055,0.185-0.171,0.185-0.296V4.06C17.318,3.936,17.246,3.82,17.134,3.764z M16.655,4.727v14.547l-5.921-4.48  c-0.056-0.045-0.127-0.068-0.201-0.068H7.344V9.275h3.188c0.073,0,0.144-0.023,0.199-0.066L16.655,4.727z"/><text x="0" y="39" fill="#000000" font-size="5px" font-weight="bold" font-family="'Helvetica Neue', Helvetica, Arial-Unicode, Arial, Sans-serif">Created by Storm Icons</text><text x="0" y="44" fill="#000000" font-size="5px" font-weight="bold" font-family="'Helvetica Neue', Helvetica, Arial-Unicode, Arial, Sans-serif">from the Noun Project</text></svg>