<svg id="Layer_1" data-name="Layer 1" xmlns="http://www.w3.org/2000/svg" viewBox="0 0 34.21 25.73"><defs><style>.cls-1{fill:#323232;}</style></defs><title>Kamera</title><path class="cls-1" d="M21.18,19.12a5,5,0,1,0,5,5A5,5,0,0,0,21.18,19.12Z" transform="translate(-4.08 -9.81)"/><path class="cls-1" d="M33.33,12.76H16.57a0.88,0.88,0,0,0,0-.17V11.93a2.12,2.12,0,0,0-2.12-2.12H11.15A2.12,2.12,0,0,0,9,11.93v0.66a0.88,0.88,0,0,0,0,.17H9a5,5,0,0,0-5,5V30.58a5,5,0,0,0,5,5H33.33a5,5,0,0,0,5-5V17.72A5,5,0,0,0,33.33,12.76ZM21.18,32.18a8,8,0,1,1,8-8A8,8,0,0,1,21.18,32.18ZM35.76,16.7a1,1,0,0,1-1,1H31.89a1,1,0,0,1-1-1V15.59a1,1,0,0,1,1-1h2.88a1,1,0,0,1,1,1V16.7Z" transform="translate(-4.08 -9.81)"/></svg>