<svg xmlns="http://www.w3.org/2000/svg" width="680" height="147" fill="none">
  <path fill="#fff" d="M106.985 62.41h-9.932v23.362H80.125V10.615h31.259c18.282 0 25.05 7.224 25.05 21.33v9.257c0 9.362-3.384 15.682-10.945 18.84l18.168 25.73h-20.085l-16.587-23.361Zm12.523-28.886c0-5.641-2.143-7.898-9.026-7.898H97.053v22.118h13.429c7.22 0 9.026-2.597 9.026-8.237v-5.983ZM161.59 63.99v1.58c0 6.32 2.484 8.017 9.934 8.017 5.074 0 11.849-.903 16.7-2.374l2.369 12.188c-4.963 1.807-12.975 3.502-20.651 3.502-17.829 0-24.598-8.806-24.598-22.347V51.694c0-11.85 5.302-22.004 23.581-22.004 18.285 0 22.235 10.833 22.235 22.791v11.51h-29.57Zm14.223-14.554c0-3.837-1.125-6.996-6.768-6.996s-7.455 3.159-7.455 6.996v2.37h14.223v-2.37ZM197.357 64.67V51.92c0-11.288 5.306-22.23 24.832-22.23 19.52 0 24.822 10.942 24.822 22.23v12.75c0 11.284-5.302 22.231-24.822 22.231-19.526 0-24.832-10.947-24.832-22.23Zm33.406.45V51.464c0-5.19-2.709-8.124-8.574-8.124-5.875 0-8.578 2.935-8.578 8.124V65.12c0 5.19 2.703 8.127 8.578 8.127 5.865 0 8.574-2.936 8.574-8.127M272.283 6.102l-16.25 2.257v77.413h16.25V6.102ZM297.555 63.99v1.58c0 6.32 2.484 8.017 9.932 8.017 5.076 0 11.851-.903 16.698-2.374l2.373 12.188c-4.963 1.807-12.979 3.502-20.651 3.502-17.829 0-24.6-8.806-24.6-22.347V51.694c0-11.85 5.304-22.004 23.583-22.004 18.285 0 22.231 10.833 22.231 22.791v11.51h-29.566Zm14.223-14.554c0-3.837-1.128-6.996-6.775-6.996-5.642 0-7.448 3.159-7.448 6.996v2.37h14.223v-2.37ZM368.192 85.772V49.436c0-2.485-1.125-3.952-3.953-3.952-2.935 0-8.348 2.035-11.845 3.952v36.336h-16.252V30.818h12.073l1.697 4.176c6.771-3.272 15.575-5.304 21.891-5.304 9.367 0 12.639 6.995 12.639 17.602v38.48h-16.25ZM38.219 9.903C15.088 9.903 0 26.715 0 48.608c0 22.455 15.915 38.704 40.287 38.704 5.869 0 13.314-1.239 18.623-3.725l-2.937-8.688c-5.303 1.696-10.27 2.71-16.022 2.71-16.588 0-29.455-10.72-29.455-29 0-17.037 10.88-29.34 27.243-29.34 17.044 0 25.014 8.373 22.069 22.303 0 0-1.616 8.475-12.999 13.77l-.004-.008c-1.621.753-1.613.738-4.038 1.762-2.427 1.024-7.363 2.106-10.31 2.106-3.414 0-3.34-1.866-2.95-4.038l.31-1.787c1.788-.464 2.716-.696 7.296-2.094 10.315-3.181 14.742-7.062 14.742-13.812 0-6.127-4.89-9.848-12.106-9.848-11.405 0-15.594 5.427-17.221 14.346l-2.021 11.486c-1.395 7.915.62 13.82 10.632 13.82 3.554 0 7.336-.544 10.774-1.515 26.63-6.948 28.704-24.507 28.773-24.941C73.204 24.712 60.45 9.903 38.22 9.903Zm-6.227 31.216c.619-3.568 2.715-6.203 6.98-6.203 2.483 0 3.959 1.24 3.959 2.946 0 2.483-1.786 4.107-5.975 5.437-3.8 1.16-4.345 1.313-5.663 1.7l.699-3.88ZM584.704 8.7l-16.293-1.342-2.319 21.172c-.023-.095-.044-.19-.069-.282a29.883 29.883 0 0 0-.622-2.081l-.054-.148a29.746 29.746 0 0 0-.703-1.823c-.079-.192-.165-.378-.248-.568-.211-.47-.431-.93-.66-1.38-.085-.165-.168-.334-.255-.498a27.323 27.323 0 0 0-.99-1.711c-.043-.07-.092-.137-.139-.208a27.16 27.16 0 0 0-1.32-1.873 27.784 27.784 0 0 0-.908-1.123c-.075-.088-.143-.184-.219-.27-.033-.04-.072-.073-.105-.111-.441-.5-.896-.982-1.367-1.446-.097-.097-.201-.189-.301-.285-.395-.378-.8-.744-1.215-1.1-.076-.065-.148-.139-.225-.203-.063-.053-.128-.101-.193-.153a33.373 33.373 0 0 0-.9-.71c-.146-.113-.29-.227-.438-.337a32.24 32.24 0 0 0-1.38-.965l-6.938-4.57a.06.06 0 0 0 .016.011C538.087.911 526.644-.586 517.681.19c-1.225.105-2.446.26-3.66.464-11.65 1.98-34.28 11.557-33.309 36.994.1 2.679.48 5.194 1.072 7.563l-4.288.37-20.539 1.782.791 13.23 6.451 4.247 9.066-.785c-4.733 5.796-11.816 9.374-16.593 9.79-.145.011-.291.021-.437.029-2.771.133-6.231-.535-9.603-2.05-.086-.08-.176-.154-.261-.236-.068-.065-.139-.128-.207-.194a21.674 21.674 0 0 1-1.016-1.074c-.084-.096-.166-.194-.249-.293a20.936 20.936 0 0 1-1.661-2.242c-.022-.034-.046-.066-.066-.1a18.775 18.775 0 0 1-.717-1.255l-.187-.374c-.162-.326-.316-.66-.462-1-.059-.136-.118-.272-.174-.41a19.412 19.412 0 0 1-.489-1.36c-.008-.025-.017-.046-.023-.07-.153-.486-.28-.99-.397-1.501-.033-.15-.061-.302-.092-.454a20.624 20.624 0 0 1-.203-1.184c-.021-.16-.045-.318-.065-.48a20.56 20.56 0 0 1-.135-1.68c-.006-.145-.001-.285-.005-.43-.02-.87.014-1.742.104-2.608.017-.17.033-.339.055-.504.025-.2.056-.396.086-.592.059-.383.131-.764.219-1.142.057-.257.129-.502.196-.752.1-.37.211-.733.331-1.086.064-.188.122-.381.19-.564.196-.521.412-1.027.65-1.512.029-.06.062-.117.092-.176.27-.538.562-1.056.878-1.55.016-.023.035-.047.05-.072.38-.582.785-1.133 1.217-1.656.056-.069.116-.136.173-.204.234-.274.472-.54.718-.798l.188-.199c.294-.3.596-.59.905-.868l.151-.13c.452-.4.917-.778 1.392-1.131l.166-.121c.471-.345.95-.667 1.434-.969l.185-.113a26.3 26.3 0 0 1 3.293-1.697c.49-.212.978-.404 1.458-.579l.153-.056c.486-.174.965-.33 1.431-.47l.118-.035c.479-.14.943-.261 1.391-.365l.064-.016a24.547 24.547 0 0 1 3.385-.531 33 33 0 0 1 1.635-.097l-.814-13.614-6.45-4.248c-.779.03-1.557.077-2.333.144-1.14.097-2.274.242-3.402.432-10.821 1.839-31.866 10.743-30.965 34.38.484 12.716 7.385 21.656 15.736 27.108-.045-.03-.093-.055-.14-.085l6.453 4.25a41.09 41.09 0 0 0 8.41 4.248c4.743 1.758 9.453 2.523 13.341 2.335.232-.012.47-.028.709-.048.412-.036.836-.088 1.268-.15.144-.022.295-.054.443-.078.29-.048.581-.095.88-.156.18-.037.365-.083.546-.124.275-.061.548-.121.828-.193.198-.05.399-.11.599-.164.271-.074.541-.148.816-.23.211-.065.425-.138.639-.208.27-.086.54-.174.814-.27.219-.078.439-.16.659-.242.275-.1.548-.204.825-.313.226-.088.452-.185.68-.28a37.954 37.954 0 0 0 2.344-1.057 65.883 65.883 0 0 0 1.536-.783c.234-.125.468-.253.704-.384.278-.153.555-.312.832-.47.236-.14.47-.275.704-.418.278-.167.554-.339.831-.512.233-.148.467-.293.701-.447.278-.18.551-.366.826-.553.232-.157.461-.315.692-.476.276-.195.549-.396.822-.596.226-.165.451-.33.674-.499.277-.213.55-.432.826-.649.216-.172.432-.341.647-.516.279-.23.552-.468.827-.704.204-.176.412-.347.613-.528.036-.032.075-.063.111-.096.056-.05.109-.108.166-.16a47.558 47.558 0 0 0 2.107-2.023c.077-.077.153-.15.228-.227a45.357 45.357 0 0 0 2.009-2.237c.07-.08.146-.154.214-.237.069-.082.133-.172.201-.256a45.29 45.29 0 0 0 1.059-1.353c.117-.156.24-.308.356-.465.449-.617.884-1.245 1.298-1.887l.055-.079c.139-.216.265-.44.4-.658.204-.33.408-.656.6-.991.151-.263.291-.532.436-.799.179-.333.363-.664.532-1.001l.083-.155c.152-.305.288-.621.432-.932.104-.224.213-.445.312-.672.08-.183.15-.37.228-.555.38.266.76.527 1.145.78-.048-.032-.097-.057-.145-.088h.001l6.939 4.571c7.76 5.11 16.716 7.408 23.41 7.087.25-.013.507-.032.763-.052.443-.04.899-.095 1.364-.164.155-.023.316-.055.473-.082.315-.052.63-.103.952-.169.192-.038.39-.088.584-.132.296-.065.59-.13.891-.208.215-.055.432-.118.651-.177.289-.082.578-.16.873-.25.227-.069.459-.145.685-.22.292-.094.583-.189.878-.291.234-.083.473-.172.709-.26.296-.109.589-.218.887-.338.242-.096.484-.197.728-.298.297-.123.592-.247.889-.38.249-.11.497-.224.747-.34.297-.135.593-.276.89-.42a66.044 66.044 0 0 0 1.651-.843c.252-.135.507-.27.757-.412a54.104 54.104 0 0 0 2.55-1.508 45.193 45.193 0 0 0 1.646-1.078c.244-.168.49-.333.734-.506.3-.21.598-.43.893-.647.241-.177.483-.353.72-.534.299-.227.593-.462.887-.697.233-.185.466-.366.697-.557.303-.248.599-.505.899-.761.216-.187.434-.37.649-.56l.121-.104c.063-.056.122-.119.182-.176.777-.7 1.532-1.425 2.264-2.172.081-.084.164-.163.245-.247a47.271 47.271 0 0 0 2.161-2.405c.075-.087.158-.167.23-.255.074-.09.142-.186.217-.277.389-.475.768-.96 1.137-1.452.128-.17.259-.334.384-.504.484-.662.951-1.337 1.398-2.028l.058-.086c.148-.23.283-.47.427-.704.219-.355.441-.708.649-1.07.162-.282.311-.57.464-.855.196-.358.394-.716.579-1.082l.017-.035-.46 4.213 6.074 5.67 16.292 1.344 5.462-49.883-6.073-5.67Zm-24.455 23.503v.007c-.004-.244.006-.484-.004-.731v.003c.01.242 0 .48.004.72Zm-.181-3.196-.001-.027-.002-.013.002.013.001.027Zm-.419-2.792-.086-.433c.01.06.025.116.037.176l.049.257Zm-.457-2.099a26.585 26.585 0 0 0-.197-.736c.028.102.061.196.089.298.037.144.073.292.108.438Zm-.731-2.52c.047.135.08.279.124.416-.089-.276-.18-.548-.276-.817.032.087.067.167.098.253l.054.148Zm-.654-1.705c-.076-.19-.155-.383-.235-.57l.133.305c.036.086.066.178.102.265Zm-.967-2.123c-.031-.058-.059-.121-.091-.18l.047.09c.015.03.028.06.044.09Zm-1.289-2.3.009.014c-.08-.126-.167-.243-.249-.368.033.05.069.097.102.148.044.07.095.136.138.206Zm-1.254-1.809c-.102-.137-.209-.27-.314-.407.036.047.076.091.11.138l.204.269Zm-1.14-1.425c-.15-.179-.308-.354-.465-.528.055.061.115.116.169.177.1.115.199.233.296.35Zm-1.452-1.572c-.141-.144-.284-.29-.429-.43.073.068.147.136.219.207.073.072.14.15.21.223Zm-30.014 48.337c-.159.013-.315.024-.468.032-2.974.144-6.691-.573-10.311-2.197-.227-.207-.453-.413-.669-.63-.08-.078-.154-.164-.232-.244a23.09 23.09 0 0 1-.979-1.065 22.126 22.126 0 0 1-.713-.883c-.091-.121-.186-.242-.276-.365a20.35 20.35 0 0 1-.798-1.164c-.024-.037-.049-.072-.07-.108a19.943 19.943 0 0 1-.771-1.35c-.068-.131-.133-.266-.2-.4-.176-.352-.341-.71-.497-1.075-.063-.147-.127-.294-.187-.443-.194-.481-.37-.97-.527-1.464l-.025-.072a21.186 21.186 0 0 1-.424-1.615 15.83 15.83 0 0 1-.097-.485 19.81 19.81 0 0 1-.218-1.273c-.025-.172-.05-.343-.07-.518a22.908 22.908 0 0 1 .22-6.874c.04-.207.084-.41.13-.611.195-.88.453-1.745.772-2.588.211-.561.442-1.105.698-1.627.032-.065.066-.126.1-.19.292-.58.605-1.136.945-1.666.017-.03.039-.054.056-.082a19.344 19.344 0 0 1 2.267-2.86c.066-.068.132-.142.2-.211.317-.323.641-.633.973-.933l.164-.143c.488-.43.987-.835 1.496-1.215.06-.045.121-.088.181-.132a26.776 26.776 0 0 1 3.512-2.156c.526-.27 1.052-.518 1.576-.748l.192-.084c.53-.228 1.052-.434 1.568-.621l.166-.061a27.781 27.781 0 0 1 3.161-.936l.071-.018c.5-.116.98-.212 1.432-.288.701-.12 1.442-.214 2.214-.281 4.163-.361 9.207.112 13.719 1.943 2.511 2.62 4.301 6.145 4.805 10.797 1.695 15.536-14.317 26.144-23.086 26.904Zm-24.184-18.1c.03.164.061.328.097.488a21.476 21.476 0 0 1-.368-2.152c.016.13.035.26.053.39.06.432.132.858.218 1.274Zm1.106 3.713c.05.123.102.244.154.367.156.365.321.723.496 1.073.061.123.121.247.185.368a19.927 19.927 0 0 1-.835-1.808Zm1.526-19.14h.001-.001Zm.964 23.603c.09.125.184.245.277.366.231.302.468.595.712.882l.055.07a21.255 21.255 0 0 1-1.044-1.318Zm5.005 22.034c-.161-.062-.325-.12-.488-.185.163.064.327.123.488.185Zm-1.112-17.933c.212.173.427.343.644.508.045.036.091.07.135.108-.263-.2-.523-.404-.779-.616Zm5.416 19.339-.084-.022.084.022Zm-2.116-.63c-.188-.062-.376-.126-.564-.19.188.064.376.128.564.19Zm-3.605-18.965a23.343 23.343 0 0 1-2.274-2.221 23.585 23.585 0 0 0 1.775 1.77c.165.148.325.303.493.446l.006.005Zm-.947-31.594a25.024 25.024 0 0 1 3.417-2.511l-.198.123a24.83 24.83 0 0 0-1.542 1.04l-.18.132c-.515.385-1.014.79-1.497 1.216Zm10.357-5.562a28.07 28.07 0 0 1 1.554-.408l-.059.015c-.502.117-1 .249-1.495.393Zm-.012.004c-.556.163-1.108.343-1.654.539l-.166.061c-1.141.415-2.255.9-3.336 1.454l-.178.093a29.565 29.565 0 0 1 5.334-2.147Zm-10.506 5.698h-.002c-.334.302-.658.613-.973.934-.068.07-.135.143-.201.214.377-.398.769-.781 1.176-1.148Zm-58.384 64.66.403.12-.403-.12Zm2.824.725.389.081c-.128-.027-.258-.052-.389-.081Zm5.405.737c.067.003.132.001.198.005-.066-.004-.131-.002-.198-.005ZM441.82 68.963c.107.081.211.164.318.243-.338-.25-.668-.508-.991-.775v.001c.221.183.447.359.673.53Zm-7.64-11.95c.03.151.059.303.092.451a20.042 20.042 0 0 1-.345-2.006l.051.372c.056.396.123.79.202 1.184Zm-.25-6.887c.026-.2.057-.396.088-.593-.031.197-.062.392-.088.593Zm.132-.84c.017-.11.036-.218.056-.326-.023.108-.039.218-.056.325Zm.892-3.295c.196-.522.41-1.028.649-1.514l-.001.002c-.24.493-.457.998-.648 1.512Zm.401 14.817c.145.34.3.673.463 1 .056.112.11.225.168.336a18.384 18.384 0 0 1-.631-1.336Zm.339-16.505a17.044 17.044 0 0 0 .001-.001h-.001Zm.928-1.621h.001-.001Zm.906 21.937c.086.115.171.227.259.34.213.28.435.554.663.821l.05.063a19.97 19.97 0 0 1-.972-1.224Zm3.312 3.552.026.022a21.192 21.192 0 0 1-1.152-1.049c.069.068.138.13.208.196.298.287.605.563.918.83Zm-1.026 15.95c-.084-.038-.17-.08-.252-.12.082.038.168.082.252.12Zm3.338-47.63c-.553.34-1.093.7-1.618 1.081l-.167.123c-.48.357-.945.734-1.393 1.13h-.002a23.457 23.457 0 0 1 4.746-3.215l-.107.056c-.495.259-.982.534-1.459.825Zm3.291-1.697-.177.078.177-.078Zm5.951-1.79c-.447.077-.891.166-1.332.268l-.068.016c-.447.106-.911.227-1.388.367-.04.01-.08.024-.119.036a25.793 25.793 0 0 1 2.907-.687Zm-12.57 5.95c-.311.281-.613.571-.905.87-.064.064-.125.132-.187.199-.248.259-.488.525-.72.798l-.001.002a19.551 19.551 0 0 1 1.813-1.868Zm-5.949 11.677c-.045.485-.078.97-.099 1.457-.011.383-.013.766-.005 1.15v.004c-.017-.907.019-1.776.104-2.611Zm3.052 32.045-.052-.03.052.03Zm5.432 2.495.361.138c-.046-.018-.097-.03-.146-.049-.07-.027-.143-.06-.215-.09Zm58.096-16.672-.06-.036.06.036Zm2.83 1.421c.099.047.198.096.298.141-.038-.017-.075-.03-.114-.048-.062-.028-.122-.064-.184-.093Zm15.371 3.875c.168.005.336.012.501.014-.165-.002-.333-.009-.501-.014Zm-4.18-.413c.141.022.281.047.421.069-.14-.021-.28-.047-.421-.07Zm2.307.297c.142.013.282.021.424.032-.142-.01-.282-.019-.424-.032Zm6.968-.23c.23-.04.457-.077.692-.123h-.002c-.234.048-.462.084-.69.122Zm2.91-.669c.26-.072.518-.141.78-.221h-.001c-.261.08-.52.15-.779.221Zm1.466-.441-.004.001c.293-.094.585-.19.882-.293h-.001c-.296.104-.587.197-.877.292Zm1.586-.552-.004.001c.298-.11.592-.22.891-.338h-.001c-.298.118-.591.227-.886.337Zm3.25-1.355-.003.001c.297-.137.596-.277.895-.424l-.002.002c-.295.144-.592.284-.89.421Zm1.646-.799-.002.002c.3-.152.598-.307.9-.467l-.003.001c-.297.158-.595.313-.895.465Zm1.654-.877-.002.001c.3-.165.599-.336.899-.51l-.001.001a48.39 48.39 0 0 1-.896.508Zm1.65-.953h-.001c.301-.181.603-.368.903-.557l-.003.002c-.298.188-.597.373-.899.555Zm1.648-1.032-.002.001c.3-.196.6-.398.9-.603l-.004.003a56.78 56.78 0 0 1-.894.599Zm1.631-1.107c.3-.21.599-.43.897-.65l-.006.005a56.15 56.15 0 0 1-.891.645Zm1.613-1.181-.002.002c.3-.229.596-.465.892-.7-.296.235-.591.471-.89.698Zm1.583-1.252-.001.001c.304-.25.602-.508.901-.767v.002c-.3.257-.597.516-.9.764Zm1.548-1.323c.103-.09.203-.188.305-.281l-.001.001c-.103.092-.201.19-.304.28Zm4.975-5.104-.002.002c.151-.178.3-.354.448-.534h-.001a38.53 38.53 0 0 1-.445.532Zm1.582-1.983c.115-.153.235-.3.348-.456-.113.152-.232.302-.346.454l-.002.002Zm1.783-2.534v.001c.168-.261.325-.53.488-.793l-.008.012c-.16.26-.315.524-.48.78Zm1.135-1.86v.001c.16-.281.309-.57.464-.854h-.002c-.153.285-.301.573-.462.853Zm1.041-1.935c.192-.384.372-.777.555-1.17l-.003.003c-.181.392-.36.783-.552 1.167Zm.889-1.892v.002c.204-.472.392-.954.579-1.436l-.007.016c-.18.476-.371.95-.572 1.418Zm.788-1.957-.001.001.001-.001Zm.818-2.534-.006.012.006-.012Zm.572-2.325v.006c.088-.42.177-.84.25-1.264-.073.425-.161.84-.25 1.258Zm.388-2.176v.003a38.576 38.576 0 0 1 0-.003Zm.277-2.708v.003c.02-.31.048-.617.059-.93-.011.313-.039.62-.059.927Z"/>
  <path fill="#fff" d="m561.784 66.444-1.793 16.377 6.073 5.672 16.294 1.343 1.792-16.379-6.072-5.67-16.294-1.343Z"/>
  <path fill="#C7C7C6" d="M536.827 18.687c-5.268-3.47-12.134-4.368-17.515-3.903-.742.064-1.481.159-2.215.283-.479.081-.956.177-1.43.288l-.072.016c-.502.119-1.001.25-1.496.395l-.124.037c-.518.154-1.032.323-1.54.505l-.166.06c-.528.193-1.051.4-1.568.622l-.194.086c-.533.233-1.058.482-1.575.747l-.204.107a26.324 26.324 0 0 0-3.308 2.049c-.06.044-.121.087-.179.132a22.83 22.83 0 0 0-1.497 1.215c-.033.028-.065.05-.097.078-.022.02-.043.043-.067.063-.334.3-.658.613-.972.935-.071.069-.136.142-.203.213-.266.279-.524.566-.773.86-.047.053-.096.101-.139.155-.018.02-.03.044-.046.064a19.026 19.026 0 0 0-1.31 1.778c-.01.019-.025.035-.038.054l-.016.028a18.97 18.97 0 0 0-.946 1.666c-.021.043-.049.08-.069.123-.011.021-.019.045-.031.068a19.397 19.397 0 0 0-.697 1.627c-.023.056-.049.106-.069.162-.019.046-.027.095-.043.14-.21.583-.39 1.176-.54 1.776-.012.046-.029.087-.041.132-.03.123-.052.254-.079.378-.095.406-.174.816-.235 1.229-.035.211-.067.423-.094.636-.01.08-.026.157-.036.239l.008.005-.008-.005a23.074 23.074 0 0 0 .302 7.17c.138.71.312 1.41.522 2.102l.026.072c.156.5.336.988.526 1.465.06.148.124.293.186.44.156.367.322.724.496 1.075.068.134.134.27.203.404.241.46.496.912.768 1.346.023.039.052.075.075.113.253.398.52.783.794 1.16.091.123.184.245.276.366.232.301.47.595.712.881.06.07.114.147.175.215l.023.014a24.063 24.063 0 0 0 4.862 4.22l6.94 4.57a23.912 23.912 0 0 1-5.058-4.447 23.258 23.258 0 0 1-.99-1.248 22.023 22.023 0 0 1-.797-1.164c-.023-.037-.049-.072-.072-.11a20.013 20.013 0 0 1-.768-1.347c-.069-.132-.135-.267-.203-.401-.174-.351-.34-.71-.496-1.075-.062-.148-.126-.294-.185-.443a19.662 19.662 0 0 1-.527-1.464l-.026-.072a21.186 21.186 0 0 1-.424-1.614c-.035-.16-.067-.325-.099-.487a22.066 22.066 0 0 1-.285-1.79 21.843 21.843 0 0 1-.147-1.803 22.985 22.985 0 0 1 .167-3.82c.026-.212.06-.422.093-.632.032-.208.068-.416.105-.62.039-.206.086-.408.131-.61a19.09 19.09 0 0 1 1.469-4.214l.1-.192c.291-.578.606-1.135.946-1.666.017-.028.038-.054.056-.082.405-.626.842-1.218 1.308-1.78.06-.072.124-.144.185-.218.252-.294.508-.582.775-.86.065-.07.13-.142.2-.212.314-.322.641-.634.973-.933.055-.05.109-.095.164-.143.485-.43.985-.834 1.496-1.214l.18-.132c.505-.37 1.021-.716 1.541-1.04a26.914 26.914 0 0 1 1.767-1.01c.068-.036.135-.072.204-.106.527-.27 1.052-.52 1.576-.748l.192-.086a30.741 30.741 0 0 1 1.567-.621l.165-.06c.527-.188 1.04-.356 1.541-.505l.126-.038c.516-.15 1.016-.281 1.496-.394l.07-.016c.502-.116.98-.212 1.432-.288.703-.12 1.443-.215 2.215-.283 5.38-.467 12.247.433 17.513 3.903l-6.938-4.571Z"/>
  <path fill="#C7C7C6" d="m502.265 50.539 6.94 4.57c.791.903 1.65 1.743 2.571 2.512l-6.94-4.57c-.921-.77-1.78-1.61-2.571-2.512M504.836 53.052l6.94 4.57a25.259 25.259 0 0 0 2.315 1.722l-6.94-4.57a25.24 25.24 0 0 1-2.315-1.722"/>
  <path fill="#C7C7C6" d="M566.709 43.097c.052-.302.094-.61.139-.916.041-.293.095-.58.129-.875.014-.107.015-.218.027-.323.055-.499.088-1.003.121-1.508.019-.31.047-.617.058-.93.02-.582.016-1.172.006-1.764-.004-.213.01-.422.002-.638 0-.03-.006-.061-.006-.092-.03-.835-.09-1.668-.178-2.499a37.514 37.514 0 0 0-.34-2.353c-.039-.227-.084-.448-.127-.672a37.387 37.387 0 0 0-.361-1.655c-.052-.208-.102-.418-.156-.624a32.01 32.01 0 0 0-.62-2.081c-.019-.05-.039-.097-.055-.147a30.413 30.413 0 0 0-.704-1.822c-.079-.192-.165-.38-.248-.568-.211-.471-.431-.931-.659-1.38-.086-.167-.168-.335-.256-.5a26.953 26.953 0 0 0-.99-1.71c-.043-.07-.092-.137-.139-.208a27.69 27.69 0 0 0-2.227-2.996c-.076-.088-.144-.184-.22-.27-.034-.04-.072-.074-.105-.112a28.33 28.33 0 0 0-1.367-1.444c-.097-.098-.2-.19-.301-.286a29.25 29.25 0 0 0-1.215-1.1c-.076-.065-.148-.138-.225-.204-.063-.052-.128-.1-.193-.152a30.496 30.496 0 0 0-.9-.71c-.146-.112-.29-.228-.438-.336a33.585 33.585 0 0 0-1.38-.967l-6.938-4.57c.468.309.926.633 1.38.967.145.107.288.22.43.33.306.234.61.47.908.717.14.116.278.236.415.353.416.355.82.722 1.215 1.1.101.098.205.19.304.288.47.463.925.946 1.366 1.444.11.124.214.254.322.379.312.367.614.741.91 1.127a27.264 27.264 0 0 1 1.32 1.873c.046.07.095.136.138.207.349.552.677 1.124.99 1.712.088.162.17.332.255.497.229.45.449.91.661 1.38.082.188.168.376.248.568.25.592.486 1.197.702 1.823l.054.146c.23.674.435 1.37.623 2.083.053.204.103.413.153.621.134.543.254 1.095.363 1.659.043.221.088.443.128.668.137.781.25 1.566.34 2.355.089.842.147 1.676.177 2.5.008.242 0 .48.004.722.01.594.015 1.187-.006 1.77-.011.313-.039.62-.059.928a33.929 33.929 0 0 1-.119 1.51c-.045.403-.101.8-.158 1.197-.044.307-.086.615-.138.92-.073.422-.161.84-.25 1.256-.059.286-.115.574-.18.857-.12.494-.255.982-.394 1.469-.052.184-.097.373-.152.557a37.403 37.403 0 0 1-.664 1.975c-.066.182-.145.358-.216.538-.18.478-.371.95-.572 1.42-.106.245-.225.483-.337.726-.181.39-.36.782-.552 1.166-.185.366-.381.723-.579 1.083-.153.284-.301.572-.462.852-.211.366-.434.722-.655 1.08-.16.26-.315.524-.48.78a43.01 43.01 0 0 1-1.399 2.03c-.124.17-.254.334-.382.502a43.103 43.103 0 0 1-1.586 1.986 47.81 47.81 0 0 1-2.161 2.405c-.079.084-.164.163-.244.247a50.775 50.775 0 0 1-2.264 2.172c-.103.091-.201.188-.304.28-.213.189-.431.372-.648.558-.3.257-.597.515-.9.764-.229.188-.463.37-.693.553-.294.237-.591.47-.89.7-.238.182-.481.358-.722.534-.294.219-.591.434-.89.646-.244.172-.492.34-.737.507-.297.202-.595.402-.895.6a58.328 58.328 0 0 1-4.057 2.399c-.836.444-1.683.865-2.541 1.262-.25.115-.498.23-.746.34-.295.13-.592.256-.89.38-.244.1-.486.202-.728.298-.294.116-.589.228-.886.337-.237.088-.474.178-.709.26-.296.103-.587.198-.877.292-.228.073-.46.15-.686.22-.296.09-.585.168-.874.25-.218.058-.436.122-.651.177-.299.077-.595.141-.889.207-.195.043-.394.093-.586.133-.322.065-.638.117-.953.17-.156.025-.316.058-.472.08-.705.106-1.415.177-2.127.215-5.021.242-11.313-.99-17.42-3.777a44.57 44.57 0 0 1-5.99-3.308h.001l6.939 4.57c7.761 5.11 16.716 7.407 23.41 7.084.25-.012.507-.029.763-.05.443-.039.899-.094 1.365-.163.154-.023.315-.056.472-.08.315-.055.63-.105.952-.172.192-.039.39-.088.584-.132.296-.065.59-.13.891-.207.215-.054.433-.118.651-.178.289-.08.578-.159.873-.248.227-.07.459-.147.687-.22.29-.095.581-.19.876-.292.236-.083.473-.172.709-.26.296-.11.589-.22.887-.337.242-.097.484-.198.728-.3.297-.123.592-.247.889-.38.249-.107.497-.223.748-.34.554-.253 1.102-.519 1.644-.796a55.457 55.457 0 0 0 3.305-1.83c.3-.183.6-.368.898-.557.252-.156.5-.314.749-.476.3-.196.597-.398.897-.6.244-.168.49-.335.734-.507.3-.21.598-.43.893-.648a40.654 40.654 0 0 0 1.608-1.23c.232-.184.465-.367.696-.556.303-.249.599-.506.899-.762.216-.187.434-.37.649-.561.04-.035.083-.068.121-.104.063-.056.122-.119.183-.175.777-.7 1.531-1.425 2.263-2.173.081-.083.164-.162.245-.245a47.876 47.876 0 0 0 2.161-2.406c.075-.088.158-.166.23-.255.074-.09.142-.186.217-.277.389-.476.768-.961 1.137-1.453.128-.168.259-.332.384-.503.484-.663.951-1.338 1.398-2.03.02-.027.04-.054.058-.083.148-.23.283-.47.427-.704.22-.356.441-.71.649-1.072.163-.28.311-.568.464-.854.198-.358.394-.716.579-1.082.027-.056.06-.11.087-.164.164-.33.312-.668.465-1.003.111-.241.231-.48.335-.724.206-.472.396-.952.58-1.434.068-.175.145-.346.21-.523l.016-.042c.234-.637.448-1.282.648-1.936.055-.18.096-.365.148-.546.124-.428.25-.856.356-1.292.015-.062.026-.127.04-.188.068-.28.122-.566.182-.85.088-.418.177-.838.25-1.264"/>
  <path fill="#fff" d="M560.067 28.982c2.808 25.85-23.838 43.494-38.415 44.758-.253.023-.507.04-.761.052-14.388.694-39.22-10.715-40.179-36.142-.969-25.438 21.66-35.015 33.311-36.995a45.713 45.713 0 0 1 3.66-.464c15.944-1.381 39.738 4.433 42.384 28.79ZM521.693 59c8.768-.76 24.782-11.368 23.086-26.904-1.586-14.64-15.88-18.141-25.463-17.31-.773.066-1.513.16-2.217.28-7.002 1.182-20.611 6.942-20.026 22.24.576 15.29 15.51 22.145 24.15 21.725.154-.007.31-.017.47-.03"/>
  <path fill="#C7C7C6" d="m440.614 85.261-6.451-4.249c7.211 4.75 15.531 6.884 21.752 6.584.232-.012.469-.028.709-.048 13.551-1.175 38.32-17.576 35.709-41.607a29.2 29.2 0 0 0-.234-1.623l6.45 4.249c.092.536.172 1.064.235 1.623 2.611 24.032-22.159 40.433-35.709 41.606a16.48 16.48 0 0 1-.71.048c-6.221.301-14.541-1.833-21.751-6.583Z"/>
  <path fill="#C7C7C6" d="M498.784 50.19a28.057 28.057 0 0 0-.235-1.623l-6.45-4.25c.233 1.333.369 2.68.406 4.032a31.79 31.79 0 0 1-.197 4.8 31.7 31.7 0 0 1-.689 3.806 32.757 32.757 0 0 1-1.072 3.508 34.589 34.589 0 0 1-1.494 3.462 36.429 36.429 0 0 1-2.049 3.603 41.019 41.019 0 0 1-2.969 4.041 46.373 46.373 0 0 1-4.723 4.885c-7.348 6.571-16.275 10.538-22.688 11.094-.24.02-.477.037-.708.048-6.221.3-14.542-1.835-21.753-6.584l6.451 4.25c7.21 4.747 15.532 6.882 21.753 6.582.23-.01.469-.027.709-.047 6.412-.556 15.34-4.524 22.685-11.096a45.664 45.664 0 0 0 4.724-4.883 41.232 41.232 0 0 0 2.97-4.04 37.49 37.49 0 0 0 2.05-3.605 34.407 34.407 0 0 0 1.494-3.462c.42-1.14.777-2.31 1.07-3.508a31.674 31.674 0 0 0 .715-11.014"/>
  <path fill="#C7C7C6" d="m476.471 58.97 6.45 4.249-18.722 1.622-6.451-4.249 18.723-1.623ZM455.267 19.03l6.45 4.249.814 13.615-6.452-4.25-.812-13.613Z"/>
  <path fill="#DADADA" d="m434.888 46.143 6.451 4.25a17.514 17.514 0 0 0-.577 1.9l-6.452-4.247c.162-.66.356-1.294.578-1.903Z"/>
  <path fill="#C7C7C6" d="M456.08 32.646c-.546.017-1.091.05-1.636.097a24.121 24.121 0 0 0-3.382.53l-.066.015c-.446.106-.912.227-1.389.367-.04.01-.08.024-.117.036-.482.143-.96.299-1.432.468l-.158.057c-.49.18-.976.372-1.456.578l-.177.078a27.1 27.1 0 0 0-1.468.696l-.187.098c-.495.258-.981.534-1.457.825l-.187.113c-.489.306-.967.63-1.433.97l-.167.12c-.48.358-.945.735-1.394 1.132-.028.025-.059.046-.088.072l-.059.057c-.312.28-.614.57-.907.87l-.189.198c-.246.26-.486.526-.717.799-.043.049-.087.094-.13.145-.016.017-.029.039-.044.057-.436.53-.843 1.083-1.217 1.657l-.035.047-.013.026c-.32.5-.613 1.017-.88 1.547-.02.04-.044.075-.065.115l-.026.063c-.24.493-.457.998-.65 1.512-.019.052-.046.099-.066.15l.007.006c-.228.623-.42 1.258-.576 1.903l-.009-.006c-.027.114-.046.234-.074.348-.041.19-.081.378-.12.568-.036.19-.065.38-.097.572-.031.198-.063.394-.087.595-.01.075-.025.145-.033.221-.011.092-.013.19-.021.282a22.44 22.44 0 0 0-.078.969c-.008.163-.018.324-.024.49-.01.375-.01.76-.002 1.148.001.094-.004.183-.002.278l.004.154a22.028 22.028 0 0 0 .404 3.345c.032.15.059.302.094.45.114.514.242 1.016.394 1.504l.024.068c.147.467.312.917.49 1.36.056.139.116.275.174.412.146.34.3.673.463 1 .063.124.123.25.185.373.226.43.463.85.716 1.254.022.036.048.07.07.105.234.37.484.73.738 1.079.084.115.172.228.258.34.216.281.436.554.664.821.054.064.105.135.161.199l.087.093c.328.37.666.73 1.017 1.072.067.068.137.13.207.196.3.287.605.563.918.83.055.047.106.1.16.146.051.04.102.076.15.116.221.183.446.359.673.53.105.082.208.166.315.245.334.245.672.484 1.017.71l6.451 4.248a25.187 25.187 0 0 1-1.018-.71c-.104-.079-.206-.162-.313-.242-.227-.173-.453-.35-.675-.533-.104-.085-.206-.173-.308-.26a22.054 22.054 0 0 1-.92-.832c-.069-.065-.138-.128-.206-.194a21.105 21.105 0 0 1-1.015-1.073c-.087-.097-.167-.195-.252-.294a19.077 19.077 0 0 1-.661-.819c-.086-.113-.174-.225-.256-.341-.259-.35-.508-.71-.743-1.082-.021-.034-.047-.066-.068-.1-.254-.41-.492-.829-.715-1.255-.065-.123-.125-.249-.185-.373a18.521 18.521 0 0 1-.464-1 18.927 18.927 0 0 1-.664-1.77c-.007-.026-.016-.047-.024-.07-.151-.487-.28-.99-.395-1.502-.034-.15-.061-.302-.093-.454a20.971 20.971 0 0 1-.2-1.184 21.124 21.124 0 0 1-.203-2.16c-.006-.145-.002-.285-.005-.43a20.399 20.399 0 0 1 .16-3.112c.025-.2.057-.396.087-.59.03-.194.062-.387.098-.577.298-1.552.797-3.059 1.487-4.481l.091-.176c.281-.556.591-1.098.929-1.622.377-.582.785-1.133 1.216-1.656.057-.069.116-.136.175-.204.232-.274.473-.54.717-.798.063-.066.124-.133.189-.199.294-.3.595-.59.904-.868l.151-.13c.452-.4.916-.776 1.393-1.131l.167-.121c.469-.344.949-.667 1.432-.968l.187-.114a26.362 26.362 0 0 1 4.749-2.276l.152-.056c.488-.174.965-.33 1.433-.47l.116-.035c.479-.14.944-.261 1.39-.365l.066-.016a24.57 24.57 0 0 1 3.384-.531 33.294 33.294 0 0 1 1.635-.097l-6.451-4.248Z"/>
  <path fill="#fff" d="M452.934 19.178c.76-.066 1.538-.115 2.333-.144l.813 13.613c-.546.017-1.091.05-1.636.097a24.1 24.1 0 0 0-2.052.262c-6.508 1.1-19.16 6.453-18.616 20.665.546 14.221 14.418 20.593 22.459 20.204.144-.007.289-.017.437-.03 6.051-.525 15.82-6.11 19.799-14.874l-18.723 1.623-.789-13.23 20.538-1.78 10.414-.904 4.189-.362c.091.537.172 1.065.235 1.623 2.61 24.031-22.159 40.432-35.71 41.607-.24.02-.477.037-.709.048-13.374.643-36.449-9.96-37.349-33.607-.901-23.637 20.144-32.54 30.965-34.38a41.588 41.588 0 0 1 3.402-.431ZM584.704 8.7l-5.463 49.883-16.292-1.343 5.462-49.882L584.704 8.7Z"/>
  <path fill="#E4E4E3" d="m584.704 8.7 6.073 5.671-5.462 49.883-6.074-5.671L584.704 8.7Z"/>
  <path fill="#C7C7C6" d="m579.241 58.583 6.074 5.67-16.292-1.342-6.076-5.67 16.294 1.342Z"/>
  <path fill="#fff" d="m578.076 67.787-1.794 16.377-16.291-1.343 1.792-16.377 16.293 1.343Z"/>
  <path fill="#E4E4E3" d="m578.076 67.787 6.075 5.67-1.795 16.378-6.073-5.67 1.793-16.378Z"/>
  <path fill="#C7C7C6" d="m576.284 84.164 6.073 5.67-16.292-1.342-6.074-5.67 16.293 1.342Z"/>
  <path fill="#fff" d="M18.143 138.457c3.92 0 6.47-1.961 6.47-5.608v-3.137c0-2.783-1.568-4.315-3.842-4.707 2.313-.861 2.98-2.352 2.98-4.352v-3.018c0-3.454-2.04-5.296-6.158-5.296H7.515v26.118h10.628Zm3.098-5.881c0 1.961-1.177 2.979-3.569 2.979h-6.784v-8.942h6.588c2.588 0 3.765 1.139 3.765 3.216v2.747Zm-.862-11.923c0 1.883-.982 3.059-3.531 3.059h-5.96v-8.469h6.51c2.04 0 2.98.784 2.98 2.469v2.941Zm12.626-1.293h-3.294v19.097h3.294V119.36Zm0-7.805h-3.294v4.746h3.294v-4.746Zm21.217 13.374c0-3.649-1.648-5.961-5.609-5.961-2.43 0-4.705.627-6.038 1.333v-9.216l-3.295.47v26.549c2.196.511 5.059.745 6.824.745 6.55 0 8.118-2.784 8.118-7.137v-6.783Zm-11.647-1.609c1.294-.627 3.568-1.451 5.254-1.451 2.236 0 3.099.98 3.099 2.942v7.018c0 2.55-.707 4.119-4.588 4.119-1.177 0-2.47-.077-3.765-.275V123.32Zm20.353 15.137v-27.372l-3.295.47v26.902h3.295Zm9.57-19.097h-3.296v19.097h3.295V119.36Zm0-7.805h-3.296v4.746h3.295v-4.746Zm20.822 20.118v-5.529c0-4-2.196-7.176-7.764-7.176-5.57 0-7.766 3.176-7.766 7.176v5.529c0 4 2.197 7.176 7.766 7.176 5.568 0 7.764-3.176 7.764-7.176Zm-3.294-5.646v5.764c0 2.785-1.49 4.196-4.47 4.196-2.981 0-4.47-1.411-4.47-4.196v-5.764c0-2.784 1.489-4.198 4.47-4.198 2.98 0 4.47 1.414 4.47 4.198Zm18.118 9.569c-1.215.313-2.156.469-3.059.469-1.764 0-1.96-.705-1.96-2.117v-11.844h5.137l.275-2.744h-5.412v-5.179l-3.295.471v4.708h-3.373v2.744h3.373v12.392c0 3.177 1.53 4.353 4.746 4.353 1.412 0 2.824-.273 4-.704l-.432-2.549Zm7.256-3.805v-1.608h11.372v-4c0-3.962-1.53-7.215-7.176-7.215-5.687 0-7.491 3.176-7.491 7.136v5.725c0 4.316 1.921 7.02 7.569 7.02 2.392 0 4.942-.429 6.746-1.096l-.432-2.629c-2.079.549-4.158.903-6.04.903-3.726 0-4.548-1.215-4.548-4.236Zm0-5.922c0-2.666 1.097-4.157 4.196-4.157 3.097 0 4 1.491 4 4.157v1.568H115.4v-1.568Zm19.842 12.588v-27.372l-3.294.47v26.902h3.294Zm7.57-19.097-6.746 9.451 6.98 9.646h3.883l-7.137-9.646 6.824-9.451h-3.804Zm10.117 12.431v-1.608h11.373v-4c0-3.962-1.529-7.215-7.177-7.215-5.685 0-7.489 3.176-7.489 7.136v5.725c0 4.316 1.921 7.02 7.568 7.02 2.392 0 4.941-.429 6.745-1.096l-.431-2.629c-2.078.549-4.157.903-6.04.903-3.725 0-4.549-1.215-4.549-4.236Zm0-5.922c0-2.666 1.099-4.157 4.196-4.157 3.099 0 4.001 1.491 4.001 4.157v1.568h-8.197v-1.568Zm24.864-6.901a24.312 24.312 0 0 0-5.256 3.059l-.196-2.667h-2.863v19.097h3.295V125.28c1.568-1.097 3.647-2.431 5.451-3.293l-.431-3.019Zm18.588 19.489v-14.628c0-2.941-1.097-4.861-4.156-4.861-2.275 0-5.569 1.017-7.687 2.037l-.314-1.645h-2.667v19.097h3.295v-14.43c2.038-1.059 4.98-1.923 6.392-1.923 1.216 0 1.844.509 1.844 1.765v14.588h3.293Zm8.392-6.666v-1.608h11.373v-4c0-3.962-1.529-7.215-7.176-7.215-5.687 0-7.49 3.176-7.49 7.136v5.725c0 4.316 1.921 7.02 7.567 7.02 2.394 0 4.943-.429 6.747-1.096l-.432-2.629c-2.079.549-4.157.903-6.04.903-3.725 0-4.549-1.215-4.549-4.236Zm0-5.922c0-2.666 1.098-4.157 4.197-4.157 3.097 0 4 1.491 4 4.157v1.568h-8.197v-1.568Zm28.432 7.451c0-3.804-.431-4.471-5.922-5.843-3.216-.784-3.254-1.176-3.254-3.294 0-1.726.392-2.394 3.216-2.394 1.568 0 3.686.238 5.293.55l.236-2.704c-1.569-.432-3.569-.667-5.412-.667-5.02 0-6.588 1.608-6.588 5.136 0 3.961.431 4.941 5.176 6.117 3.844.942 4 1.178 4 3.216 0 2.042-.509 2.59-3.529 2.59-1.647 0-3.804-.315-5.451-.784l-.432 2.586c1.529.591 4.117 1.02 6.079 1.02 5.452 0 6.588-1.804 6.588-5.529Zm16.08-1.529v-1.608h11.372v-4c0-3.962-1.53-7.215-7.176-7.215-5.687 0-7.491 3.176-7.491 7.136v5.725c0 4.316 1.921 7.02 7.569 7.02 2.392 0 4.942-.429 6.746-1.096l-.432-2.629c-2.079.549-4.158.903-6.04.903-3.726 0-4.548-1.215-4.548-4.236Zm0-5.922c0-2.666 1.097-4.157 4.196-4.157 3.097 0 4 1.491 4 4.157v1.568h-8.196v-1.568Zm31.49-.94c0-3.649-1.648-5.961-5.608-5.961-2.432 0-4.706.627-6.04 1.333v-9.216l-3.294.47v26.549c2.197.511 5.06.745 6.824.745 6.549 0 8.118-2.784 8.118-7.137v-6.783Zm-11.648-1.609c1.295-.627 3.57-1.451 5.255-1.451 2.236 0 3.099.98 3.099 2.942v7.018c0 2.55-.706 4.119-4.588 4.119-1.178 0-2.471-.077-3.766-.275V123.32Zm16.079 16.196 1.452.904 1.647-2.629c1.176.666 2.705 1.058 4.666 1.058 5.57 0 7.766-3.176 7.766-7.176v-5.529c0-1.961-.55-3.765-1.766-5.059l1.766-2.784-1.451-.904-1.687 2.63c-1.177-.667-2.706-1.059-4.628-1.059-5.569 0-7.765 3.176-7.765 7.176v5.529c0 2 .511 3.764 1.765 5.059l-1.765 2.784Zm12.236-13.489v5.764c0 2.785-1.489 4.196-4.471 4.196-1.294 0-2.274-.234-3.02-.744l7.138-11.216c.236.586.353 1.216.353 2Zm-8.941 5.764v-5.764c0-2.784 1.49-4.198 4.47-4.198 1.255 0 2.275.275 2.982.784l-7.139 11.178c-.235-.548-.313-1.215-.313-2Zm32.314-12.431h-5.49c-.902-.275-2.235-.392-3.215-.392-5.452 0-7.452 2.392-7.452 6.548v.863c0 2.509.863 4.392 2.667 5.412-1.02.785-1.804 1.961-1.804 3.372 0 1.766.902 3.257 3.725 3.49 2.236.196 2.941.276 5.06.471 2.235.196 2.823.472 2.823 2.08 0 2-.471 2.667-5.334 2.667-1.921 0-4.392-.315-6.392-.784l-.47 2.586c2.157.59 5.176.903 6.941.903 6.903 0 8.353-1.372 8.353-5.531 0-2.9-1.333-4.233-4.784-4.588-2.393-.236-3.412-.353-5.412-.548-.862-.08-1.256-.354-1.256-1.097 0-.825.707-1.492 1.374-2.041a15.13 15.13 0 0 0 1.961.117c4.98 0 7.489-2.392 7.489-6.509v-.863c-.038-1.489-.352-2.823-1.058-3.804l2.274-.432v-1.92Zm-4.353 6.195v.824c0 2.509-1.215 3.804-4.352 3.804-3.137 0-4.353-.903-4.353-3.804v-.824c0-2.824 1.176-3.883 4.353-3.883 3.176 0 4.352 1.099 4.352 3.883Zm11.099 6.236v-1.608h11.373v-4c0-3.962-1.53-7.215-7.177-7.215-5.687 0-7.491 3.176-7.491 7.136v5.725c0 4.316 1.923 7.02 7.569 7.02 2.392 0 4.941-.429 6.745-1.096l-.432-2.629c-2.077.549-4.156.903-6.038.903-3.725 0-4.549-1.215-4.549-4.236Zm0-5.922c0-2.666 1.098-4.157 4.196-4.157s3.999 1.491 3.999 4.157v1.568h-8.195v-1.568Zm24.861-6.901a24.363 24.363 0 0 0-5.254 3.059l-.196-2.667h-2.862v19.097h3.294V125.28c1.568-1.097 3.647-2.431 5.451-3.293l-.433-3.019Zm26.748 12.705v-5.529c0-4-2.196-7.176-7.766-7.176-5.569 0-7.765 3.176-7.765 7.176v5.529c0 4 2.196 7.176 7.765 7.176 5.57 0 7.766-3.176 7.766-7.176Zm-3.295-5.646v5.764c0 2.785-1.489 4.196-4.471 4.196-2.981 0-4.47-1.411-4.47-4.196v-5.764c0-2.784 1.489-4.198 4.47-4.198 2.982 0 4.471 1.414 4.471 4.198Zm23.373-6.667h-5.492c-.9-.275-2.233-.392-3.213-.392-5.453 0-7.453 2.392-7.453 6.548v.863c0 2.509.864 4.392 2.666 5.412-1.018.785-1.802 1.961-1.802 3.372 0 1.766.902 3.257 3.725 3.49 2.236.196 2.941.276 5.06.471 2.235.196 2.823.472 2.823 2.08 0 2-.472 2.667-5.334 2.667-1.921 0-4.392-.315-6.392-.784l-.472 2.586c2.159.59 5.178.903 6.943.903 6.903 0 8.353-1.372 8.353-5.531 0-2.9-1.333-4.233-4.784-4.588-2.394-.236-3.412-.353-5.412-.548-.862-.08-1.256-.354-1.256-1.097 0-.825.707-1.492 1.374-2.041a15.13 15.13 0 0 0 1.961.117c4.98 0 7.488-2.392 7.488-6.509v-.863c-.037-1.489-.351-2.823-1.057-3.804l2.274-.432v-1.92Zm-4.353 6.195v.824c0 2.509-1.215 3.804-4.352 3.804-3.137 0-4.353-.903-4.353-3.804v-.824c0-2.824 1.174-3.883 4.353-3.883 3.176 0 4.352 1.099 4.352 3.883Zm20.511 12.902v-27.372l-3.295.47v26.902h3.295Zm8.352 7.726h3.098l2.707-7.726 6.313-19.097h-3.254l-5.295 16.469-5.216-16.469h-3.255l6.196 19.097h1.372l-2.666 7.726Zm14.785-13.176c0 3.842 1.804 5.842 5.569 5.842 2.51 0 4.746-.862 6.312-2.117l.275 1.725h2.787v-27.372l-3.295.47v8c-1.529-.312-3.767-.587-5.452-.587-4.471 0-6.196 2.429-6.196 6.235v7.804Zm11.648.666c-1.412 1.256-3.529 2.275-5.412 2.275-2.315 0-2.941-.98-2.941-2.941v-7.804c0-2.315.901-3.334 3.097-3.334 1.335 0 3.489.235 5.256.588v11.216Zm24.509-8.744c0-3.649-1.646-5.961-5.608-5.961-2.43 0-4.705.627-6.038 1.333v-9.216l-3.296.47v26.549c2.198.511 5.061.745 6.825.745 6.549 0 8.117-2.784 8.117-7.137v-6.783Zm-11.646-1.609c1.294-.627 3.569-1.451 5.254-1.451 2.236 0 3.099.98 3.099 2.942v7.018c0 2.55-.707 4.119-4.588 4.119-1.177 0-2.471-.077-3.765-.275V123.32Zm16.078 16.196 1.452.904 1.647-2.629c1.176.666 2.705 1.058 4.666 1.058 5.57 0 7.766-3.176 7.766-7.176v-5.529c0-1.961-.55-3.765-1.766-5.059l1.766-2.784-1.451-.904-1.687 2.63c-1.177-.667-2.706-1.059-4.628-1.059-5.568 0-7.765 3.176-7.765 7.176v5.529c0 2 .509 3.764 1.765 5.059l-1.765 2.784Zm12.235-13.489v5.764c0 2.785-1.488 4.196-4.47 4.196-1.294 0-2.274-.234-3.02-.744l7.138-11.216c.236.586.352 1.216.352 2Zm-8.941 5.764v-5.764c0-2.784 1.491-4.198 4.471-4.198 1.255 0 2.275.275 2.982.784l-7.139 11.178c-.235-.548-.314-1.215-.314-2Zm32.315-12.431h-5.49c-.902-.275-2.235-.392-3.216-.392-5.451 0-7.451 2.392-7.451 6.548v.863c0 2.509.863 4.392 2.667 5.412-1.02.785-1.804 1.961-1.804 3.372 0 1.766.902 3.257 3.725 3.49 2.236.196 2.941.276 5.06.471 2.235.196 2.823.472 2.823 2.08 0 2-.471 2.667-5.334 2.667-1.921 0-4.392-.315-6.392-.784l-.47 2.586c2.157.59 5.174.903 6.941.903 6.901 0 8.353-1.372 8.353-5.531 0-2.9-1.333-4.233-4.785-4.588-2.393-.236-3.411-.353-5.411-.548-.864-.08-1.257-.354-1.257-1.097 0-.825.708-1.492 1.375-2.041.65.081 1.305.121 1.96.117 4.981 0 7.49-2.392 7.49-6.509v-.863c-.038-1.489-.352-2.823-1.058-3.804l2.274-.432v-1.92Zm-4.353 6.195v.824c0 2.509-1.215 3.804-4.353 3.804-3.136 0-4.352-.903-4.352-3.804v-.824c0-2.824 1.176-3.883 4.352-3.883 3.177 0 4.353 1.099 4.353 3.883Zm11.099 6.236v-1.608h11.373v-4c0-3.962-1.529-7.215-7.177-7.215-5.687 0-7.491 3.176-7.491 7.136v5.725c0 4.316 1.921 7.02 7.568 7.02 2.393 0 4.941-.429 6.747-1.096l-.432-2.629c-2.078.549-4.156.903-6.04.903-3.726 0-4.548-1.215-4.548-4.236Zm0-5.922c0-2.666 1.098-4.157 4.196-4.157s4 1.491 4 4.157v1.568h-8.196v-1.568Zm24.862-6.901a24.401 24.401 0 0 0-5.256 3.059l-.194-2.667h-2.864v19.097h3.296V125.28c1.568-1.097 3.645-2.431 5.45-3.293l-.432-3.019Zm22.903-7.649a13.49 13.49 0 0 0-3.883-.55c-3.529 0-5.41 1.687-5.41 5.06v3.531h-3.374v2.744h3.374v16.353h3.293v-16.353h5.177l.274-2.744h-5.451v-3.216c0-1.923.511-2.629 2.549-2.629.824 0 2.158.157 3.176.354l.275-2.55Zm17.296 20.354v-5.529c0-4-2.197-7.176-7.765-7.176-5.57 0-7.766 3.176-7.766 7.176v5.529c0 4 2.196 7.176 7.766 7.176 5.568 0 7.765-3.176 7.765-7.176Zm-3.296-5.646v5.764c0 2.785-1.489 4.196-4.469 4.196-2.982 0-4.472-1.411-4.472-4.196v-5.764c0-2.784 1.49-4.198 4.472-4.198 2.98 0 4.469 1.414 4.469 4.198Zm16.904-7.059a24.271 24.271 0 0 0-5.256 3.059l-.197-2.667h-2.862v19.097h3.295V125.28c1.567-1.097 3.647-2.431 5.449-3.293l-.429-3.019Zm27.137 5.961c0-3.649-1.648-5.961-5.608-5.961-2.432 0-4.707.627-6.04 1.333v-9.216l-3.293.47v26.549c2.196.511 5.058.745 6.824.745 6.549 0 8.117-2.784 8.117-7.137v-6.783Zm-11.648-1.609c1.295-.627 3.569-1.451 5.256-1.451 2.236 0 3.099.98 3.099 2.942v7.018c0 2.55-.707 4.119-4.59 4.119-1.176 0-2.47-.077-3.765-.275V123.32Zm16.08 16.196 1.451.904 1.648-2.629c1.176.666 2.705 1.058 4.666 1.058 5.568 0 7.764-3.176 7.764-7.176v-5.529c0-1.961-.548-3.765-1.764-5.059l1.764-2.784-1.45-.904-1.687 2.63c-1.176-.667-2.705-1.059-4.627-1.059-5.57 0-7.765 3.176-7.765 7.176v5.529c0 2 .509 3.764 1.765 5.059l-1.765 2.784Zm12.236-13.489v5.764c0 2.785-1.491 4.196-4.471 4.196-1.294 0-2.274-.234-3.02-.744l7.138-11.216c.236.586.353 1.216.353 2Zm-8.941 5.764v-5.764c0-2.784 1.489-4.198 4.47-4.198 1.255 0 2.275.275 2.98.784l-7.137 11.178c-.236-.548-.313-1.215-.313-2Zm25.844-12.823a24.248 24.248 0 0 0-5.256 3.059l-.196-2.667h-2.863v19.097h3.295V125.28c1.568-1.097 3.646-2.431 5.45-3.293l-.43-3.019Zm18.588 19.489v-14.628c0-2.941-1.098-4.861-4.156-4.861-2.275 0-5.57 1.017-7.687 2.037l-.315-1.645h-2.666v19.097h3.293v-14.43c2.04-1.059 4.981-1.923 6.392-1.923 1.217 0 1.845.509 1.845 1.765v14.588h3.294Z"/>
</svg>
