<?xml version="1.0" encoding="UTF-8" standalone="no"?>
<!-- Generator: Adobe Illustrator 22.0.1, SVG Export Plug-In . SVG Version: 6.00 Build 0)  -->

<svg
   xmlns:dc="http://purl.org/dc/elements/1.1/"
   xmlns:cc="http://creativecommons.org/ns#"
   xmlns:rdf="http://www.w3.org/1999/02/22-rdf-syntax-ns#"
   xmlns:svg="http://www.w3.org/2000/svg"
   xmlns="http://www.w3.org/2000/svg"
   xmlns:sodipodi="http://sodipodi.sourceforge.net/DTD/sodipodi-0.dtd"
   xmlns:inkscape="http://www.inkscape.org/namespaces/inkscape"
   version="1.1"
   x="0px"
   y="0px"
   viewBox="0 0 67.199996 61.200001"
   xml:space="preserve"
   id="svg11"
   sodipodi:docname="round_play_button.svg"
   width="67.199997"
   height="61.200001"
   inkscape:version="0.92.3 (2405546, 2018-03-11)"><metadata
   id="metadata17"><rdf:RDF><cc:Work
       rdf:about=""><dc:format>image/svg+xml</dc:format><dc:type
         rdf:resource="http://purl.org/dc/dcmitype/StillImage" /><dc:title></dc:title></cc:Work></rdf:RDF></metadata><defs
   id="defs15" /><sodipodi:namedview
   pagecolor="#ffffff"
   bordercolor="#666666"
   borderopacity="1"
   objecttolerance="10"
   gridtolerance="10"
   guidetolerance="10"
   inkscape:pageopacity="0"
   inkscape:pageshadow="2"
   inkscape:window-width="2560"
   inkscape:window-height="1413"
   id="namedview13"
   showgrid="false"
   inkscape:pagecheckerboard="true"
   fit-margin-top="0"
   fit-margin-left="0"
   fit-margin-right="0"
   fit-margin-bottom="0"
   inkscape:zoom="8"
   inkscape:cx="61.6375"
   inkscape:cy="10.985669"
   inkscape:window-x="1360"
   inkscape:window-y="27"
   inkscape:window-maximized="1"
   inkscape:current-layer="svg11" />
<style
   type="text/css"
   id="style2">
	.st0{fill:#FFFFFF;}
	.st1{fill:#837B6F;}
</style>
<g
   id="Layer_2"
   transform="translate(-16.4,-4.9)">
</g>
<g
   id="Layer_1"
   transform="translate(-16.4,-4.9)">
	<path
   class="st0"
   d="M 83.6,38.5 C 83.6,55.4 66.9,66.1 50,66.1 33.1,66.1 16.4,55.4 16.4,38.5 16.4,21.6 33.1,4.9 50,4.9 c 16.9,0 33.6,16.7 33.6,33.6 z"
   id="path5"
   inkscape:connector-curvature="0"
   style="fill:#ffffff" />
	<path
   class="st1"
   d="M 64.4,36 46.5,46.7 c -1.3,0.8 -3.1,-0.1 -3.1,-1.8 L 43.1,24 c 0,-1.6 1.7,-2.6 3,-1.8 l 18.2,10.2 c 1.4,0.9 1.5,2.9 0.1,3.6 z"
   id="path7"
   inkscape:connector-curvature="0"
   style="fill:#837b6f" />
</g>
<g
   id="Layer_3"
   transform="translate(-16.4,-4.9)">
</g>
</svg>
